<?xml version="1.0" standalone="no"?>
<!DOCTYPE svg PUBLIC "-//W3C//DTD SVG 1.1//EN" "http://www.w3.org/Graphics/SVG/1.1/DTD/svg11.dtd" >
<svg>
<metadata>
Created by FontForge 20090914 at Fri Feb  8 11:23:54 2019
 By www-data
MB Demonic Tale &#194;&#169; ModBlackmoon [modblackmoon.narod.ru]. 2012. All Rights Reserved. Freeware. No Modify.
</metadata>
<defs>
<font id="MBDemonicTale" horiz-adv-x="1281" >
  <font-face 
    font-family="MB Demonic Tale"
    font-weight="400"
    font-stretch="normal"
    units-per-em="2048"
    panose-1="2 0 5 0 0 0 0 0 0 0"
    ascent="1638"
    descent="-410"
    x-height="1236"
    cap-height="1254"
    bbox="-112.999 -435.001 2097 1856"
    underline-thickness="150"
    underline-position="-142"
    unicode-range="U+0020-U+2212"
  />
<missing-glyph horiz-adv-x="1024" 
d="M100 0v1434h824v-1434h-824zM150 50h724v1334h-724v-1334zM325 1148c20.667 18.667 40.002 32.998 58.002 42.998c35.333 20 72.666 30 111.999 30c61.333 0 110.666 -15.833 147.999 -47.5s56 -74.167 56 -127.5c0 -32.667 -7.66699 -65.5 -23 -98.5
s-44.333 -76.167 -87 -129.5c-42 -53.333 -75 -97.333 -99 -132s-36 -67.667 -36 -99c0 -25.333 8 -69.666 24 -132.999h-32c-23.333 64.667 -35 114 -35 148c0 50.667 27.167 123.334 81.5 218.001s81.5 167 81.5 217c0 38 -11 68 -33 90s-52.333 33 -91 33
c-25.333 0 -48.333 -5.66699 -69 -17c-17.333 -10 -36 -23.333 -56 -40v45zM389.002 333.998l57 57.999c7.33301 6.66699 14 10 20 10c6.66699 0 14 -3.66699 22 -11l56 -60c6 -7.33301 9 -14 9 -20c0 -7.33301 -3.33301 -14.666 -10 -21.999l-56 -62
c-9.33301 -9.33301 -16.333 -14 -21 -14c-7.33301 0 -14 3.33301 -20 10l-61 71c-4.66699 6 -7 12 -7 18c0 6.66699 3.66699 14 11 22z" />
    <glyph glyph-name=".notdef" horiz-adv-x="1024" 
d="M100 0v1434h824v-1434h-824zM150 50h724v1334h-724v-1334zM325 1148c20.667 18.667 40.002 32.998 58.002 42.998c35.333 20 72.666 30 111.999 30c61.333 0 110.666 -15.833 147.999 -47.5s56 -74.167 56 -127.5c0 -32.667 -7.66699 -65.5 -23 -98.5
s-44.333 -76.167 -87 -129.5c-42 -53.333 -75 -97.333 -99 -132s-36 -67.667 -36 -99c0 -25.333 8 -69.666 24 -132.999h-32c-23.333 64.667 -35 114 -35 148c0 50.667 27.167 123.334 81.5 218.001s81.5 167 81.5 217c0 38 -11 68 -33 90s-52.333 33 -91 33
c-25.333 0 -48.333 -5.66699 -69 -17c-17.333 -10 -36 -23.333 -56 -40v45zM389.002 333.998l57 57.999c7.33301 6.66699 14 10 20 10c6.66699 0 14 -3.66699 22 -11l56 -60c6 -7.33301 9 -14 9 -20c0 -7.33301 -3.33301 -14.666 -10 -21.999l-56 -62
c-9.33301 -9.33301 -16.333 -14 -21 -14c-7.33301 0 -14 3.33301 -20 10l-61 71c-4.66699 6 -7 12 -7 18c0 6.66699 3.66699 14 11 22z" />
    <glyph glyph-name="space" unicode=" " horiz-adv-x="508" 
 />
    <glyph glyph-name="space" unicode="&#xa0;" horiz-adv-x="508" 
 />
    <glyph glyph-name="exclam" unicode="!" horiz-adv-x="648" 
d="M416 1387l16.001 0.000976562c10.667 0 16 -7 16 -21l-5 -16h58c7.33301 0 12.666 -10.667 15.999 -32c-38 -26 -61 -49 -69 -69l-5 -296l5 -143l11 -11v-175c0 -52.667 15.667 -79 47 -79c0 -10.667 5.33301 -16 16 -16l6 -5v-32l-11 -11h-175l-16 -10h-121
c-28.667 11.333 -43 20 -43 26v11c7.33301 14 18 21 32 21v5h-32c-16 0 -49.667 -10.333 -101 -31l16 -22l-21 -21c-14 5.33301 -21 10.666 -21 15.999v5c0 34 39 69.333 117 106l47 59h11l16 -6v6l10 106l-10 471c-7.33301 0 -14.333 14 -21 42
c-10.667 0 -16 7.33301 -16 22c-28.667 0 -43 12.333 -43 37l32 26h233l-5 5v22zM183.001 1271c14.667 -19.333 22 -35.334 22 -48.001v-27c-28.667 -31.333 -43 -64.666 -43 -99.999c0 -46.667 16 -85.667 48 -117v-74l-11 -10c-56.667 46 -85 107.667 -85 185
c0 52 23 115.667 69 191zM242.001 391h196c20 0 35.667 -12.333 47 -37l-5 -37v-53c0 -30 31.667 -53 95 -69l11 -16v-26c-2 -10.667 -16 -16 -42 -16h-6l-233 5l-48 -5c-24.667 0 -38.667 26.333 -42 79v133c0 19.333 9 33.333 27 42z" />
    <glyph glyph-name="quotedbl" unicode="&#x22;" horiz-adv-x="580" 
d="M-17 1745l4.00098 3l30 -3l3 -4c6.66699 -8 3 -17.667 -11 -29c86.667 -52.667 148 -65 184 -37c5.33301 -6 21.333 -0.333008 48 17c5.33301 -6.66699 20.666 -6 45.999 2l9 -12c-94 -74 -134 -209 -120 -405l-7 -67c-14 -10.667 -48.333 -13 -103 -7l-10 13
c12 110 5.33301 232.667 -20 368l55 24l-3 4l-69 53l-23 30c-16.667 21.333 -21 38 -13 50zM237.001 1745l4.00098 3l30 -3l3 -4c6.66699 -8 3 -17.667 -11 -29c86.667 -52.667 148 -65 184 -37c5.33301 -6 21.333 -0.333008 48 17c5.33301 -6.66699 20.666 -6 45.999 2
l9 -12c-94 -74 -134 -209 -120 -405l-7 -67c-14 -10.667 -48.333 -13 -103 -7l-10 13c12 110 5.33301 232.667 -20 368l55 24l-3 4l-69 53l-23 30c-16.667 21.333 -21 38 -13 50zM490.002 1580l6.99902 -0.999023c25.333 -52.667 38.333 -100.667 39 -144
c-8 -83.333 -35.333 -143 -82 -179l-4 -4l-3 4c-8 57.333 0 95.666 24 114.999c22.667 68.667 20.334 120.667 -6.99902 156z" />
    <glyph glyph-name="dollar" unicode="$" horiz-adv-x="1108" 
d="M448 1561l78.999 -5h143l32 -27c0 -24.667 -14 -37 -42 -37c0 -8 -7.33301 -16.667 -22 -26c-6.66699 -30 -10 -69 -10 -117v-63h5c152.667 -18 265.667 -35.667 339 -53l5 -27c0 -166 -17.667 -249 -53 -249l-5 -5c-24.667 18 -37 44.667 -37 80
c-56 60.667 -119.667 97.667 -191 111c-20.667 0 -34.667 3.33301 -42 10h-32l-5 -355v-15c46.667 -18.667 149 -79 307 -181c63.333 -54.667 95 -114.667 95 -180v-5c-2 -45.333 -39 -109 -111 -191l-106 -47c-36.667 -14.667 -80.667 -22 -132 -22h-5l-16 -10h-27l-5 -53
v-69c0 -40 16 -68.333 48 -85c14 -8.66699 21 -24.334 21 -47.001l-16 -11l-101 5l-90 -5c-36 0 -59 10.667 -69 32v10c0 6 19.667 16.667 59 32c2.66699 31.333 7.66699 50.666 15 57.999v106l6 27h-37l-22 10l-196 11c0 7.33301 -5 11 -15 11
c-70.667 0 -106 10.333 -106 31l-11 122l5 122l48 11c28 0 42 -23 42 -69c38.667 -74 97 -111 175 -111h48l16 -11h58v313c-4 8 -48 29 -132 63c-4 14 -16.667 21 -38 21c0 10.667 -7 16 -21 16l-106 90c-39.333 44.667 -67.333 92.334 -84 143.001v74
c10 14.667 15 34.334 15 59.001c50.667 94 121.334 159.333 212.001 196c62 24.667 111.667 37 149 37h5v95c0 78 -16 117 -48 117l-16 16v21zM383.999 1047v-99.999c13.333 -36.667 50.333 -70.334 111 -101.001h6v238l-11 16v37h-5c-60 -18.667 -90 -45 -90 -79z
M473.999 1021l5 -5.00098v-43c-35.333 -29.333 -53 -48.666 -53 -57.999h-15l-11 37v27c6 14.667 30.667 28.667 74 42zM637.999 1016c37.333 -28.667 74.667 -42.999 112 -42.999l47 16l16 -21c-24.667 -42.667 -37 -81.667 -37 -117v-26
c0 -16.667 10.667 -48.334 32 -95.001l16 10h10l11 -10v-16l-11 -11h-5c-34.667 0 -71.667 40.667 -111 122c-35.333 23.333 -53 39.333 -53 48l5 15c-2.66699 28 -16.667 54.667 -42 80v37zM209 730.001l6.00098 0.000976562c65.333 -50 102.333 -75 111 -75v-5
c-49.333 -28.667 -74 -62.334 -74 -101.001c18 -105.333 71 -158 159 -158c33.333 -9.33301 52.666 -20 57.999 -32v-53l-11 -11c-134 34.667 -201 70 -201 106c-32 38 -48 87.333 -48 148v22l21 84c-3.33301 32.667 -10.333 55.667 -21 69v6zM617.001 523.002v-217
c20 0 43 8.66699 69 26c21.333 14 32 40.667 32 80c0 40 -32 77 -96 111h-5z" />
    <glyph glyph-name="percent" unicode="%" horiz-adv-x="1601" 
d="M432 1349l65.0029 -2c6.66699 -4.66699 28.667 -9 66 -13l3 -4c74.667 -22.667 130.334 -60.667 167.001 -114c22.667 -22 45.667 -63.333 69 -124c0 -13.333 2.33301 -22 7 -26l-2 -78c-4.66699 0 -8.33398 -19.667 -11.001 -59c-23.333 -60 -43.333 -93.333 -60 -100
c-28 -38 -74.667 -68.333 -140 -91c-20 -14.667 -68.333 -24.667 -145 -30l-29 -2c-48 1.33301 -112 22.666 -192 63.999c-60 34.667 -96 73.334 -108 116.001c-24.667 62 -36.334 121.333 -35.001 178l1 13l9 9l1 12c0.666992 26.667 11 55.334 31 86.001l-7 5l-4 1l-28 -2
c-10 22.667 -35.667 41 -77 55c-22.667 18 -34 31.333 -34 40v3c0.666992 4 7 6.66699 19 8l11 -12l-6 -13c28 -12.667 54.333 -19.334 79 -20.001c23.333 0 53.666 6.66699 90.999 20l11 -13l-8 -17c52.667 46 106.667 77.333 162 94c49.333 4.66699 80.666 10 93.999 16z
M263.003 1065l-1.00098 -46c-2.66699 -92 24.333 -155 81 -189c42 -34.667 80 -52.334 114 -53.001c32 1.33301 68 16.333 108 45c44 42.667 67 98.667 69 168v29c1.33301 50.667 -9 102 -31 154c0.666992 24 -19 50 -59 78c-32.667 13.333 -66.667 20.333 -102 21
c-74 2 -126.333 -29.667 -157 -95c-13.333 -25.333 -20.666 -62.666 -21.999 -111.999zM1134 1311l52.998 -3.99805l206 -4l24 -14l-3 -13c-1.33301 -4 -19.333 -9 -54 -15c-36 -17.333 -76 -58.333 -120 -123c-28.667 -24 -76.334 -80.333 -143.001 -169l-32 -35l-1 -3
l4 -61l-7 -26c-6 -22.667 -30.667 -54 -74 -94l-5 -18l6 -30l-20 -9l-57 23c40.667 55.333 67.334 82.666 80.001 81.999l25 32l12 44c-17.333 -10 -52.666 -53 -105.999 -129c-10 -6 -45.667 -52 -107 -138c-10.667 -7.33301 -32.334 -35 -65.001 -83l-228 -293
c-35.333 -34 -56 -63.333 -62 -88l-1 -3c14.667 -12.667 20.667 -23.667 18 -33l-1 -6l-12 -9l-93 5l-140 -1c-35.333 0.666992 -56 8.66699 -62 24c4.66699 8 26.334 15.333 65.001 22c32.667 20.667 65.667 57 99 109c7.33301 0.666992 30 23.667 68 69l258 325
c1.33301 6 -10 26.667 -34 62l-2 28l3 9c1.33301 6 8 9.33301 20 10l16 -10l-1 -3c-2 -6.66699 -9 -9.66699 -21 -9c2 -9.33301 17.667 -24.666 47 -45.999h4c141.333 179.333 213.333 273.666 216 282.999c-11.333 24 -13.666 49.667 -6.99902 77
c8 29.333 33.333 64.333 76 105l6 22l-3 25c1.33301 5.33301 8.33301 8.33301 21 9l65 -23c-31.333 -46.667 -60.333 -73.667 -87 -81c-19.333 -13.333 -31 -29.333 -35 -48l2 -44l5 -1c2.66699 9.33301 57 81.666 163 216.999l13 32c2 8 -7 14.667 -27 20l3 13z
M1172 76.002l-64.001 1.00195c-6.66699 4.66699 -28.667 9.33398 -66 14.001l-3 3c-75.333 22.667 -131.333 61 -168 115c-22.667 22 -45.667 63.333 -69 124c0.666992 13.333 -1.66602 21.666 -6.99902 24.999l2 79c5.33301 0 9.33301 19.667 12 59
c22.667 60 42.667 93 60 99c27.333 38 73.666 68.667 138.999 92c20.667 14 69 24 145 30l30 1c48 -0.666992 111.667 -21.667 191 -63c60.667 -34.667 96.667 -73.334 108 -116.001c24.667 -62 36.334 -121.333 35.001 -178v-13l-10 -10v-11
c-0.666992 -26.667 -11.334 -55.334 -32.001 -86.001l8 -6h4l27 2c10 -22.667 35.667 -41 77 -55c22.667 -18 34 -31.333 34 -40v-3c0 -4 -6.33301 -6.66699 -19 -8l-11 11l7 14c-28 12 -54.333 18.333 -79 19c-23.333 0.666992 -54 -5.66602 -92 -18.999l-10 12l8 18
c-53.333 -46.667 -107.666 -78.334 -162.999 -95.001c-48.667 -4 -80 -9 -94 -15zM1342 360.004l1 46.001c2 92 -25.333 155 -82 189c-41.333 34 -79.333 51.667 -114 53c-31.333 -1.33301 -67.333 -16.333 -108 -45c-44 -42.667 -66.667 -98.667 -68 -168l-1 -29
c-1.33301 -50.667 9 -102 31 -154c-0.666992 -24 19 -50 59 -78c33.333 -13.333 67.333 -20.333 102 -21c74 -2 126.333 29.667 157 95c14 25.333 21.667 62.666 23 111.999z" />
    <glyph glyph-name="ampersand" unicode="&#x26;" horiz-adv-x="1114" 
d="M600 1276c102 0 197.334 -44.3359 286.001 -133.003c24.667 -51.333 37 -97 37 -137c0 -64 -35.333 -133 -106 -207l-5 -26v-11l15 -53v-21l-15 -16h-16l-149 154c53.333 48.667 80 103.334 80 164.001c-13.333 127.333 -59.333 191 -138 191h-5
c-56.667 0 -97.334 -58.333 -122.001 -175c0 -60 61.667 -148.333 185 -265c0 -11.333 83 -92.666 249 -243.999c233.333 -212 374.666 -318 423.999 -318c22.667 0 38.667 -8.66699 48 -26v-21c0 -18 -47.667 -27 -143 -27h-6c-72.667 0 -153.667 42.333 -243 127
c-30.667 -60 -165 -90 -403 -90h-32c-196 0 -314.333 40.667 -355 122c0 12 -30 19 -90 21c-33.333 0 -66.666 -12.333 -99.999 -37l10 -10v-11l-21 -16c-14 5.33301 -21 10.666 -21 15.999c0 34.667 33.667 68.334 101 101.001c13.333 3.33301 34.333 26.333 63 69h11
c-7.33301 15.333 -11 38 -11 68v27c0 127.333 83 221 249 281l21 5c-84.667 76.667 -127 140.334 -127 191.001v37c0 121.333 62 202.333 186 243c60 18 107.667 27 143 27zM594.001 1170l6 -4.99805v-6c-17.333 -24.667 -26.333 -49.334 -27 -74.001v-10
c0 -36.667 17.667 -79.334 53 -128.001l11 -58c-9.33301 -56.667 -20 -85 -32 -85c-21.333 15.333 -35.333 49 -42 101c-35.333 50 -53 96 -53 138v5c0 81.333 28 122 84 122zM351.001 470.999c14.667 -124 35.668 -186 63.001 -186c55.333 -21.333 120.666 -32 195.999 -32
c138 10.667 207 42.667 207 96l5 32l-318 296c-30 0 -70.667 -38.667 -122 -116c-14 -23.333 -24.333 -53.333 -31 -90zM488.002 544.999c74 0 136 -46.001 186 -138.001c10.667 -22 17.667 -53.667 21 -95c0 -28.667 -12.333 -43 -37 -43h-5l-6 6h-5l5 16
c0 80.667 -28 133.334 -84 158.001c-24.667 10.667 -47.667 16 -69 16c-50 0 -85.333 -26.333 -106 -79h-6c-7.33301 0 -12.333 19.333 -15 58c0 67.333 40.333 101 121 101z" />
    <glyph glyph-name="quotesingle" unicode="'" horiz-adv-x="318" 
d="M-13 1745l4.00098 3l30 -3l3 -4c6.66699 -8 3 -17.667 -11 -29c86.667 -52.667 148 -65 184 -37c5.33301 -6 21.333 -0.333008 48 17c5.33301 -6.66699 20.666 -6 45.999 2l9 -12c-94 -74 -134 -209 -120 -405l-7 -67c-14 -10.667 -48.333 -13 -103 -7l-10 13
c12 110 5.33301 232.667 -20 368l55 24l-3 4l-69 53l-23 30c-16.667 21.333 -21 38 -13 50zM240.001 1580l6.99902 -0.999023c25.333 -52.667 38.333 -100.667 39 -144c-8 -83.333 -35.333 -143 -82 -179l-4 -4l-3 4c-8 57.333 0 95.666 24 114.999
c22.667 68.667 20.334 120.667 -6.99902 156z" />
    <glyph glyph-name="parenleft" unicode="(" horiz-adv-x="821" 
d="M666 1689h10.002l22 -21v-90c-4.66699 -8.66699 -38.334 -30 -101.001 -64c-67.333 -62 -101 -190.667 -101 -386l-5 -6h-5l-6 -371l6 -376l10 -10v-27c0 -91.333 5.33301 -137 16 -137c18 -10.667 35.667 -16 53 -16h21l43 10l21 -21c-13.333 0 -27.333 -39 -42 -117
c3.33301 -34 13.666 -71 30.999 -111l27 6h5l11 -11v-16l-11 -11h-10c-27.333 0 -59.333 32 -96 96c0 12 -14 27.667 -42 47v-10c13.333 -74 27.333 -111 42 -111c0 -7.33301 28.333 -34 85 -80v-69c0 -49.333 -10.667 -74 -32 -74
c-70.667 8.66699 -164.334 67 -281.001 175c-35.333 43.333 -53 105 -53 185v6l-10 16l-11 259l-10 11v16l-6 275l-42 5c-24 0 -61 -10.333 -111 -31l10 -16v-11l-16 -16h-10l-16 16c0 34 33.667 67.667 101 101c35.333 21.333 53 42.333 53 63h31v22l6 370l10 11v11
c0 112.667 23 202.667 69 270c86.667 107.333 153.667 169 201 185c38.667 32 81.334 48 128.001 48zM210.002 1477c30.667 -17.333 62.668 -29.666 96.001 -36.999v-5c-32.667 -81.333 -59.334 -122 -80.001 -122c-21.333 -26.667 -32 -48 -32 -64v-53
c0 -32 16 -63.667 48 -95c0 -52.667 -5.33301 -79 -16 -79c-56.667 50.667 -85 110.667 -85 180c0 45.333 19.667 103.666 59 174.999l5 26l-16 58zM539.003 720c8 0 13.333 -9.00098 16 -27.001c-8.66699 0 -14 -16 -16 -48c0 -13.333 17.667 -57.333 53 -132l5 -53v-32
c0 -63.333 -26.333 -112.666 -79 -147.999c-7.33301 16 -11 39 -11 69v10c28 26.667 42 53.334 42 80.001v53c0 24 -17.667 50.333 -53 79v127c0 9.33301 14.333 16.666 43 21.999zM242.003 194.999c7.33301 -13.333 11.001 -32.666 11.001 -57.999v-5l-16 -75v-15
c0 -26.667 17.667 -60.334 53 -101.001c0 -39.333 46 -87 138 -143v-11l-43 -47h-5c-10.667 32 -58.334 72.333 -143.001 121c-53.333 64 -80 122.333 -80 175v21c0 42.667 28.333 88.667 85 138z" />
    <glyph glyph-name="parenright" unicode=")" horiz-adv-x="813" 
d="M149 1684c46 0 88.3369 -16 127.004 -48c47.333 -16 114.666 -77.667 201.999 -185c45.333 -67.333 68 -157.333 68 -270v-11l11 -11l5 -370v-22h32c0 -20.667 17.667 -41.667 53 -63c67.333 -33.333 101 -67 101 -101l-16 -16h-11l-16 16v11l11 16
c-50 20.667 -87 31 -111 31l-43 -5l-5 -275v-16l-11 -11l-10 -259l-11 -16v-6c0 -80 -17.667 -141.667 -53 -185c-116 -108 -209.667 -166.333 -281 -175c-20.667 0 -31 24.667 -31 74v69c56 46 84 72.667 84 80c15.333 0 29.666 37 42.999 111v10
c-28.667 -19.333 -43 -35 -43 -47c-36.667 -64 -68.334 -96 -95.001 -96h-11l-10 11v16l10 11h6l26 -6c18 40 28.667 77 32 111c-14.667 78 -28.667 117 -42 117l21 21l42 -10h21c17.333 0 35 5.33301 53 16c10.667 0 16 45.667 16 137v27l11 10l5 376l-5 371h-5l-6 6
c0 195.333 -33.333 324 -100 386c-62.667 34 -96.334 55.333 -101.001 64v90l21 21h11zM621.004 1461l-16 -58l5 -26c38.667 -71.333 58 -129.666 58 -174.999c0 -69.333 -28.333 -129.333 -85 -180c-10 0 -15 26.333 -15 79c31.333 31.333 47 63 47 95v53
c0 16 -10.667 37.333 -32 64c-20 0 -46.333 40.667 -79 122v5c33.333 7.33301 65 19.666 95 36.999zM313.004 698v-126.999c-35.333 -28.667 -53 -55 -53 -79v-53c0 -26.667 14.333 -53.334 43 -80.001v-10c0 -30 -3.66699 -53 -11 -69
c-52.667 35.333 -79 84.666 -79 147.999v32l5 53c35.333 74.667 53 118.667 53 132c-2 32 -7.33301 48 -16 48c2.66699 18 8 27 16 27c28 -5.33301 42 -12.666 42 -21.999zM652.004 57.001l0.000976562 -21c0 -52.667 -26.333 -111 -79 -175
c-84.667 -48.667 -132.334 -89 -143.001 -121h-5l-43 47v11c92 56 138 103.667 138 143c35.333 40.667 53 74.334 53 101.001v15l-16 75v5c0 25.333 3.66699 44.666 11 57.999c56 -49.333 84 -95.333 84 -138z" />
    <glyph glyph-name="asterisk" unicode="*" horiz-adv-x="1024" 
d="M587 1588c31.333 0 46.998 -14.001 46.998 -42.001h6c0 10.667 3.33301 16 10 16h16c17.333 -10.667 33.333 -28.334 48 -53.001c46.667 -32 78.334 -62 95.001 -90v-27l-11 -10h-21l-16 10h-5c-28 -17.333 -54.333 -40 -79 -68h26c60 0 90 14 90 42l5 5h27l21 -21v-175
c0 -18 -5.33301 -28.667 -16 -32h-21c-16.667 28.667 -37.667 43 -63 43h-69c4 -16 28.667 -37.333 74 -64l47 6c6.66699 0 12 -9 16 -27c0 -15.333 -47.667 -64.666 -143 -147.999h-10l-21 16l5 53v5c-24 34 -43.333 53.333 -58 58v-53c0 -26 15.667 -49 47 -69
c0 -24.667 -12.333 -37 -37 -37h-185l-16 16v21c32 21.333 48 44.333 48 69v64h-11c0 -8 -14 -24 -42 -48l-11 -37l5 -32v-10l-10 -11h-27c-7.33301 0 -40.666 33.667 -99.999 101c-12.667 0 -28.667 17.667 -48 53l26 26l16 -10h37c0 6 17.667 21.667 53 47l16 21h-69
l-63 -53h-11l-16 16v43l-5 122c6 31.333 13 47 21 47h16c20 -28 37.667 -42 53 -42h74c-19.333 27.333 -42.333 48.333 -69 63l-10 -10h-27l-26 21v16l132 132h27l10 -10l-5 -48c0 -7.33301 17.667 -28.666 53 -63.999v-5h5c7.33301 0 11 5.33301 11 16
c0 56.667 -10.667 85 -32 85v10c-10.667 0 -16 3.66699 -16 11v27l11 10h90zM714.998 1514v-79c8 0 24 19.333 48 58l-6 32v16c-19.333 0 -33.333 -9 -42 -27z" />
    <glyph glyph-name="plus" unicode="+" horiz-adv-x="1119" 
d="M404 1143l74.001 -4.99902l191 5h32c18.667 0 32.667 -8.66699 42 -26v-11c0 -5.33301 -16 -17.666 -48 -36.999l-16 -21v-79l-10 -170v-10h175c6.66699 6.66699 36.667 13.667 90 21l47 58c19.333 0 31.666 -7 36.999 -21v-334l-21 -21c-7.33301 0 -25 21 -53 63
c-22.667 10.667 -58 16 -106 16h-90l-79 6v-59c0 -144.667 10.667 -217 32 -217c0 -9.33301 10.333 -16.333 31 -21l11 -16c0 -24.667 -12.333 -37 -37 -37h-297c-14.667 0 -28.667 8.66699 -42 26l-21 6c-28 0 -67 -10.667 -117 -32l11 -16v-10l-16 -16h-11l-16 16
c0 33.333 33.667 66.666 101 99.999c35.333 21.333 53 42.666 53 63.999h37c38.667 5.33301 58 14 58 26v143l11 16v11l-11 10h-84l-96 6c-53.333 0 -85 -16 -95 -48l-27 -21h-26c-6 0 -11.333 8.66699 -16 26l5 69l-5 217c0 17.333 8.66699 33.333 26 48h11l42 -58
c138 -6 207 -13 207 -21h58v132l11 16v53c-6 6 -11.333 27 -16 63c-30.667 18 -50 35.667 -58 53v22c0 4.66699 7 9.66699 21 15zM346.001 1075c56 -23.333 84 -39.334 84 -48.001l6 -53v-32c0 -8 -16 -13.333 -48 -16c-42.667 -25.333 -64 -60.666 -64 -105.999h-31
c-7.33301 0 -11 5.33301 -11 16c0 21.333 17.667 69 53 143l5 21l-16 59zM780.001 561l16 -16c-6 -56 -37.667 -116 -95 -180l-6 -27h-10l-6 27v58c46 36.667 69 82.667 69 138h32z" />
    <glyph glyph-name="comma" unicode="," horiz-adv-x="557" 
d="M392 485h21c14 0 21 -24.667 21 -74v-191l-5 -286c0 -28 -49.333 -42 -148 -42h-69c-15.333 0 -33 9 -53 27c0 36.667 30 63 90 79c17.333 26 26 56 26 90v48h-79c-35.333 0 -53 14 -53 42v148c0 27.333 8.66699 45 26 53h138c29.333 0 52.333 32 69 96z" />
    <glyph glyph-name="hyphen" unicode="-" horiz-adv-x="1146" 
d="M150 990c32 -6 71 -50.333 117 -133l47 -31l-5 -6v-16c44 -10 98.667 -15 164 -15h276l185 5c0 10.667 9 19.334 27 26.001c18.667 32 31 48 37 48l31 -21v-323c0 -18.667 -5 -29.334 -15 -32.001c-20.667 0 -35 14 -43 42c-11.333 17.333 -34.333 28 -69 32l-5 5l-291 6
l-265 -6l-64 6c-50 0 -87 -21.333 -111 -64l-21 -5h-16c-6 0 -11.333 8.66699 -16 26l5 69l-5 217c0 17.333 8.66699 33.333 26 48h11l48 -58l5 37c0 24 -10.667 61 -32 111l-16 -11h-16l-10 11v16zM727 905l38 -0.00195312c38.667 0 88 -17.667 148 -53
c24.667 -3.33301 37 -8.66602 37 -15.999c-12.667 -21.333 -41 -32 -85 -32c0 18.667 -24.667 36.334 -74 53.001h-37c-45.333 0 -84.333 -17.667 -117 -53h-68l-6 6h-5c40.667 63.333 97 95 169 95zM521 560.998l5 -6.00195v-5c-24.667 -35.333 -37 -63.666 -37 -84.999
v-16l11 -47l-16 -21c-42.667 24.667 -81.667 37 -117 37h-32c-60 -13.333 -90 -25.666 -90 -36.999l11 -11v-11l-11 -10h-15l-16 16c6 35.333 51.667 76 137 122c11.333 28 20.333 42 27 42h42c46 21.333 79.667 32 101 32z" />
    <glyph glyph-name="hyphen" unicode="&#xad;" horiz-adv-x="1146" 
d="M150 990c32 -6 71 -50.333 117 -133l47 -31l-5 -6v-16c44 -10 98.667 -15 164 -15h276l185 5c0 10.667 9 19.334 27 26.001c18.667 32 31 48 37 48l31 -21v-323c0 -18.667 -5 -29.334 -15 -32.001c-20.667 0 -35 14 -43 42c-11.333 17.333 -34.333 28 -69 32l-5 5l-291 6
l-265 -6l-64 6c-50 0 -87 -21.333 -111 -64l-21 -5h-16c-6 0 -11.333 8.66699 -16 26l5 69l-5 217c0 17.333 8.66699 33.333 26 48h11l48 -58l5 37c0 24 -10.667 61 -32 111l-16 -11h-16l-10 11v16zM727 905l38 -0.00195312c38.667 0 88 -17.667 148 -53
c24.667 -3.33301 37 -8.66602 37 -15.999c-12.667 -21.333 -41 -32 -85 -32c0 18.667 -24.667 36.334 -74 53.001h-37c-45.333 0 -84.333 -17.667 -117 -53h-68l-6 6h-5c40.667 63.333 97 95 169 95zM521 560.998l5 -6.00195v-5c-24.667 -35.333 -37 -63.666 -37 -84.999
v-16l11 -47l-16 -21c-42.667 24.667 -81.667 37 -117 37h-32c-60 -13.333 -90 -25.666 -90 -36.999l11 -11v-11l-11 -10h-15l-16 16c6 35.333 51.667 76 137 122c11.333 28 20.333 42 27 42h42c46 21.333 79.667 32 101 32z" />
    <glyph glyph-name="period" unicode="." horiz-adv-x="559" 
d="M188 385l117 -6l63 6c32 -2 48 -16.333 48 -43v-90c0 -26.667 30 -47.667 90 -63l16 -22v-15l-21 -22h-80l-169 6l-64 -6c-20 0 -32.333 19.667 -37 59v169c10.667 18 23 27 37 27z" />
    <glyph glyph-name="slash" unicode="/" horiz-adv-x="938" 
d="M688 1721l62.9971 -5h244l32 -22v-21c0 -6.66699 -19.667 -15.334 -59 -26.001c-36.667 -30.667 -71.667 -99.667 -105 -207c-25.333 -42 -64.333 -137.333 -117 -286l-27 -58v-6l22 -100v-43c0 -38.667 -19.667 -91.334 -59 -158.001v-32l16 -48l-21 -16l-74 37
c30.667 92 53.667 138 69 138l21 53v74c-17.333 -17.333 -45.666 -89.666 -84.999 -216.999c-10.667 -10.667 -39 -88.334 -85 -233.001c-10 -12 -27.333 -58 -52 -138l-181 -493c-31.333 -57.333 -47 -106.666 -47 -147.999v-5c21.333 -21.333 32 -39 32 -53v-11l-11 -16
l-111 6l-165 -6c-41.333 0 -67.666 12.333 -78.999 37c2.66699 13.333 25.667 26 69 38c32.667 36 61 97.667 85 185c8.66699 0.666992 28 39.334 58 116.001l206 546c0 10.667 -19.333 44.334 -58 101.001l-10 47v16c0 9.33301 7 14.666 21 15.999l21 -16v-5
c0 -10.667 -7 -16 -21 -16c4.66699 -15.333 27.667 -40 69 -74h5c112.667 302 169 461 169 477c-20.667 39.333 -31 81.666 -31 126.999c0 48 19.333 106.333 58 175v37l-11 42c0 8.66699 7.33301 14 22 16l84 -37c-23.333 -78.667 -49.666 -124.667 -78.999 -138
c-18 -22 -27 -48.333 -27 -79l16 -74h6c0 15.333 42.333 137 127 365l5 53c0 12.667 -12.333 23.334 -37 32.001v21zM199.997 312l6 -5.99805c-12.667 -48 -32.334 -79.667 -59.001 -95c-31.333 -30.667 -47 -64.334 -47 -101.001v-5l10 -42
c-32.667 -84.667 -53.667 -130.667 -63 -138h-27l-10 11v10c28.667 29.333 44.334 57.666 47.001 84.999l-5 79c0 68 39 131.667 117 191z" />
    <glyph glyph-name="zero" unicode="0" 
d="M631 1254l90.002 0.00292969c8.66699 -7.33301 38.667 -14.333 90 -21l6 -6c105.333 -36.667 184.666 -102 237.999 -196c32 -38.667 65.667 -111 101 -217c0 -24.667 3.33301 -40.334 10 -47.001v-138c-6.66699 0 -11.667 -35.333 -15 -106
c-29.333 -107.333 -56 -167.333 -80 -180c-37.333 -69.333 -101 -126 -191 -170c-28 -26 -95 -45.333 -201 -58l-42 -5c-67.333 0 -157.333 35.333 -270 106c-84 59.333 -135.333 126.333 -154 201c-35.333 108.667 -53 213 -53 313v26l11 16v21
c0 47.333 14 98.666 42 153.999l-11 10h-5l-37 -5c-16.667 39.333 -53.667 71 -111 95c-32 31.333 -48 54.333 -48 69v6c0 8 8.66699 13 26 15l16 -21l-10 -21c39.333 -21.333 76.333 -32 111 -32c33.333 0 75.666 12.333 126.999 37l16 -21l-11 -32
c72 85.333 146.333 143.666 223 174.999c68 11.333 112 22 132 32zM404.002 740.003v-79.001c0 -165.333 40.333 -276.666 121 -333.999c58.667 -60 111.667 -90 159 -90c44 4 93.667 32.333 149 85c60 78 90 178.667 90 302v53c0 88.667 -16 178.667 -48 270
c0 43.333 -28.333 89 -85 137c-46 21.333 -93.667 32 -143 32c-104 0 -176.333 -58.333 -217 -175c-17.333 -45.333 -26 -112.333 -26 -201zM859.002 910.002l11 -16.001v-21c0 -7.33301 -23 -16.333 -69 -27c-46 -37.333 -69 -81.333 -69 -132v-6
c0 -52.667 44 -95 132 -127l-5 -5v-5c0 -10.667 10.667 -16 32 -16v-16c-8 -70.667 -18.667 -106 -32 -106c0 8.66699 -44 44 -132 106c-49.333 57.333 -74 112 -74 164v21c0 60.667 44 117.334 132 170.001c23.333 10.667 48 16 74 16zM133.002 677.001l6 -0.000976562
c8 0 13.333 -26.667 16 -80c-18 -32 -27 -63.667 -27 -95c0 -48 24.667 -87 74 -117c0 -8.66699 17.667 -38.667 53 -90v-5l-90 -32c0 -7.33301 -8.66699 -11 -26 -11l-11 16l11 43v26l-53 127l-6 69c0 46.667 17.667 96.334 53 149.001zM536.002 608l16 -0.000976562
c57.333 0 91 -69 101 -207v-53l-11 -10l-32 10c-17.333 0 -26 -8.66699 -26 -26l5 -16h-5c-9.33301 0 -29 17.667 -59 53c39.333 48.667 59 96.334 59 143.001v10c-9.33301 49.333 -20 74 -32 74c0 -10 -3.66699 -15 -11 -15h-5l-16 15v6z" />
    <glyph glyph-name="one" unicode="1" horiz-adv-x="850" 
d="M646 1239l4.99902 -4.99902v-6c-49.333 -14.667 -74 -60.334 -74 -137.001l-5 -38l10 -651l-5 -42c0 -127.333 16 -191 48 -191l16 -21v-6h-318v6c42 34 63 64 63 90l-5 339v371l-127 -133v-16l5 -79l-16 -11h-10c-81.333 43.333 -132.666 89.333 -153.999 138v16
c158.667 152.667 248.667 263.667 270 333l-42 32l16 6l180 -6zM804.999 1175l16.001 -0.000976562c10.667 0 16 -7 16 -21c0 -21.333 -25 -47.666 -75 -78.999c-23.333 -5.33301 -53.333 -32 -90 -80h-31l-38 -5v32c0 63.333 5.33301 95 16 95l74 -16
c21.333 0 58.666 10.667 111.999 32l-11 16v16zM328 863c24.667 -5.33301 37 -12.333 37 -21v-53l-5 -6v-5l-69 37v11c14.667 24.667 27 37 37 37zM603 820h11c78 -53.333 117 -106.333 117 -159v-37c0 -61.333 -39 -123 -117 -185h-11v117c32 30 48 58 48 84v21
c0 29.333 -16 63 -48 101v58zM307 402l37.001 -5h5l5 5h6l5 -5v-112l-5 -5v-5l-59 16h-31c-28.667 0 -62.334 -9 -101.001 -27l11 -16v-10l-11 -11h-16l-10 11v5c0 36 44 73 132 111z" />
    <glyph glyph-name="two" unicode="2" horiz-adv-x="1083" 
d="M532 1281c194 0 330 -79.332 408 -237.999c14 -32.667 21 -66.334 21 -101.001c0 -75.333 -58.333 -156.333 -175 -243l-10 -64v-27c0 -16.667 10.333 -48.334 31 -95.001l16 11h11l10 -11v-16l-10 -10h-5c-33.333 0 -72.333 42.333 -117 127c-16 14 -28.333 21 -37 21
c-219.333 -100 -329 -169 -329 -207l-21 -111h466c58.667 0 110 30 154 90h5c21.333 -2 32 -7.33301 32 -16v-16c0 -25.333 -12.333 -64 -37 -116c-7.33301 -74 -42.666 -111 -105.999 -111h-752l-16 16v10c0 44 42.333 180 127 408c20 40.667 97.667 97.334 233 170.001
l249 132c28.667 28.667 43 57 43 85v74c0 47.333 -55 79 -165 95h-26c-202.667 0 -319.334 -40.667 -350.001 -122c0 -31.333 -5.33301 -47 -16 -47c-20.667 0 -33 84.667 -37 254c0 8 120 25.667 360 53zM505 1133h6.00098c17.333 0 27.666 -31.667 30.999 -95l-15 -69
l15 -69c-22.667 -20.667 -36.667 -49 -42 -85l-42 -21c-24 60 -56 90 -96 90v21c102.667 54 154 117.667 154 191l-5 -5h-6c-14 4.66699 -21 9.66699 -21 15v6zM611.001 577.001c45.333 -82 100.334 -131.666 165.001 -148.999v-10c-32.667 0 -82.334 -28.333 -149.001 -85
h-100l15 69h22c20.667 0 31 10.667 31 32c0 14 -15.667 21 -47 21c-7.33301 35.333 -16.333 61.666 -27 78.999z" />
    <glyph glyph-name="three" unicode="3" horiz-adv-x="1158" 
d="M562 1271c210.667 0 348.332 -67.332 412.999 -201.999c10.667 -24.667 16 -49.334 16 -74.001c0 -116 -63.667 -199 -191 -249h-11v-5c64.667 0 137.334 -47.667 218.001 -143c20.667 -48.667 31 -91 31 -127v-6c0 -154 -53 -251 -159 -291
c-71.333 -24.667 -161.333 -37 -270 -37h-159c-206.667 0 -319.667 5.33301 -339 16l-5 159v132l16 16h21c32 0 48 -17.667 48 -53c16.667 -74 71.334 -111 164.001 -111l164 -11h64c111.333 0 187.333 44.333 228 133l5 37c0 62.667 -44.333 121 -133 175
c-26.667 20.667 -90 31 -190 31c-25.333 0 -48.333 -19.333 -69 -58l-27 -5c-17.333 0 -26 33.667 -26 101l5 132l27 11c17.333 0 40.333 -14.333 69 -43h169c88 34 132 96 132 186c-32 91.333 -81.333 137 -148 137l-106 11c-112.667 0 -185 -21.333 -217 -64
c-36.667 -73.333 -61.334 -112 -74.001 -116h-16c-21.333 0 -32 81 -32 243l11 22l63 -6c99.333 29.333 172 47 218 53zM502.998 1112l10.999 -11.001l-16 -69v-10c0 -20 10.667 -46.667 32 -80l-11 -21l-74 11c-60 0 -111.333 -25 -154 -75l16 -15v-11l-10 -11h-16l-16 16
c0 32.667 31.667 82.334 95 149.001c4.66699 35.333 15.334 53 32.001 53c30 0 56.667 24.667 80 74h31zM741.997 974l10.001 -11.001c0 -29.333 -17.667 -48.666 -53 -57.999c-18 -18 -39 -48 -63 -90h-59l-10 11c51.333 98.667 109.666 148 174.999 148zM1033 931.999
l21.001 -22c-13.333 0 -27.333 -38.667 -42 -116c3.33301 -34 14 -71 32 -111l26 5h5l11 -11v-16l-11 -10h-10c-28.667 0 -58.667 30 -90 90c0 6.66699 -17.667 27.667 -53 63c11.333 0 37.666 39 78.999 117zM587.999 549.999c29.333 -49.333 70 -74 122 -74
c24 0 48.667 5.33301 74 16l11 -32c0 -63.333 -30 -95 -90 -95h-85c-6 0 -11.333 12.333 -16 37h-11c-20.667 0 -31 -12.333 -31 -37c-32.667 0 -68 -21.333 -106 -64c-48.667 7.33301 -77 14.333 -85 21c20.667 62 79 120.333 175 175z" />
    <glyph glyph-name="four" unicode="4" horiz-adv-x="1029" 
d="M784 1281l5 -4.99902h5l16 -901h59c30 -46.667 67 -76.667 111 -90c35.333 -34.667 53 -61 53 -79l-16 -11h-16l-11 11v10l11 16c-39.333 21.333 -69.333 32 -90 32h-32c-35.333 -0.666992 -53 -4 -53 -10c0 -18 21.333 -35.667 64 -53l5 -27v-16l-11 -10h-344
c-18.667 0 -31 7 -37 21c0 35.333 21.333 53 64 53c14 0 21 10.667 21 32l5 153h-5c-26.667 7.33301 -79.667 12.666 -159 15.999l-175 -5c-56.667 -18 -85 -39.333 -85 -64c-14.667 -17.333 -25.334 -26 -32.001 -26c-17.333 0 -26 15.667 -26 47v308
c4.66699 14 20.667 21 48 21h58c46 40.667 69 65.334 69 74.001v5l-74 21v11c80.667 0 137 60 169 180v37c0 15.333 -7 36.666 -21 63.999l-21 -16l-16 16v10l16 16h10c48.667 0 82.334 -54.667 101.001 -164c198.667 215.333 301 323 307 323h27zM884 1085l22 -20.999
c-10.667 -18 -16 -35.667 -16 -53c0 -18 17.667 -62 53 -132l5 -48v-42c0 -78 -35.333 -134.667 -106 -170l-11 74c46 29.333 69 71.666 69 126.999v27c0 38 -24.667 69.667 -74 95l-5 6v100zM281 550.002h296.001l16 11l-5 37l-11 270
c-192.667 -200 -291.334 -306 -296.001 -318zM471.001 709.002c15.333 -34 47.333 -65.667 96 -95v-27l-6 -5v-5c-84.667 32.667 -127 66 -127 100z" />
    <glyph glyph-name="five" unicode="5" horiz-adv-x="1065" 
d="M798 1366l15.998 -0.000976562c6 0 16.667 -31.667 32 -95c21.333 -39.333 44.333 -59 69 -59c11.333 -28 27 -42 47 -42v5c0 10.667 3.66699 16 11 16h16l10 -10v-16c-3.33301 -10.667 -13.666 -16 -30.999 -16h-43v-43l11 -127c-3.33301 -20.667 -12.333 -31 -27 -31
c-13.333 0 -29 22.667 -47 68c-30.667 28.667 -73 43 -127 43h-302v-217h164c144.667 -50.667 241.667 -126.667 291 -228c42.667 -81.333 64 -153.666 64 -216.999c0 -80.667 -44.333 -155 -133 -223c-71.333 -32 -177.333 -48 -318 -48l-354 11l-11 16v37l5 265l6 5h42
c12.667 0 33.667 -40.667 63 -122c30.667 -35.333 91 -53 181 -53h84c102.667 0 171.667 47.667 207 143v32c0 97.333 -46 180.333 -138 249h-196c-77.333 0 -116 -16 -116 -48l-43 -68l-42 -11c-10.667 14 -16 33.333 -16 58l5 212c-18.667 42.667 -54 74.667 -106 96h-5
c0 -14.667 -5.33301 -22 -16 -22h-5l-16 16v11c0 8 12.333 15 37 21c25.333 0 64.333 -12.333 117 -37v16c0 72 -19.667 133.667 -59 185l-16 64c0 11.333 23 18.333 69 21h567v5l-53 21l-122 -5h-5v11c46.667 31.333 101.334 47 164.001 47c28.667 14.667 51.667 36 69 64z
M543.998 1043c6.66699 0 10 -5.33203 10 -15.999c0 -70.667 -35.333 -125.334 -106 -164.001v53c21.333 24.667 32 51 32 79l-5 43l5 5h64zM686.998 910c42 0 96.668 -19.333 164.001 -58h48l32 11c14 -4 21 -11 21 -21c-24.667 -44.667 -37 -87.334 -37 -128.001
c0 -23.333 10.333 -58.666 31 -105.999l16 11h11c10.667 0 16 -7 16 -21c-5.33301 -14 -10.666 -21 -15.999 -21c-34.667 0 -68.334 33.333 -101.001 100c-10.667 23.333 -33.667 43 -69 59l6 26v11c-16.667 56 -43.334 84 -80.001 84h-58l-32 -5c-49.333 8 -74 15 -74 21v6
c48 20.667 88.667 31 122 31zM532.999 688c38 -54 77 -87.666 117 -100.999c14 0 24.667 -12.333 32 -37c10 0 17 -24.667 21 -74c0 -42.667 -5.33301 -64 -16 -64c-32.667 41.333 -77 76.666 -133 105.999c-56.667 60.667 -86.667 115.667 -90 165l6 5h63zM357.999 608.001
c64 0 99.334 -80.999 106.001 -242.999v-21l-5 -6v-5l-32 11h-16c-8 0 -15 -12.333 -21 -37h-5l-74 15v16c27.333 0 55.666 51.333 84.999 154v5c0 23.333 -9 51.666 -27 84.999h-5c0 -10.667 -3.66699 -16 -11 -16h-10l-11 11v10c7.33301 14 16 21 26 21z" />
    <glyph glyph-name="six" unicode="6" horiz-adv-x="1140" 
d="M633 1234c230 -20.667 345.001 -48.999 345.001 -84.999c-4.66699 -166 -20.667 -249 -48 -249h-11c-14 0 -24.333 23 -31 69c-49.333 81.333 -134.333 122 -255 122c-78.667 0 -136.667 -40.667 -174 -122v-159c2.66699 -9.33301 29 -25.333 79 -48
c1.33301 -17.333 6.66602 -26 15.999 -26h21l11 10v11l-6 5v5l6 6h58c113.333 0 215.666 -47.667 306.999 -143l48 -112l85 -42v-11c-46 -6.66699 -69 -15.334 -69 -26.001v-48c0 -139.333 -113 -222.333 -339 -249l-117 -5c-55.333 10.667 -124 17.667 -206 21l-202 -10
l-5 5v5c48 29.333 76.333 54 85 74v186c-73.333 35.333 -121 53 -143 53v10c54.667 0 102.334 33.667 143.001 101l-6 244v58c0 114.667 40.667 196 122 244c88.667 70.667 184 106 286 106zM146.001 1112l5 -0.00195312c24.667 -18 54.667 -28.667 90 -32l6 5l5 -5v-5
c-14 -1.33301 -31.667 -38.666 -53 -111.999c-46 -18 -69 -53.333 -69 -106c0 -56 24.667 -103.667 74 -143v-74h-5c-78 36.667 -117 104 -117 202c0 48.667 17.667 101.334 53 158.001l6 27v26l-11 43zM655.001 1069c32 -24.667 65.333 -36.999 100 -36.999l48 16l16 -21
c-24.667 -43.333 -37 -87.333 -37 -132c0 -24.667 10.333 -58.334 31 -101.001l27 5h5l11 -10v-11l-16 -16h-5c-28 0 -60 31.667 -96 95c-8 22.667 -31 44 -69 64l6 27c-12 63.333 -40.333 95 -85 95h-32v10zM459.001 677l-0.000976562 -5l10 -371
c15.333 -17.333 47.333 -26 96 -26c102.667 0 162.667 23 180 69c31.333 58.667 47 108 47 148v32c0 83.333 -35.333 129 -106 137c-50.667 0 -93 -24.667 -127 -74c-33.333 47.333 -66.666 77.333 -99.999 90zM157 402h42l11 -11v-95l-6 -5v-6l-63 11
c-18.667 0 -54 -10.667 -106 -32v-5l10 -16l-16 -21h-10l-16 16c0 36 42.333 74.667 127 116z" />
    <glyph glyph-name="seven" unicode="7" horiz-adv-x="984" 
d="M29 1271l15 0.000976562c26.667 0 65.667 -32 117 -96l32 59c68 -18 177.333 -27 328 -27h43l344 5l5 -5v-5c0 -46 -31.667 -69 -95 -69c-20 -35.333 -41.333 -106 -64 -212h6l37 11l21 -16c-24.667 -42.667 -37 -81.667 -37 -117v-26c13.333 -64 25.666 -96 36.999 -96
l10 11h11l11 -11v-16l-16 -15c-39.333 9.33301 -76.333 51.666 -111 126.999h-6l-106 -477h6c33.333 0 56 28.333 68 85v21c0 22 -5 46.667 -15 74c6.66699 42.667 13.667 64 21 64c28 -32.667 42 -78.667 42 -138v-16l-32 -127v-5l22 -75l-16 -15
c-24.667 10 -56.667 17 -96 21v-6l21 -26v-11h-79l-64 11l-185 -16l-26 5v6c66.667 47.333 100 114.333 100 201c18.667 34.667 36.334 100 53.001 196c38 107.333 77 287.333 117 540h-101c-181.333 0 -301.333 -38.667 -360 -116l-11 21c21.333 41.333 32 73 32 95l5 21
c0 51.333 -19.333 97.333 -58 138l-11 -10h-15l-11 10v16zM431 1064h47.999l16 -16c-47.333 -38.667 -100.333 -58 -159 -58h-37c-24 0 -57.667 12.333 -101 37v5l69 16l42 -16c26.667 0 67.334 10.667 122.001 32zM494.999 969.001v-37c-60 -46 -90 -99 -90 -159
c0 -14 12.333 -38.667 37 -74l-21 -96h-11c-56.667 52 -85 110.333 -85 175c0 84 53 147.667 159 191h11z" />
    <glyph glyph-name="eight" unicode="8" horiz-adv-x="1144" 
d="M584 1255l5.99902 -0.000976562c58 0 130.333 -23 217 -69c67.333 -52 101 -117.333 101 -196c0 -35.333 -5.33301 -58.333 -16 -69l5 -5l-11 -64v-10c0 -28 10.667 -65.333 32 -112h5c0 10.667 3.66699 16 11 16h11l10 -10v-22l-10 -10
c-33.333 0 -72.333 38.667 -117 116c-36.667 -31.333 -59.667 -47 -69 -47v-11c65.333 0 145 -49.333 239 -148c46 -100 97 -160 153 -180c21.333 -8.66699 32 -16 32 -22v-5c-52.667 0 -109 -37 -169 -111c-44.667 -109.333 -156 -164 -334 -164h-207
c-85.333 0 -164.666 15.667 -237.999 47c-60 -11.333 -90 -21.666 -90 -30.999l10 -27l-16 -10h-15l-11 10v5c0 27.333 28.333 59.333 85 96c-56.667 80 -85 157.667 -85 233v26c0 101.333 58.333 184.333 175 249c16.667 12.667 53.667 25 111 37v6
c-95.333 55.333 -143 115.333 -143 180v42c0 137.333 88.333 222 265 254zM446.999 984.999c2.66699 -59.333 34.334 -121.333 95.001 -186h69c67.333 47.333 101 104 101 170c-14 126.667 -58.333 190 -133 190h-16c-52.667 0 -91.334 -58 -116.001 -174zM520.999 1101
c36 -21.333 71.334 -32 106.001 -32h37c9.33301 0 16.333 -14 21 -42c-18.667 -4.66699 -41.667 -27.667 -69 -69h-42c-22.667 0 -49.334 -21 -80.001 -63h-5l-16 47c21.333 32 32 58.667 32 80v5l-5 64zM256 888.999l32 -46.999c-35.333 -26.667 -53 -67.334 -53 -122.001
l-37 -27l-6 6v26c0 67.333 21.333 122 64 164zM335 460c12 -130.667 40.332 -196.001 84.999 -196.001c50.667 -14 100.334 -21 149.001 -21h42c123.333 14 185 38.667 185 74c10.667 54 16 105.333 16 154c0 122.667 -79.333 193.334 -238 212.001
c-107.333 0 -183.333 -62 -228 -186zM546.999 660.999l27.002 -0.000976562c63.333 0 100.333 -15.667 111 -47l11 -69v-42c0 -38 -19.667 -91 -59 -159v-32l11 -48l-32 -5c-33.333 17.333 -65 26 -95 26h-32l-58 -10c-18 0 -35.667 14 -53 42v16
c10.667 13.333 16 29.333 16 48v42c0 21.333 -9 44.333 -27 69v5c7.33301 32.667 16.333 50.334 27 53.001h5c28 -26.667 42 -63.667 42 -111v-42l-15 -85h5c21.333 0 54.666 28.333 99.999 85h38c39.333 0 65.666 30 78.999 90v42c0 50 -37 89 -111 117v5z" />
    <glyph glyph-name="nine" unicode="9" horiz-adv-x="1094" 
d="M513 1234h68.9971c45.333 -10.667 96.333 -16 153 -16h64l143 10h16l10 -10c-56 -38 -84 -68 -84 -90v-165c34 -26 79.667 -47 137 -63v-5c-41.333 0 -87 -33.667 -137 -101l5 -170v-100l5 -32c0 -183.333 -125.333 -300 -376 -350l-32 -5
c-232.667 24.667 -349 53 -349 85c4.66699 169.333 22.334 254 53.001 254c17.333 0 31.333 -24.667 42 -74c47.333 -78 123.333 -117 228 -117h53c51.333 0 99 39 143 117v164l-80 48c0 17.333 -10.333 26 -31 26l-16 -16l16 -16l-59 -10c-132 0 -241.333 53 -328 159
c-31.333 73.333 -52.666 110.333 -63.999 111c-25.333 18 -44.666 27 -57.999 27v5c0 6 21.333 14.667 64 26v53c0 128.667 93.333 210 280 244zM1085 1149h16l10 -11v-5c0 -34.667 -40.333 -71.667 -121 -111l-43 -53l-42 5v95l10 16l37 -5h22
c29.333 0 66.333 10.667 111 32l-11 16v10zM321.997 879v-27c0 -79.333 31.667 -125.333 95 -138h27c38 0 75 23 111 69c37.333 -44 69 -72 95 -84h6v5l-11 365l-32 27h-90c-76 0 -123.667 -16 -143 -48c-38.667 -68.667 -58 -125 -58 -169zM411.997 1048
c38.667 -24.667 83 -37.001 133 -37.001l84 21l6 -5v-21c-0.666992 -6.66699 -25.667 -22.667 -75 -48c-18 -14.667 -32 -34 -42 -58l-37 5c-56.667 -16 -85 -44.333 -85 -85v-58l6 -26c-35.333 6.66699 -53 24.334 -53 53.001v10c0 34 17.667 83.667 53 149l5 26l-16 58z
M909.997 729.999c43.333 0 80.332 -40.667 110.999 -122c7.33301 -15.333 11 -40 11 -74c0 -52 -19.333 -110 -58 -174v-38l10 -42l-16 -21c-30.667 21.333 -57 32 -79 32h-21v5c20.667 30.667 36.334 69.334 47.001 116.001c46 15.333 69 45.666 69 90.999v15
c0 56.667 -24.667 102.667 -74 138v74zM565.996 586.999c21.333 -39.333 32 -78 32 -116c-9.33301 -113.333 -41.333 -170 -96 -170h-21c-46 0 -69 7 -69 21l5 16h37c56.667 0 88.667 39 96 117v5c0 47.333 -26.667 86.333 -80 117v5h32z" />
    <glyph glyph-name="colon" unicode=":" horiz-adv-x="557" 
d="M188 1077l117 -6l63 6c32 -2 48 -16.333 48 -43v-90c0 -26.667 30 -47.667 90 -63l16 -22v-15l-21 -22h-80l-169 6l-64 -6c-20 0 -32.333 19.667 -37 59v169c10.667 18 23 27 37 27zM188 385l117 -6l63 6c32 -2 48 -16.333 48 -43v-90c0 -26.667 30 -47.667 90 -63
l16 -22v-15l-21 -22h-80l-169 6l-64 -6c-20 0 -32.333 19.667 -37 59v169c10.667 18 23 27 37 27z" />
    <glyph glyph-name="semicolon" unicode=";" horiz-adv-x="557" 
d="M392 485h21c14 0 21 -24.667 21 -74v-191l-5 -286c0 -28 -49.333 -42 -148 -42h-69c-15.333 0 -33 9 -53 27c0 36.667 30 63 90 79c17.333 26 26 56 26 90v48h-79c-35.333 0 -53 14 -53 42v148c0 27.333 8.66699 45 26 53h138c29.333 0 52.333 32 69 96zM188 1077l117 -6
l63 6c32 -2 48 -16.333 48 -43v-90c0 -26.667 30 -47.667 90 -63l16 -22v-15l-21 -22h-80l-169 6l-64 -6c-20 0 -32.333 19.667 -37 59v169c10.667 18 23 27 37 27z" />
    <glyph glyph-name="semicolon" unicode="&#x37e;" horiz-adv-x="557" 
d="M392 485h21c14 0 21 -24.667 21 -74v-191l-5 -286c0 -28 -49.333 -42 -148 -42h-69c-15.333 0 -33 9 -53 27c0 36.667 30 63 90 79c17.333 26 26 56 26 90v48h-79c-35.333 0 -53 14 -53 42v148c0 27.333 8.66699 45 26 53h138c29.333 0 52.333 32 69 96zM188 1077l117 -6
l63 6c32 -2 48 -16.333 48 -43v-90c0 -26.667 30 -47.667 90 -63l16 -22v-15l-21 -22h-80l-169 6l-64 -6c-20 0 -32.333 19.667 -37 59v169c10.667 18 23 27 37 27z" />
    <glyph glyph-name="less" unicode="&#x3c;" horiz-adv-x="1087" 
d="M119 679l-0.000976562 17.998c28.667 44 116.334 104 263.001 180c106.667 74.667 288 165.334 544 272.001h14c15.333 -6 23 -24.667 23 -56v-133c0 -46 -74 -89.667 -222 -131c-157.333 -64.667 -236.666 -102.667 -237.999 -114l453 -224l7 -9v-227l-37 -37h-7
c-360.667 174.667 -627.334 328.334 -800.001 461.001z" />
    <glyph glyph-name="equal" unicode="=" horiz-adv-x="1146" 
d="M150 1131c32 -6 71 -50.333 117 -133l47 -31l-5 -6v-16c44 -10 98.667 -15 164 -15h276l185 5c0 10.667 9 19.334 27 26.001c18.667 32 31 48 37 48l31 -21v-323c0 -18.667 -5 -29.334 -15 -32.001c-20.667 0 -35 14 -43 42c-11.333 17.333 -34.333 28 -69 32l-5 5
l-291 6l-265 -6l-64 6c-50 0 -87 -21.333 -111 -64l-21 -5h-16c-6 0 -11.333 8.66699 -16 26l5 69l-5 217c0 17.333 8.66699 33.333 26 48h11l48 -58l5 37c0 24 -10.667 61 -32 111l-16 -11h-16l-10 11v16zM727 1046l38 -0.00195312c38.667 0 88 -17.667 148 -53
c24.667 -3.33301 37 -8.66602 37 -15.999c-12.667 -21.333 -41 -32 -85 -32c0 18.667 -24.667 36.334 -74 53.001h-37c-45.333 0 -84.333 -17.667 -117 -53h-68l-6 6h-5c40.667 63.333 97 95 169 95zM992 114.998c-32 6 -71 50.333 -117 133l-47 31l5 6v16
c-44 10 -98.667 15 -164 15h-276l-185 -5c0 -10.667 -9 -19.334 -27 -26.001c-18.667 -32 -31 -48 -37 -48l-31 21v323c0 18.667 5 29.334 15 32.001c20.667 0 35 -14 43 -42c11.333 -17.333 34.333 -28 69 -32l5 -5l291 -6l265 6l64 -6c50 0 87 21.333 111 64l21 5h16
c6 0 11.333 -8.66699 16 -26l-5 -69l5 -217c0 -17.333 -8.66699 -33.333 -26 -48h-11l-48 58l-5 -37c0 -24 10.667 -61 32 -111l16 11h16l10 -11v-16zM521 303.998l5 -6.00195v-5c-24.667 -35.333 -37 -63.666 -37 -84.999v-16l11 -47l-16 -21
c-42.667 24.667 -81.667 37 -117 37h-32c-60 -13.333 -90 -25.666 -90 -36.999l11 -11v-11l-11 -10h-15l-16 16c6 35.333 51.667 76 137 122c11.333 28 20.333 42 27 42h42c46 21.333 79.667 32 101 32z" />
    <glyph glyph-name="greater" unicode="&#x3e;" horiz-adv-x="1113" 
d="M180 218l-7.00098 0.00195312l-37 37v227l7 9l453 224c-1.33301 11.333 -80.666 49.333 -237.999 114c-148 41.333 -222 85 -222 131v133c0 31.333 7.66699 50 23 56h14c256 -106.667 437.333 -197.334 544 -272.001c146.667 -76 234.334 -136 263.001 -180v-18
c-172.667 -132.667 -439.334 -286.334 -800.001 -461.001z" />
    <glyph glyph-name="question" unicode="?" horiz-adv-x="1010" 
d="M108 1361l126.998 -11.002l164 11h165c168.667 0 276.334 -58.333 323.001 -175l10 -64v-58c0 -89.333 -49.333 -190 -148 -302l-164 -138v-53c0 -5.33301 17.667 -17.666 53 -36.999c10.667 -12.667 16 -25 16 -37v-5c0 -18 -55 -27 -165 -27l-137 -5
c-42.667 14 -64 24.667 -64 32v5c11.333 14.667 36 32.334 74 53.001l-10 149c0 18.667 47.667 39.667 143 63c106 38 159 119.333 159 244c-23.333 144.667 -88.666 217 -195.999 217c-73.333 0 -151 -35.333 -233 -106c-16 -38.667 -37.333 -58 -64 -58
c-21.333 0 -32 60 -32 180c0 26 -23 52.333 -69 79l-5 27c12 10.667 29.667 16 53 16zM494.998 1202c18.667 0 38.002 -10.667 58.002 -32c-28 -42.667 -42 -83.334 -42 -122.001c-28.667 0 -43 -10.667 -43 -32l16 -21h42c0 -36 28.333 -74.667 85 -116
c-6.66699 -22 -24.334 -43.333 -53.001 -64h-16c-108.667 102.667 -170.334 154 -185.001 154c-46 11.333 -69 20 -69 26c44 12.667 91.667 55 143 127c26.667 42.667 48 69.334 64 80.001zM685 676.998l11 0.00292969c52.667 -38.667 79 -89.667 79 -153v-6
c0 -60.667 -19.333 -122.334 -58 -185.001v-37l11 -42c0 -10.667 -7 -16 -21 -16l-75 37v95c0 6.66699 16 13.667 48 21c32 25.333 48 53.666 48 84.999v21c0 61.333 -32 103.666 -96 126.999h-5v16zM389 391.001h196l26 -26v-149c-3.33301 -52.667 -17.333 -79 -42 -79
l-48 5l-233 -5h-5c-26 0 -40.333 5.33301 -43 16v26c0 8.66699 30 24.667 90 48c10.667 12.667 16 25 16 37v53l-5 32c0 22.667 16 36.667 48 42z" />
    <glyph glyph-name="at" unicode="@" horiz-adv-x="1613" 
d="M786 1508c349.333 0 585.999 -210.001 709.999 -630.001l10 -122v-32c0 -133.333 -19.333 -255 -58 -365c-49.333 -70.667 -91.666 -106 -126.999 -106c-142 0 -285 72.333 -429 217c-14 16 -21 40.667 -21 74v159l5 164c0 21.333 -30 32 -90 32
c-98.667 -22 -148 -52 -148 -90c-9.33301 0 -14.666 -21.333 -15.999 -64v-53c0 -93.333 53 -155 159 -185l5 5h48l16 -16v-15c-6 -21.333 -52 -32 -138 -32c-132 0 -225.667 76 -281 228l-10 74c0 86 40.333 154.667 121 206c59.333 28.667 133.666 43 222.999 43h74
l117 -16l148 10c24.667 -10 37 -25.667 37 -47v-16c-60 -42 -90 -73.667 -90 -95c-14 -69.333 -21 -120.666 -21 -153.999v-32c0 -79.333 28 -130.666 84 -153.999c46.667 -20.667 89.334 -31 128.001 -31c24.667 0 37 26.333 37 79l5 106v11c0 148 -21.333 269.667 -64 365
c-58 250.667 -209.667 376 -455 376c-109.333 0 -217 -61.667 -323 -185c-78 -104 -117 -245.333 -117 -424c53.333 -10.667 80 -21.334 80 -32.001v-47h-6c-26.667 20.667 -51.334 31 -74.001 31v-53c0 -223.333 47.667 -398 143 -524c136 -116.667 252.667 -175 350 -175
c76.667 13.333 166.667 40 270 80h11c24 -10 39.667 -22.333 47 -37v-27c-18 -22 -69 -48.333 -153 -79l-218 -32c-153.333 0 -321 83 -503 249c-78 78.667 -131 234 -159 466l-5 106v69c0 266 143 485 429 657c26.667 13.333 101 31 223 53c0 6 8.66699 9.33301 26 10z
M737.999 1381l-0.000976562 -10c-45.333 -18 -68 -48.333 -68 -91v-21c0 -71.333 33.333 -119 100 -143c56.667 -33.333 85 -65 85 -95v-5h-37c-37.333 1.33301 -88.666 29.333 -153.999 84c-28 44 -42 86.667 -42 128v26c0 78 24.667 117 74 117c0 4.66699 14 8 42 10z
M827.998 882.999c21.333 0 32 -7 32 -21l-47 -111v-27l10 -42c0 -10.667 -7 -16 -21 -16c-44 24.667 -86.333 37 -127 37l-37 -5l-11 37c34 22 58.667 48.333 74 79l6 -5h31c28.667 0 58.667 24.667 90 74zM382.998 474.999c143.333 0 254.667 -77.667 334 -233
c49.333 -40 86.333 -61 111 -63v-11c-40.667 0 -97 -35.333 -169 -106c-18 0 -42.667 14 -74 42l16 53l5 -5h21l21 27c0 19.333 -17.667 29.666 -53 30.999c0 86.667 -53 136.334 -159 149.001h-37c-10.667 0 -21 37 -31 111z" />
    <glyph glyph-name="A" unicode="A" horiz-adv-x="1185" 
d="M567 1283h11c32 -0.666992 93.667 -127.667 185 -381c39.333 -84.667 96 -227.667 170 -429l74 -180c6 0 11.333 -9 16 -27c6 0 14.667 -10.667 26 -32c53.333 -28 80 -45.667 80 -53c0 -24.667 -23 -37 -69 -37h-175l-48 -5c-16 6.66699 -24.667 13.667 -26 21v21l32 37
v32c-20 22.667 -36 59.667 -48 111c-13.333 46 -27.333 69 -42 69c-8.66699 24.667 -16 37 -22 37h-264c-60 -140 -90 -226.333 -90 -259c17.333 -9.33301 26 -23.666 26 -42.999c-4.66699 -17.333 -17 -26 -37 -26h-265c-24.667 0 -37 12.333 -37 37v5l85 64
c25.333 32.667 55.333 105 90 217c6.66699 0 10 9 10 27c28.667 57.333 90.667 219.666 186 486.999c75.333 204.667 119.333 307 132 307zM414 1013h10c0 -37.333 -19.333 -60.333 -58 -69c-38.667 -38 -58 -82 -58 -132l21 -53l-32 -96h-5c-42.667 48.667 -64 100 -64 154
c0 78 47.667 139.667 143 185zM588 902c-42 -178 -66.667 -270 -74 -276v-10l59 5l100 -5v5c-24.667 67.333 -51 161 -79 281h-6zM843 775l4.99902 -0.000976562c50 -28.667 90.667 -43 122 -43l37 16c14 -5.33301 21 -10.666 21 -15.999
c-21.333 -54 -33.666 -96.333 -36.999 -127c3.33301 -34 14 -71 32 -111l26 5h6l10 -10v-16l-10 -11h-6c-36 0 -74.667 42.333 -116 127l-48 27v47zM609.999 731.999h10l21 -58c-12 -28 -20.667 -42 -26 -42h-64v10c0 18.667 19.667 48.667 59 90zM481.999 435.999
c17.333 0 57.999 -17.6699 121.999 -53.0029h48l32 10c14 -3.33301 21 -10.333 21 -21c-24.667 -49.333 -37 -84.666 -37 -105.999c6 -57.333 16.667 -99.666 32 -126.999l16 11h10c10.667 0 16 -7.33301 16 -22l-16 -21c-36 0 -76.667 44.333 -122 133l-47 26l5 27v10
c0 47.333 -35.333 77.333 -106 90v11c4.66699 14.667 13.334 25.334 26.001 32.001zM746.998 376.996l11 0.000976562c28 -28.667 42 -60.334 42 -95.001v-5c-46.667 -50 -80 -75 -100 -75l-11 43v21c38.667 38 58 75 58 111zM587.998 212.997c18 -18.667 27 -32.667 27 -42
c-26.667 -10.667 -65.667 -16 -117 -16h-63l-11 10v27l11 10h47z" />
    <glyph glyph-name="B" unicode="B" horiz-adv-x="1143" 
d="M647 1357l4.99902 0.000976562l21 -21c-32 -60 -63.667 -90 -95 -90v-5c84 -12 147.667 -31.667 191 -59c18 0 49.667 -30 95 -90l37 -111v-26c-21.333 -65.333 -48 -113 -80 -143c-13.333 -18.667 -36 -34.667 -68 -48v-5c126.667 -38 209.667 -96.333 249 -175
c20.667 -34 31 -71 31 -111v-22c0 -56.667 -22.667 -123.667 -68 -201c-7.33301 0 -11 -5.33301 -11 -16c-53.333 -46 -113.333 -72.333 -180 -79v-5l-143 -6h-202l-5 6l-5 -6h-5l-302 6l-11 31v6c0 6 21.333 20 64 42c17.333 16.667 26 43 26 79v64h-5l-64 -26l6 -27v-5
l-11 -11h-11l-16 16v16c24.667 37.333 58.334 67.333 101.001 90v233l-10 -11v-53c0 -42 -3.66699 -63 -11 -63c-74.667 46 -127.667 69 -159 69v5l69 32c63.333 56 95 109 95 159v37c0 26.667 -8.66699 46 -26 58l-11 -10h-10l-11 10v16c0 5.33301 7 10.666 21 15.999
c12 0 29.667 -7 53 -21v10l-10 127v32l5 48c0 38 -28.333 66.333 -85 85v26c3.33301 10.667 14 16 32 16h53l212 5v11l-11 42l16 16h5c36 -24.667 80.333 -37 133 -37c18 0 51.333 10.667 100 32l-10 16v10zM391.999 1135v-339h6c141.333 0 212 8.66699 212 26
c56 48 84 95.667 84 143v32c0 50.667 -45.667 96.667 -137 138h-165zM413.999 960.001h5l116 -69l38 -58c-14 -10.667 -30 -16 -48 -16h-16c-63.333 36 -95 57.333 -95 64v79zM402.999 653.001v-307l16 -53c30.667 0 60.667 -5.33301 90 -16l53 5l32 -5l143 21v16l-27 5h-16
c-14.667 -14 -32.334 -21 -53.001 -21h-53v10c60 42.667 90 99.334 90 170.001c0 39.333 -10.333 65.666 -31 78.999c0 -10 -3.66699 -15 -11 -15h-5l-16 15v6c1.33301 7.33301 10 14.333 26 21c62.667 0 98 -74.333 106 -223v-53h6c26.667 0 44.334 47.667 53.001 143
c0 74.667 -49.667 136.667 -149 186c-38 14 -89 21 -153 21h-64zM524.999 647.001c28 -2 42 -7 42 -15c-24.667 -33.333 -37 -65.333 -37 -96c0 -16 5.33301 -31.667 16 -47l-11 -22h-5l-106 43v16c0 56 7 84 21 84c28 0 54.667 12.333 80 37z" />
    <glyph glyph-name="C" unicode="C" horiz-adv-x="1232" 
d="M329 1294h16l11 -11v-16c0 -26.667 -33.667 -67.334 -101 -122.001c-14 -20 -22.667 -39.333 -26 -58c-70.667 0 -106 -31.667 -106 -95l16 -85c-10.667 -38.667 -19.667 -58 -27 -58c-24.667 42.667 -37 90.334 -37 143.001l32 127v5c0 27.333 -9 50.333 -27 69l16 27
c32 -14.667 67.333 -22 106 -22c42.667 0 85 19.667 127 59l-10 10v16zM727 1273c99.333 0 201.669 -21.334 307.002 -64.001h53l16 11l21 -22v-121c0 -81.333 -9 -122 -27 -122h-10c-20.667 6 -40 39.333 -58 100l-48 43c-70 28.667 -151.333 43 -244 43
c-136.667 13.333 -236 -40 -298 -160c-46 -81.333 -69 -152 -69 -212c0 -86.667 30.333 -203 91 -349c51.333 -63.333 102.666 -105.666 153.999 -126.999c3.33301 -8.66699 38.666 -19.334 105.999 -32.001l6 -6h127c120 21.333 180 46.333 180 75
c17.333 6.66699 26 17 26 31l27 11l26 -26v-38c-8.66699 -11.333 -21 -50 -37 -116c-68.667 -49.333 -187 -74 -355 -74c-107.333 0 -223.666 38.667 -348.999 116c0 8.66699 -19.667 23 -59 43c0 10.667 -5.33301 16 -16 16l-90 111h-5
c-28.667 -12 -53.334 -28 -74.001 -48l16 -16v-5l-16 -16h-11c-8.66699 0 -14 7 -16 21c0 30 25 63.667 75 101c6.66699 0 10 5.33301 10 16c-42 100.667 -63 185.334 -63 254.001v53c0 32 21 101 63 207c38 74.667 89.333 140 154 196c19.333 24.667 44 37 74 37
c90 46 174.667 69 254 69h59zM423.003 869.999c38 0 85.666 -17.667 142.999 -53l27 -5h26c12 0 24.667 5.33301 38 16c14 -7.33301 21 -16.333 21 -27c-24.667 -40.667 -37 -83 -37 -127c0 -20 10.333 -55.333 31 -106l16 11h11l16 -16v-6l-21 -21
c-35.333 8 -74.333 52.333 -117 133l-48 31l6 27c0 59.333 -44.333 93 -133 101h-5c4.66699 28 13.334 42 26.001 42zM455.002 551.999h16c162.667 0 269 -68.667 319 -206l58 -59v-5l-37 -5h-37c-60 0 -83.333 14 -70 42c-25.333 78 -76.333 117 -153 117h-16l-53 -6
c-24.667 41.333 -37 73.333 -37 96v16z" />
    <glyph glyph-name="D" unicode="D" horiz-adv-x="1277" 
d="M488 1262l127 -0.000976562c6 -6 52 -15 138 -27c87.333 -29.333 157.666 -66.333 210.999 -111c30.667 -24.667 59 -56.334 85 -95.001c9.33301 -26 25.333 -43.667 48 -53c13.333 -10.667 29.333 -16 48 -16h26c12 0 24.333 5.33301 37 16
c14 -7.33301 21 -16.333 21 -27c-24.667 -40.667 -37 -83 -37 -127c0 -20 10.667 -55.333 32 -106l16 11h10l16 -16v-5l-21 -21c-63.333 36 -95 71 -95 105h-5v-21l10 -16v-53c-6.66699 -4.66699 -13.667 -47 -21 -127l-48 -127
c-30.667 -75.333 -81.667 -147.666 -153 -216.999c-96.667 -56.667 -208 -85 -334 -85h-276l-180 -5c-16.667 0 -27 12.333 -31 37c0 14 15.667 26.333 47 37c18 27.333 27 57.333 27 90l-6 445c-14 -7.33301 -21 -16 -21 -26l6 -138h-11
c-27.333 62.667 -73.333 110.334 -138 143.001l-21 5v11c42.667 0 104.334 42.333 185.001 127v260c-13.333 36 -34.333 58.667 -63 68l-11 11v21l21 21l212 -10c99.333 6.66699 149 13.667 149 21zM398 1098l5.00098 -63.998l-11 -408l16 -127l-5 -26v-85l-5 -85
c0 -18.667 15.667 -34.667 47 -48h154l101 27c72 37.333 117.667 81.333 137 132c28.667 28 51.667 104 69 228v53c0 113.333 -35.333 212.333 -106 297c-38.667 51.333 -91.667 86.666 -159 105.999c-26.667 3.33301 -44.334 8.66602 -53.001 15.999h-169zM805.001 955.001
c12 0 22.667 -21.332 32 -63.999c-10.667 -18 -16 -35.667 -16 -53v-26c0 -32 21.333 -64 64 -96v-84c0 -18.667 -5.33301 -29.334 -16 -32.001c-88 70 -132 142.333 -132 217c0 44.667 22.667 90.667 68 138zM451.001 939.002l15 -20.999
c-10 -18.667 -15 -36.334 -15 -53.001c0 -18.667 17.667 -61 53 -127l10 -80c0 -70.667 -30 -125.334 -90 -164.001l-5 5v48l-6 26c32 24.667 48 49.334 48 74.001v64c0 22 -16 46.667 -48 74v48c0 70.667 10.667 106 32 106h6zM625.001 716.003l6.00195 -0.000976562
c74 0 111 -83 111 -249v-21h-5l-43 11c-14 -5.33301 -21 -10.666 -21 -15.999v-21l16 -16h5l37 5l16 -79c-22.667 -18 -40.334 -27 -53.001 -27h-5c-52.667 47.333 -116.334 79 -191.001 95v11c88.667 0 147 67 175 201v6c-9.33301 49.333 -20 74 -32 74l-16 -16l-16 16v10z
" />
    <glyph glyph-name="E" unicode="E" horiz-adv-x="1105" 
d="M197 1230l735.997 0.000976562c21.333 -16 32 -44.333 32 -85c-10 0 -19 -47.667 -27 -143l-32 -10c-35.333 56.667 -68.666 85 -99.999 85l-53 15l-270 6h-43v-207l11 -16v-90h259c28.667 28.667 48.334 43 59.001 43c19.333 0 33.333 -12.667 42 -38v-21l-10 -16v-132
c0 -18 -5.33301 -28.667 -16 -32h-22c-29.333 42.667 -59.333 64 -90 64h-233v-101l-5 -63l11 -122l-6 -37c7.33301 0 11 -10.667 11 -32c38.667 0 70.334 -7 95.001 -21h286c46 24.667 78 37 96 37c0 17.333 17.667 26 53 26l21 -16v-21c-10 -8.66699 -38.333 -58 -85 -148
c-12 -10.667 -33.333 -16 -64 -16h-376l-100 11l-196 -6c-26 0 -45.667 9 -59 27v10c56.667 44 85 137.667 85 281l11 11v127l5 74l-5 5v6l5 31v27c-14 0 -21 -21.333 -21 -64v-58c-88 42.667 -139.333 64 -154 64h-5v5l5 5c106 41.333 159 110.333 159 207
c0 38.667 -10.667 65 -32 79c0 -10.667 -3.33301 -16 -10 -16h-5l-16 16v5c1.33301 7.33301 10 14.666 26 21.999l37 -11v5l-5 175c-32 0 -48 12.333 -48 37c2.66699 10.667 17 16 43 16zM471.997 642.001l85 0.000976562l10 -10v-48c0 -16.667 10.667 -48.334 32 -95.001
l16 10h11l10 -10v-16l-10 -11h-6c-34.667 0 -71.667 40.667 -111 122l-53 42zM466.997 473.002c86 0 167.001 -55 243.001 -165v-15c-72.667 0 -125.334 15.667 -158.001 47c-60.667 15.333 -91 26 -91 32l-5 69z" />
    <glyph glyph-name="F" unicode="F" horiz-adv-x="1061" 
d="M181 1225l31.999 0.00390625c56 0 89.667 -5.33301 101 -16h243l16 11h58l181 5l127 -5c0 -7.33301 10.333 -11 31 -11l16 -21v-43l-10 -15v-101c0 -28.667 -12.333 -46.334 -37 -53.001c-23.333 12.667 -37.666 32 -42.999 58c-5.33301 0 -10.666 7 -15.999 21
c-31.333 3.33301 -47 8.66602 -47 15.999l-350 11v-5l5 -53l-10 -249h228c11.333 0 32.333 14 63 42h16c14 0 21 -24.667 21 -74c0 -94 -8.66699 -152.333 -26 -175h-16c-30.667 46 -66 69 -106 69h-196l-5 -80v-21c0 -229.333 14 -344 42 -344c24 0 41.667 -10.667 53 -32
v-21c-2 -10.667 -16 -16 -42 -16h-53c-30 0 -51.333 5.33301 -64 16h-143l-16 -11h-58l-21 -5c-18.667 0 -29.334 12.333 -32.001 37c0 15.333 21 27.666 63 36.999l38 43v153c-28.667 42.667 -43 85 -43 127c0 46.667 21.333 91 64 133l5 286
c0 144.667 -19.333 217 -58 217c-20.667 11.333 -35 23.666 -43 36.999v16c4 10.667 14.667 16 32 16zM122.999 1130h5c60 -6 90 -20.333 90 -43c7.33301 -14 11 -33.333 11 -58v-27c-49.333 -17.333 -74 -43.666 -74 -78.999v-16c0 -62.667 23 -110.334 69 -143.001v-64
l-6 -5v-5c-74 42 -111 110.667 -111 206v11c0 18.667 10.667 61 32 127v11l-21 69zM742.999 1061c45.333 0 82.333 -9 111 -27l-5 -26l5 -27c-32 -15.333 -55 -36.333 -69 -63c-31.333 -64 -63 -96 -95 -96h-6l-10 11v16l10 10h11l16 -10c21.333 44 32 81 32 111v11
c0 30 -7.33301 58 -22 84l6 6h16zM535.999 626.004l111.001 -5l6 -5c-10.667 -23.333 -16 -48 -16 -74v-27c13.333 -63.333 25.666 -95 36.999 -95l10 10h11l11 -10v-16l-16 -16c-32 3.33301 -72.667 49.333 -122 138c-26 12.667 -40.333 23 -43 31l6 22l-11 37z
M208 351.004v-37l-59 -37v-6c10.667 0 16 -3.33301 16 -10v-11l-16 -16h-10l-16 16c0 38 26.333 71.667 79 101h6z" />
    <glyph glyph-name="G" unicode="G" horiz-adv-x="1269" 
d="M700 1251l143 -0.00292969c6 -7.33301 62.667 -21.666 170 -42.999l21 -10h53c18.667 0 31 -7 37 -21v-149c-7.33301 -6.66699 -12.666 -29.667 -15.999 -69l-5 -5h-27l-53 64c-76 60 -162.333 93.333 -259 100l-6 6h-21c-8 -7.33301 -39.667 -14.666 -95 -21.999
c-64 -34.667 -118.667 -87.334 -164 -158.001c-46 -93.333 -69 -181.666 -69 -264.999v-27c0 -72 26.333 -151.333 79 -238c37.333 -49.333 99.333 -93.666 186 -132.999l84 -21c31.333 3.33301 65 12.333 101 27v37h11l5 169c-2 88.667 -19.667 133 -53 133
c-2 14 -16.333 21 -43 21h-37c-52 0 -83.667 -31.667 -95 -95l5 -27c-32 -15.333 -55 -36.666 -69 -63.999c-11.333 -28 -25.333 -49 -42 -63h-5c-8.66699 0 -14 7 -16 21c14 26 21 54.333 21 85v10c0 31.333 -12.333 72 -37 122l21 16c18 -10.667 35.667 -16 53 -16
c18.667 0 63 17.667 133 53l47 6h27l85 -11h248c19.333 0 32 -7 38 -21v-32l-38 -21l-26 -74v-106l-5 -249c-84 -32 -137 -48 -159 -48l16 -48h5l16 11h5l16 -16v-11l-16 -15c-24 0 -54 24.667 -90 74h-5l-16 -11h-223l-90 21c0 6 -33.333 18.333 -100 37
c-74.667 38.667 -122.334 74 -143.001 106c-102.667 122.667 -154 250 -154 382c0 45.333 14 110.666 42 195.999c0 96.667 85 202.667 255 318c82 42 158 63 228 63h10zM737 1102l11 -9.99902c0 -28 -10.667 -74 -32 -138c0 -18.667 8.66699 -45 26 -79
c-5.33301 -14.667 -10.666 -22 -15.999 -22c-30.667 14.667 -62.334 22 -95.001 22c-36.667 0 -82.667 -17.667 -138 -53l16 -22v-10l-10 -11h-21l-11 11c0 35.333 38.667 86.666 116 153.999c0 28 19.667 42 59 42c42 25.333 63 62.333 63 111l6 5h26zM123 445.998h5.00098
c33.333 0 65 -32 95 -96c46 -50.667 69 -84 69 -100c14 -56.667 40.667 -85 80 -85h58c29.333 -21.333 48.666 -32 57.999 -32v-11l-63 -10c-52 0 -110.333 19.333 -175 58h-48l-42 -10l-11 15c21.333 52 32 91 32 117v32l-27 90h-5l-16 -11h-5l-16 16v16zM674.001 386.998
c51.333 0 109.334 -19.332 174.001 -57.999h6v-5c0 -9.33301 -21.333 -20 -64 -32c-18.667 32 -54 48 -106 48l-48 -11c-26.667 13.333 -42.334 25.666 -47.001 36.999v5z" />
    <glyph glyph-name="H" unicode="H" horiz-adv-x="1268" 
d="M170 1241h79c14 -10.667 35.333 -16 64 -16l164 5l11 11l31 -27c0 -21.333 -21 -40.666 -63 -57.999c-7.33301 -54 -11 -142.333 -11 -265v-37c40.667 0 83 12.333 127 37l-10 32l16 11h10l16 -16c0 -38 -37 -75.333 -111 -112l-5 -5v-5h53l270 -11h37l5 -5h5v111l11 16
v79c0 112.667 -19.333 176.334 -58 191.001l-16 16v21l5 6l16 5v5l159 -5h164c21.333 -2 32 -7.33301 32 -16v-21c-46 -28.667 -69 -55.334 -69 -80.001v-217c28 -89.333 42 -163.333 42 -222v-27c0 -79.333 -15.667 -139.333 -47 -180h-6l6 223l-6 26h-5l-5 -101
c-7.33301 0 -11 -5.33301 -11 -16l6 -137l-6 -122c6 0 15 -37 27 -111l10 -22l43 -37v-10c-14.667 -21.333 -37.667 -32 -69 -32l-281 5l-26 32c49.333 38.667 74 68.667 74 90l5 27l-5 58l5 244v37h-122l-16 10h-280v-21l5 -154l-5 -158v-16
c6.66699 -7.33301 12 -30.333 16 -69c32 -14 49.333 -28.333 52 -43c-6.66699 -16 -13.667 -24.667 -21 -26h-31c-70.667 0 -116.667 3.66699 -138 11l-32 -6h-53l-74 -5l-21 16v26c46 29.333 69 94.666 69 195.999v308l10 15v286c-10.667 127.333 -23 191 -37 191
s-24.667 14.333 -32 43zM186 1077l4.99902 -75l-16 -53v-31l16 -90v-75c0 -77.333 -7 -116 -21 -116c0 30 -24.667 95.333 -74 196l-11 74c16.667 113.333 50.334 170 101.001 170zM836.999 1077l6 -0.000976562l5 -53v-80l-85 -42c-26 -28.667 -43.667 -60.667 -53 -96h-11
c-60 0 -90 7.33301 -90 22c0 54.667 69 130.334 207 227.001zM608.999 604.999l117.001 0.000976562l11 -11c-6.66699 -0.666992 -28 -32.334 -64 -95.001c-62.667 -63.333 -124.334 -95 -185.001 -95h-22l-5 5h-5c0 49.333 7 74 21 74c56 0 96.667 35.333 122 106
c0 10.667 3.33301 16 10 16zM821 414c7.33301 -13.333 10.999 -32.667 10.999 -58v-42l-11 -11c-41.333 24.667 -74.666 37 -99.999 37h-32c-30 0 -53 -10.667 -69 -32l16 -15l-16 -16h-11l-15 16v15c0 60 75.667 95.333 227 106z" />
    <glyph glyph-name="I" unicode="I" horiz-adv-x="751" 
d="M190 1230l90.001 -4.99902h217c24.667 0 37 -12.333 37 -37l-47 -37c-18 0 -27 -47.667 -27 -143v-69l-11 -16v-69l-5 -58l5 -69v-80l-5 -26l5 -32v-196l-5 -32l5 -15l-5 -96c0 -19.333 9 -37 27 -53c28 -14.667 42 -32.334 42 -53.001l-11 -21l-111 5l-164 -5
c-38 0 -64.667 9 -80 27v21c0 6.66699 16 13.667 48 21c14 12.667 21 49.667 21 111v58l-42 -10c-8.66699 0 -14 7 -16 21c24.667 42.667 37 85 37 127c0 20 -10.667 55.333 -32 106l-16 -11h-10l-16 16v6l21 21c56.667 -30 85 -60 85 -90h5l6 100l-6 408
c-2.66699 78 -18.334 117 -47.001 117l-22 16c0 21.333 9 35.333 27 42zM492.001 1071l32 -10.001h42l32 10c14 -3.33301 21 -10.333 21 -21c-24.667 -44 -37 -86.333 -37 -127c0 -23.333 10.667 -58.666 32 -105.999l16 11h10c10.667 0 16 -7.33301 16 -22l-16 -21
c-34 0 -67.667 33.667 -101 101c0 7.33301 -21 28.333 -63 63l5 32l-5 5l5 38v37zM211.001 1066l5 -5v-6l-5 -121l5 -191h-5c-56.667 56.667 -85 115 -85 175c0 48 28.333 97.333 85 148zM471.001 743h5c116.667 -66 175 -145.667 175 -239
c0 -67.333 -44.333 -127.333 -133 -180l-47 -16l-6 6v37c67.333 39.333 101 83.333 101 132v27c0 37.333 -30 74.333 -90 111l-5 48v74z" />
    <glyph glyph-name="J" unicode="J" horiz-adv-x="619" 
d="M158 1222h74l16 -5l27 5h185l16 -16v-21l-69 -58v-111l-10 -16l10 -22l11 -418v-138c0 -202 -35.333 -320.333 -106 -355c0 -20 -42.333 -62.333 -127 -127c-55.333 -24.667 -112 -37 -170 -37l-21 16v21c36.667 28 68.334 47.333 95.001 58c64 48.667 96 93 96 133v101
c14 23.333 21 78 21 164v196c-92 70.667 -138 146.667 -138 228v5c0 48 32 99 96 153l10 -52l-26 -106c0 -34.667 17.667 -64.667 53 -90l-6 105l6 271c-10.667 26.667 -30.334 46 -59.001 58l-26 21v21c2 10.667 16 16 42 16zM545 973l16 -20.999
c-24.667 -42.667 -37 -81.667 -37 -117v-26c0 -16.667 10.667 -48.334 32 -95.001l15 10h11l11 -10v-16l-11 -11h-5c-34.667 0 -72 40.667 -112 122l-37 37l6 117l5 5c14 -7.33301 33.333 -11 58 -11z" />
    <glyph glyph-name="K" unicode="K" horiz-adv-x="1163" 
d="M701 1233l85.001 -0.000976562l16 -11l10 11h186l26 -32c-6 -21.333 -18.333 -32 -37 -32c-52.667 0 -130.334 -70.667 -233.001 -212l-64 -90c-48 -55.333 -88.333 -108.333 -121 -159c16 -32.667 83 -117.334 201 -254.001c67.333 -82 127.333 -142 180 -180
c30.667 -38 66 -59.333 106 -64l5 -5c10.667 0 16 -7 16 -21h5l-16 -53l-116 11l-138 -6h-32l-5 6l-5 15h-5l5 6v26c-7.33301 30.667 -35.666 67.667 -84.999 111c-71.333 60 -138.333 136 -201 228c-18.667 36.667 -43.334 68.667 -74.001 96l10 -181v-201l64 -69v-21
c0 -14 -39 -21 -117 -21h-222l-21 21v21c42 21.333 63 48 63 80v169l11 11l-6 85l6 106l-27 -27h-5v-95h-5c-72 42 -123.333 63 -154 63v11c84.667 0 143 65.333 175 196v5c-3.33301 46.667 -14 73.334 -32 80.001l-11 -11h-10l-11 11v10l16 16h16
c12 0 24.333 -5.33301 37 -16v164c0 78 -7 117 -21 117l-48 37v27l11 10h339l10 -10v-22l-63 -63v-64c0 -99.333 5.33301 -191 16 -275h5c138 176.667 228 298.334 270 365.001l-32 37v22zM563.001 1016h11c0 -29.333 -30 -56 -90 -80c-21.333 -24 -32 -40 -32 -48h-11v16
l-5 64c40.667 32 83 48 127 48zM828.001 972.999l16 -20.999c-24.667 -43.333 -37 -87.333 -37 -132c0 -24.667 10.667 -58.334 32 -101.001l26 5h5l11 -10v-11l-16 -16h-5c-30.667 2 -67.667 42.667 -111 122l-43 37c49.333 84.667 90 127 122 127z" />
    <glyph glyph-name="L" unicode="L" horiz-adv-x="962" 
d="M477 1238l16.001 -21v-21c-0.666992 -7.33301 -18.334 -18 -53.001 -32c-8.66699 -13.333 -16 -40 -22 -80l-5 -5v-5l5 -154l-5 -111h5l6 -5h5l11 143h5c42 -38.667 63 -84.667 63 -138c0 -48 -28 -106.333 -84 -175v-270c0 -35.333 8.66699 -58.333 26 -69l90 -16h43
c151.333 0 227 19.667 227 59l32 26h5c32 -15.333 48 -33 48 -53c-33.333 -106 -65 -159 -95 -159l-21 -10h-636l-27 26c0 6.66699 19.667 26 59 58l16 37v122l-11 16v535c0 148.667 -8.66699 223 -26 223l-43 42v21l11 11h222zM37.001 973l53 -16l69 16v-122
c-38 -31.333 -73.333 -77 -106 -137c-24 -18 -41.667 -27 -53 -27h-5l-11 11v16l16 16l21 -16c21.333 46 32 83 32 111v10c0 31.333 -12.333 72 -37 122zM625.001 714l11 -11.001v-16l-11 -10h-11l-16 10l-21 -53v-32c0 -87.333 47.667 -150.666 143 -189.999l22 -6v-10
c-64.667 -12.667 -126.667 -44.667 -186 -96h-10l-53 6v5l26 101l32 -11h5l16 16v32l-26 5l-32 -11l-11 22c0 138 30 221 90 249h32z" />
    <glyph glyph-name="M" unicode="M" horiz-adv-x="1407" 
d="M1052 1265c32.667 0 52.332 -33.667 58.999 -101c6 -67.333 25.333 -101 58 -101l21 -5h27c11.333 0 23.666 5.33301 36.999 16c14 -7.33301 21 -16.333 21 -27c-24.667 -40.667 -37 -83 -37 -127c0 -20 10.667 -55.333 32 -106l16 11h10l16 -16v-5l-21 -22
c-43.333 14 -80.333 58.333 -111 133l-22 69h-5c10.667 -76 16 -141.333 16 -196l11 -11v-5c0 -77.333 17.667 -229.333 53 -456v-21c6.66699 0 10 -12.333 10 -37c4.66699 0 8.33398 -10.667 11.001 -32c8 0 16.667 -7 26 -21c24.667 0 37 -12.333 37 -37v-5l-21 -21h-233
l-48 -6c-17.333 6 -26 16.667 -26 32c0 14 8.66699 28 26 42c4 26.667 9.33301 44.334 16 53.001v96l-10 21l-11 159c-10 0 -17 61.667 -21 185c-7.33301 0 -11 5.33301 -11 16h-5c-59.333 -140.667 -126.333 -282 -201 -424l-74 -143c0 -14 -5.33301 -21 -16 -21h-22
c-88 132.667 -179.667 332.334 -275 599.001h-5v-11l-6 -191l-10 -10v-21l-5 -271l37 -63v-16c-4 -10.667 -14.667 -16 -32 -16h-207l-21 -5c-24.667 6 -37 13 -37 21c0 15.333 14 34.666 42 57.999l6 32v69c0 37.333 8.66699 108 26 212v5h-5
c0 -6.66699 -10.667 -20.667 -32 -42l16 -16c-9.33301 -26.667 -18.333 -41 -27 -43c-62.667 35.333 -106.667 53 -132 53v11c88.667 0 147 67 175 201v6c-9.33301 49.333 -20 74 -32 74l-16 -16l-16 16v10l16 16h5c28 0 54.667 -17.667 80 -53
c6.66699 95.333 13.667 143 21 143c4.66699 124 11.667 186 21 186c2.66699 112.667 13.334 169 32.001 169h5c22.667 0 44 -23 64 -69c48 -67.333 101 -178.333 159 -333c14.667 -60 48 -90 100 -90h11l48 15l16 -21c-24.667 -42.667 -37 -86.667 -37 -132
c0 -24.667 10.333 -58.334 31 -101.001l27 6h5l5 -6h6c109.333 240 187 418.333 233 535l85 196zM946.998 1100c-5.33301 -24.667 -26.667 -61.667 -64 -111l-58 -180h-6c-12 0 -24.333 35.333 -37 106c0 77.333 51.333 141 154 191h11v-6zM1222 645
c74 -56.667 111 -109.666 111 -158.999v-16c0 -66.667 -23 -121.334 -69 -164.001l-10 42l5 122c-32 63.333 -48 111 -48 143v26l6 6h5zM654.997 518.001l-0.000976562 -6l21 -53h16l6 37c-13.333 0 -27.666 7.33301 -42.999 22zM829.996 364.001
c28 -42.667 86.332 -64.001 174.999 -64.001l5 -5v-5c-3.33301 -24.667 -8.66602 -37 -15.999 -37c-127.333 18.667 -191 43.334 -191 74.001c9.33301 22.667 18.333 35 27 37z" />
    <glyph glyph-name="N" unicode="N" horiz-adv-x="1305" 
d="M848 1259l322.999 -0.000976562l26 -32c0 -5.33301 -26.333 -24.666 -79 -57.999c-14 -39.333 -21 -72.666 -21 -99.999l5 -345l-5 -106c6.66699 1.33301 17 17.333 31 48v85c0 5.33301 33.667 17.666 101 36.999l5 5l6 -5c-28.667 -28.667 -43 -133 -43 -313
c-18 -58.667 -41 -104.334 -69 -137.001l-5 15l5 170l-26 79h-5v-164l5 -143h-5l5 -5v-127l11 -16c-5.33301 0 -10.666 -7 -15.999 -21l-6 -6h-21c-18 0 -164.333 146.667 -439 440l-128 138l-116 132c-10.667 0 -16 7 -16 21h-11v-16h11v-5l-11 -16v-95h6
c4 40.667 12.667 63.667 26 69l32 -32l-5 -53c15.333 -92 54 -138 116 -138l48 6h10l69 -80v-10l-74 -11c-102 0 -174.333 44 -217 132l-5 43h-6l-5 -329c0 -63.333 12.333 -95 37 -95c12.667 0 27 -9 43 -27v-10l-27 -32h-318c-7.33301 1.33301 -14.333 10.333 -21 27
c0 16 16 31.667 48 47l5 6c0 6.66699 5.33301 10 16 10l10 249v16l11 16v26l5 392l-5 170c0 95.333 10.667 143 32 143h10l228 -244l101 -111c40 0 73.667 28.333 101 85l5 5h10l43 -85c42.667 -52.667 88.667 -79 138 -79c0 14 3.33301 21 10 21h11l16 -16v-10
c0 -12 -23 -21 -69 -27l-96 21h-21l-47 -10c-23.333 28 -39.333 42 -48 42v-5l132 -159c56 50.667 103.667 80.667 143 90c7.33301 -25.333 11 -60.666 11 -105.999c-46 -30 -69 -58.333 -69 -85l85 -90v5l5 265l-11 350c-8 0 -13 23 -15 69l-53 32l-6 5v26
c2.66699 10.667 17 16 43 16z" />
    <glyph glyph-name="O" unicode="O" 
d="M611 1254l120.002 0.00292969c8.66699 -7.33301 38.667 -14.333 90 -21l6 -6c105.333 -36.667 184.666 -102 237.999 -196c32 -38.667 65.667 -111 101 -217c0 -24.667 3.33301 -40.334 10 -47.001v-138c-6.66699 0 -11.667 -35.333 -15 -106
c-29.333 -107.333 -56 -167.333 -80 -180c-37.333 -69.333 -101 -126 -191 -170c-28 -26 -98.333 -45.333 -211 -58l-62 -5c-67.333 0 -157.333 35.333 -270 106c-84 59.333 -135.333 126.333 -154 201c-35.333 108.667 -53 213 -53 313v26l11 16v21
c0 47.333 14 98.666 42 153.999l-11 10h-5l-37 -5c-16.667 39.333 -53.667 71 -111 95c-32 31.333 -48 54.333 -48 69v6c0 8 8.66699 13 26 15l16 -21l-10 -21c39.333 -21.333 76.333 -32 111 -32c33.333 0 75.666 12.333 126.999 37l16 -21l-11 -32
c72 85.333 146.333 143.666 223 174.999c68 11.333 112 22 132 32zM384.002 740.003l-0.000976562 -79.001c0 -165.333 40.333 -276.666 121 -333.999c58.667 -60 118.334 -90 179.001 -90c50.667 4 103.667 32.333 159 85c60 78 90 178.667 90 302v53
c0 88.667 -16 178.667 -48 270c0 43.333 -28.333 89 -85 137c-46 21.333 -103.667 32 -173 32c-104 0 -176.333 -58.333 -217 -175c-17.333 -45.333 -26 -112.333 -26 -201zM869.001 910.002l11 -16.001v-21c0 -7.33301 -23 -16.333 -69 -27
c-46 -37.333 -69 -81.333 -69 -132v-6c0 -52.667 44 -95 132 -127l-5 -5v-5c0 -10.667 10.667 -16 32 -16v-16c-8 -70.667 -18.667 -106 -32 -106c0 8.66699 -44 44 -132 106c-69.333 57.333 -104 112 -104 164v21c0 60.667 54 117.334 162 170.001
c23.333 10.667 48 16 74 16zM113.001 677.001l6 -0.000976562c8 0 13.333 -26.667 16 -80c-18 -32 -27 -63.667 -27 -95c0 -48 24.667 -87 74 -117c0 -8.66699 17.667 -38.667 53 -90v-5l-90 -32c0 -7.33301 -8.66699 -11 -26 -11l-11 16l11 43v26l-53 127l-6 69
c0 46.667 17.667 96.334 53 149.001zM516.001 608l16 -0.000976562c57.333 0 91 -69 101 -207v-53l-11 -10l-32 10c-17.333 0 -26 -8.66699 -26 -26l5 -16h-5c-9.33301 0 -29 17.667 -59 53c39.333 48.667 59 96.334 59 143.001v10c-9.33301 49.333 -20 74 -32 74
c0 -10 -3.66699 -15 -11 -15h-5l-16 15v6z" />
    <glyph glyph-name="P" unicode="P" horiz-adv-x="1089" 
d="M535 1243l63.999 -0.000976562c143.333 0 256.333 -40.333 339 -121c31.333 -50 47 -96 47 -138v-43c0 -80.667 -26.333 -158.334 -79 -233.001c-89.333 -84.667 -193.666 -127 -312.999 -127h-5c-68 0 -106.667 17.667 -116 53v16c0 7.33301 10.333 12.666 31 15.999
l43 -16c89.333 27.333 145.666 64.333 168.999 111c21.333 36.667 32 84.334 32 143.001v16c0 43.333 -16 91 -48 143c-25.333 35.333 -76.333 53 -153 53h-53c-32 0 -48 -12.333 -48 -37v-58l-11 -16v-705c6 -15.333 48.667 -38 128 -68c28 -21.333 42 -41 42 -59
c-3.33301 -10.667 -14 -16 -32 -16l-10 22l5 21l-85 16l-16 -6v-5c18.667 0 33 -10.667 43 -32v-10l-22 -21h-127l-16 10h-79l-16 -10h-122l-21 21v26l64 32c17.333 32 26 62 26 90v111l5 196h-10l-21 -116c-72 42 -123.333 63 -154 63v11
c76.667 0 133.334 58.333 170.001 175v42c0 28 -9 49.333 -27 64l-11 -11h-10l-11 11v10l16 16h16c12.667 0 26.667 -7 42 -21v32c-12 10.667 -45.333 26.334 -100 47.001c-28.667 20.667 -43 40.334 -43 59.001c4 10.667 14.667 16 32 16l11 -22l-6 -21l85 -16l32 6v159
c0 6 -28.333 32.333 -85 79v11h-5c4.66699 17.333 10 26 16 26l222 -5zM651.999 1074h5.00098c38.667 -32 58 -58.667 58 -80h-47c-54 0 -86 -47.667 -96 -143c0 -36.667 26.667 -79 80 -127c-20 -25.333 -41.333 -39.333 -64 -42c-46 40.667 -69 86.667 -69 138v26
c0 75.333 39 144.333 117 207c5.33301 14 10.666 21 15.999 21zM668 570.999l5 -6h5c0 -38.667 -40.667 -95 -122 -169c-8 -60 -16.667 -90 -26 -90h-5l-69 63v96l10 16l43 -16h26c40 0 71.667 33.333 95 100z" />
    <glyph glyph-name="Q" unicode="Q" horiz-adv-x="1306" 
d="M709 1259c78 0 152.333 -21.002 223 -63.002c86.667 -46 148.334 -115 185.001 -207c39.333 -90 59 -178.333 59 -265v-90c0 -94 -40.667 -201.667 -122 -323c-11.333 -20 -36 -41.333 -74 -64l-6 -5v-5c230 -154 394.333 -240.667 493 -260
c5.33301 -5.33301 47.666 -12.333 126.999 -21l5 -5h165l21 10c78 0 169.667 16 275 48h16l21 -32c-43.333 -42 -80.333 -63 -111 -63l-275 -64l-6 -5h-201c0 6.66699 -35.333 12 -106 16l-159 53c-100 50.667 -204 112.334 -312 185.001c-40 24.667 -82.333 44 -127 58
c-54.667 -17.333 -104.334 -26 -149.001 -26h-32c-40.667 0 -111 17.667 -211 53c0 8 -19.667 20.333 -59 37c0 10.667 -7 16 -21 16l-64 63v6h-15c-31.333 -19.333 -52.666 -37 -63.999 -53c10.667 0 16 -3.66699 16 -11v-21l-27 -5l-10 10v11c0 32.667 19.333 68 58 106
l-53 85c-24.667 94.667 -37 160 -37 196v58c2.66699 92.667 25.667 186.334 69 281.001c50.667 92 102 157.333 154 196c80.667 54.667 181 88 301 100h53zM296 1212l16 -22c0 -35.333 -28.333 -77.666 -85 -126.999l-31 -69c-49.333 0 -79.333 -33.333 -90 -100l21 -80
c-2.66699 -42 -8 -63 -16 -63c-18 0 -35.667 51 -53 153l21 90c0 41.333 -12.333 69.666 -37 84.999l16 27l69 -11c60.667 0 113.667 24.667 159 74l-16 16v11c0 8 8.66699 13.333 26 16zM381 824.998l-0.00195312 -106.001l11 -143v-5
c6.66699 -10 15.334 -43.667 26.001 -101c12 -42 33.333 -88 64 -138c46.667 -31.333 94.334 -50.666 143.001 -57.999l5 -5h74v5l-69 16v10c84.667 0 143 65.333 175 196v6c-3.33301 46 -14 72.333 -32 79l-10 -10h-11l-10 10v11l15 16h16c59.333 0 93 -77.667 101 -233
v-11h5c49.333 52.667 74 134 74 244v69c0 82 -21 179 -63 291c0 48 -28.333 95.667 -85 143c-26 17.333 -61.333 26 -106 26h-32l-16 11h-5l-90 -26c-106 -62 -159 -124 -159 -186c-11.333 0 -18.333 -37 -21 -111zM698.998 1116h5c46 0 76 -10.667 90 -32
c-74 -120 -164 -180 -270 -180h-74c-5.33301 0 -12.333 16 -21 48c13.333 34 31 58.667 53 74l58 -10c70 0 123 33.333 159 100zM693.998 914.997l15.001 -16v-11l-15 -15h-6l-16 10h-5c-17.333 -44 -28 -79.333 -32 -106c6.66699 -48.667 19 -92.667 37 -132
c0 -10.667 -7 -16 -21 -16l-32 10h-42l-90 -42c-14 -7.33301 -33.333 -11 -58 -11c-10.667 4 -16 14.667 -16 32v6c0 6.66699 21 11.667 63 15c35.333 28 53 53 53 75v47c53.333 24 80 54 80 90c35.333 42.667 63.666 64 84.999 64zM809.999 331.997v-21h21
c0 10.667 7 16 21 16l6 5v6l-11 10h-21z" />
    <glyph glyph-name="R" unicode="R" horiz-adv-x="1179" 
d="M196 1238l21 -0.00195312l133 -5l164 5h175c155.333 0 257.666 -49.333 306.999 -148c14 -16.667 21 -52 21 -106v-11c0 -86.667 -31.667 -178.334 -95 -275.001c-49.333 -53.333 -81.333 -80 -96 -80v-10c10.667 0 42.667 -49.667 96 -149
c110 -148 205.333 -239.667 286 -275c0 -4.66699 17.667 -10 53 -16c35.333 -4.66699 53 -18.667 53 -42c-18 -21.333 -41 -32 -69 -32h-48c-113.333 0 -210.333 35.333 -291 106c-115.333 128.667 -194.666 229.334 -237.999 302.001h-91l-15 10h-75l-5 -169
c0 -86.667 28.333 -139.667 85 -159v-27l-16 -15h-159l-16 10h-100l-16 -10h-80l-21 21v26c0.666992 5.33301 22 14.333 64 27c17.333 20.667 26 45.334 26 74.001l-5 201c-8 0 -22.333 -24.667 -43 -74c-29.333 -35.333 -54 -53 -74 -53h-5l-11 11v21l11 10h10l16 -10
c21.333 38 32 68 32 90v48c0 34.667 -12.333 73.334 -37 116.001l21 16l43 -11h37l5 408v53c0 29.333 -21.333 56 -64 80v31zM180 1153c31.333 -13.333 47.333 -23.668 48 -31.001v-112c-49.333 -25.333 -74 -62.333 -74 -111v-26c0 -35.333 23 -70.666 69 -105.999v-64
l-11 -11c-70.667 34.667 -106 87.667 -106 159v32c0 52 21.333 108.667 64 170v47l-11 37zM509 1106l-11 -212v-27l-11 -16v-185h175c54 34 91 85.333 111 154v111c-36.667 109.333 -93 164 -169 164l-16 11h-79zM636 1021c60 0 95.333 -74.333 106 -223
c-8 -28 -22.333 -42 -43 -42c-17.333 -0.666992 -26 -6 -26 -16l5 -37l-16 -11h-100c-39.333 0 -59 5.33301 -59 16c52.667 0 104 42.333 154 127l16 75c0 23.333 -9 51.333 -27 84h-5c0 -10.667 -3.66699 -16 -11 -16h-10l-11 11v11c7.33301 14 16.333 21 27 21z
M546 469.996c0 -22.667 47.666 -44 142.999 -64c38.667 -20.667 58 -41.667 58 -63l-16 -11h-11l-15 16v11l5 5v5l-64 6h-5c-43.333 0 -85.666 -16 -126.999 -48h-5v122c0 5.33301 12.333 12.333 37 21z" />
    <glyph glyph-name="S" unicode="S" horiz-adv-x="1122" 
d="M575 1278c49.333 0 176.334 -15.6709 381.001 -47.0039c24.667 0 37 -12.333 37 -37c0 -166 -17.667 -249 -53 -249l-5 -6c-24.667 18 -37 44.667 -37 80c-56 60.667 -119.667 97.667 -191 111c-20.667 0 -34.667 3.66699 -42 11h-111l-112 -37l-42 -69v-101
c12.667 -29.333 34 -54 64 -74c89.333 -49.333 142.333 -74 159 -74c0 -10 37 -33 111 -69c37.333 -28.667 95.666 -64 174.999 -106c0 -7.33301 5 -11 15 -11c70.667 -59.333 106 -122.666 106 -189.999v-6c-2 -45.333 -39 -108.666 -111 -189.999l-106 -48
c-36.667 -14 -80.667 -21 -132 -21h-5l-16 -11h-196l-22 11l-196 10c0 7.33301 -5 11 -15 11c-70.667 0 -106 10.667 -106 32l-11 122l5 121l48 11c28 0 42 -23 42 -69c38.667 -74 97 -111 175 -111h48l16 -11h84c6 7.33301 25.667 11 59 11c95.333 30 143 61.667 143 95
l-6 6v5l6 21c0 50.667 -54.667 98.334 -164 143.001c-21.333 18 -64 39.333 -128 64c-72 36.667 -132 73.667 -180 111c-82.667 74.667 -126.667 136.334 -132 185.001l-5 6v74l42 106c7.33301 0 11 5.33301 11 16c94 116 226.333 174 397 174zM495.001 1045
c52.667 0 110.999 -19.333 174.999 -58h37l43 11l21 -21c-13.333 0 -27.666 -39 -42.999 -117c4 -34 14.667 -71 32 -111l27 5h5l11 -11v-15l-11 -11h-11c-31.333 0 -68.333 42.333 -111 127c-8 0 -23.667 10.667 -47 32v37c0 48.667 -35.333 77 -106 85h-6l-79 -16l-5 5v5
c0 35.333 21 53 63 53h5zM289 642.996h4.99902c34.667 0 71.667 -40.667 111 -122l53 -42v-38c0 -36.667 26.667 -63 80 -79h53c36.667 0 72 19.333 106 58l10 -31c0 -50 -37 -75 -111 -75h-26c-45.333 0 -96.666 17.667 -153.999 53l-37 6l-43 -16h-5l-21 21
c24.667 36.667 37 73.667 37 111v32c0 22 -10.667 52 -32 90l-26 -11l-11 16v16z" />
    <glyph glyph-name="T" unicode="T" horiz-adv-x="1169" 
d="M151 1263c44 -10.667 91.667 -15.9971 143 -15.9971l11 -11h440l16 11h233c20 -8 34 -22.333 42 -43v-5c-8.66699 0 -15.667 -56.667 -21 -170c21.333 -37.333 32 -86.666 32 -147.999l58 -63v-11l-111 -37c-45.333 -32.667 -75.333 -66.334 -90 -101.001v-5
c14 -2 21 -7.33301 21 -16v-11c-3.33301 -10 -14 -15 -32 -15l-11 31v11c0 26 16 73.667 48 143v26l-5 22c46 22 69 53.667 69 95c0 51.333 -35.333 93.666 -106 126.999l-64 5l-138 -5v-127l6 -191l-6 -190v-96c42.667 36.667 64 74 64 112v26c0 16 -12.333 51.333 -37 106
v95c0 10.667 16 19.667 48 27c56 -80 84 -143.667 84 -191v-63c0 -29.333 -21 -100 -63 -212v-32l10 -80h-5c-47.333 35.333 -81 53 -101 53v-5c8.66699 -6 14 -36 16 -90c13.333 -16.667 27.666 -27.334 42.999 -32.001v-26c0 -8 -9 -13.333 -27 -16l-116 5l-186 -5
c-20.667 3.33301 -31 8.66602 -31 15.999v21c2 10.667 16 16 42 16l21 58l-5 106l10 85l-5 21l5 254l-10 355h-154l-79 -21c-30.667 -18 -62.667 -49.667 -96 -95h-21l-21 31v37c18.667 43.333 36.334 112.333 53.001 207l5 5c0 10.667 7 16 21 16v6zM734 1061h101.001l5 -5
h5l-10 -64v-26c13.333 -63.333 25.666 -95 36.999 -95l10 10h11l11 -10v-16l-16 -16c-31.333 3.33301 -72 49.333 -122 138c-26 12.667 -40 23 -42 31v11l5 5l-11 27zM406.001 1051h10l11 -11v-191h-5c-16 0 -30.333 40.667 -43 122c0 35.333 9 62 27 80zM268.001 871.003
l11.001 -0.000976562c66.667 -16.667 100 -84 100 -202v-69l-42 11c-14 -5.33301 -21 -10.666 -21 -15.999v-10l5 -27h21l27 5c17.333 -68 35 -106.667 53 -116v-85h-6c-10 0 -40 33.667 -90 101c-87.333 60 -149 90 -185 90v10c81.333 0 137.666 60 168.999 180v38
c0 14.667 -7 35.667 -21 63l-21 -16l-16 16v11zM686.002 463.002v-48h6l10 11v21z" />
    <glyph glyph-name="U" unicode="U" horiz-adv-x="1215" 
d="M388 1390l26.999 0.000976562c41.333 0 94.333 -19.667 159 -59h31l68 16l16 -21c-24.667 -43.333 -37 -87.333 -37 -132c0 -24.667 10.667 -58.334 32 -101.001l26 5h6l10 -10v-11l-16 -16h-5c-28 0 -66.333 32 -115 96c-8.66699 22 -31.667 43 -69 63l5 27
c-11.333 63.333 -39.666 95 -84.999 95h-37c-52 0 -96 -24.667 -132 -74h-44c0 32.667 30.333 69.667 91 111zM446.999 1252l20.9971 -32v-5l-53 -53c-18 -56 -27 -105.333 -27 -148l6 -504c4.66699 0 13.334 -37 26.001 -111c24.667 -56.667 74 -85 148 -85h11
c36 0 60.333 9 73 27c16 0 69 38.667 159 116v48l-5 360l5 202c0 57.333 -14.333 94.333 -43 111c-17.333 12 -26 27.667 -26 47h-5c6.66699 16.667 13.667 25.667 21 27h319c24.667 0 37 -12.333 37 -37c-27.333 -20 -48.666 -43 -63.999 -69v-742l-5 -21l5 -21v-79
c12.667 -34 34 -60.667 64 -80l5 -5c10.667 0 16 -7 16 -21h5c-6.66699 -16.667 -13.667 -25.667 -21 -27h-276c-24.667 0 -37 12.333 -37 37v74h-6c-61.333 -61.333 -107 -94.666 -137 -99.999l-79 -27h-106l-16 11h-15c-76 0 -140 31.667 -192 95c-50 74 -80 143 -90 207
c-10.667 0 -16 116.333 -16 349v16l-16 6l-11 -22v-90h-10c-72 42.667 -123.333 64 -154 64v11c84.667 0 143 65.333 175 196v5c-3.33301 46 -14 72.333 -32 79l-11 -10h-10l-11 10v11l16 16h16c12.667 0 30.334 -9 53.001 -27l-5 37v37
c-12 25.333 -31.667 46.666 -59 63.999l-5 32l32 16h26l16 -11h43l16 11h38l16 -11h53l16 11h79zM424.996 743.001h21.999c62.667 -29.333 138 -103.333 226 -222c49.333 -32 81 -48 95 -48v-10c-42.667 0 -109.334 -39 -200.001 -117h-21c-37.333 0 -56.666 9 -57.999 27
l32 79l5 -5h21l21 26c0 18 -15.667 27 -47 27c-23.333 88 -51.666 132 -84.999 132l-11 16v95z" />
    <glyph glyph-name="V" unicode="V" horiz-adv-x="1210" 
d="M800 1438c18.667 0 30.998 -9 36.998 -27c-5.33301 -14 -10.666 -21 -15.999 -21h-6c-8.66699 0 -13.667 7 -15 21c-50 -20 -75 -67.667 -75 -143s28.333 -133.333 85 -174v-6l-95 11c-124 -8 -186 -38 -186 -90l-5 -37l5 -27v-5h-10c-21.333 79.333 -32 134 -32 164h16
c22.667 0 56.334 28.333 101.001 85h5l21 -16h21c10.667 3.33301 16 14 16 32v5c-3.33301 10.667 -14 16 -32 16h-21v5c53.333 138 115.333 207 186 207zM883.998 1242l223 -0.00292969c27.333 0 45 -10.667 53 -32c0 -20 -23 -32.333 -69 -37l-32 -21l-37 -69
c-7.33301 -46.667 -28.666 -112 -63.999 -196l-127 -307c0 -16 -7 -32 -21 -48v-5c32.667 -31.333 68 -52.666 106 -63.999v-10c-72 -14.667 -144.333 -69.667 -217 -165l-74 -148h-21l-6 5c-24 52.667 -61 114.667 -111 186c-22.667 32.667 -42 87.334 -58 164.001
c-51.333 106 -92 159 -122 159c-95.333 64 -143 138 -143 222c0 39.333 12.333 71.333 37 96c12 -7.33301 33 -58.666 63 -153.999l16 -16v6c-20.667 76.667 -54 172 -100 286c-36.667 60 -79 90 -127 90l-11 16v15l32 22h397l32 -32l-53 -80c0 -46 24.667 -136 74 -270
l117 -291h10l74 185c78 208.667 127.667 351.667 149 429c-18 16 -27 28.333 -27 37c5.33301 18 17.666 27 36.999 27zM285.998 801.997v-10h5v10h-5zM581.998 770.997l11 -0.000976562c49.333 -45.333 74 -75.666 74 -90.999c-7.33301 -31.333 -14.333 -47 -21 -47h-5z" />
    <glyph glyph-name="W" unicode="W" horiz-adv-x="1523" 
d="M956 1289l10.999 0.00390625c8 -3.33301 23.667 -28 47 -74c43.333 -44 89.333 -68.667 138 -74h5c0 10.667 7.33301 23 22 37c0 6.66699 -5.33301 10 -16 10l-6 6v31l11 11h302l21 -21c-8.66699 -24.667 -24.667 -37 -48 -37c-44 0 -89.667 -76 -137 -228l-80 -169v-6
c0 -42 47.667 -84.333 143 -127v-11c-48.667 0 -122.667 -51 -222 -153v10l58 154l-21 11c-62 -182 -124 -332.333 -186 -451c-12.667 -34 -32 -58.667 -58 -74h-5c-19.333 0 -54.666 49.667 -105.999 149l-95 164h-11l-212 -297h-26c-10 2 -27.667 49.667 -53 143
c-11.333 0 -39.666 67 -84.999 201l-111 313c-60 164.667 -99 283 -117 355c-15.333 17.333 -29.333 26 -42 26c-32 16 -48 26.667 -48 32v21l11 11h164l21 -5l21 5h74l27 -27v-5l-11 -16v-79c39.333 -90.667 81.666 -207.334 126.999 -350.001h6l16 80v10
c-10 49.333 -20.667 74 -32 74c0 -10 -3.66699 -15 -11 -15h-5l-16 15v6l16 16h16c57.333 0 90.666 -69 99.999 -207v-53l-10 -11l-32 11h-5l-6 -5h-5c6 -32 11.333 -48 16 -48l37 5v-5c0 -17.333 10.667 -54.333 32 -111h5c46 65.333 69 102.333 69 111
c0 11.333 -17.667 53.666 -53 126.999c-55.333 148.667 -97.666 223 -126.999 223c-22.667 14 -44 21 -64 21l-15 21v16c10.667 17.333 31.667 26 63 26l185 -5l22 -26l-11 -16v-16l80 -217l74 116l31 80c-17.333 0 -26 10.333 -26 31c0 25.333 12.333 38 37 38h185
c42.667 0 64 -7.33301 64 -22v-21c0 -6.66699 -7 -10 -21 -10c0 -10.667 -12.333 -19.667 -37 -27c0 -6.66699 -9 -10 -27 -10c0 -14.667 -8.66699 -22 -26 -22c0 -10.667 -14.333 -28.334 -43 -53.001c0 -8.66699 -33.333 -61.667 -100 -159l-27 -58l-5 -26
c0 -10.667 28.333 -67.334 85 -170.001c12.667 8.66699 42.667 75.667 90 201l95 218c53.333 113.333 80 184 80 212h-6l-21 -6h-16l-90 11l-63 -16c-24 24.667 -49 37 -75 37c-60.667 0 -103 -44 -127 -132v-11l16 -79c-16.667 -35.333 -29 -53 -37 -53h-10l-27 111
c0 102 67 179.667 201 233zM976.999 892.004h11c38.667 -5.33301 58 -12.333 58 -21l-16 -43h-100v5z" />
    <glyph glyph-name="X" unicode="X" horiz-adv-x="1153" 
d="M797 1247l15.999 -11h158c10.667 0 16 -7 16 -21h6c0 -16.667 -25 -32.667 -75 -48c-151.333 -276 -227 -419 -227 -429v-10c64.667 -120 108.667 -210.333 132 -271c56 -115.333 95 -178.666 117 -189.999c27.333 -39.333 66 -59 116 -59l27 -31l-22 -27h-386
c-10.667 3.33301 -16 14 -16 32v5l21 27v32l-116 243h-11l-127 -286l10 -32c-3.33301 -14 -10.333 -21 -21 -21l-296 -5c-14.667 5.33301 -22 10.666 -22 15.999v58c0 10 37.333 19 112 27c30 23.333 49.333 44.333 58 63v5h-5l-37 -16l-16 22c24.667 42.667 37 83 37 121v6
c0 27.333 -10.667 64.333 -32 111l-16 -11h-11l-15 16l15 22h6c33.333 0 72 -42.667 116 -128l21 -16h11c63.333 131.333 95 209.333 95 234l-196 407c-43.333 62 -85.666 97.333 -126.999 106l-16 16v21l11 11h350l15 -16l-21 -63c62 -133.333 101 -209.333 117 -228h5
l127 228v5l-21 32v31l11 11h90zM605.999 1114c21.333 -2 32 -7.33301 32 -16c-8.66699 -20.667 -15.667 -31 -21 -31h-91c-8 1.33301 -16.667 15.333 -26 42l5 5h101zM245.999 1003c28 -40 42 -71.667 42 -95v-6c0 -6.66699 -16 -12 -48 -16l-5 -26v-5
c0 -10.667 16 -16 48 -16c0 -66.667 42.333 -119.667 127 -159v-5c0 -26.667 -10.667 -55 -32 -85c-49.333 0 -125.333 74 -228 222c-50 35.333 -81.667 53 -95 53v11c41.333 0 105 42.333 191 127zM843.999 977c62.667 -56 130.001 -91.333 202.001 -106v-11
c-82 0 -138.667 -60 -170 -180v-37c0 -15.333 7 -36.666 21 -63.999l21 16l16 -16v-10l-16 -16h-10c-60.667 0 -94.334 70.667 -101.001 212l-5 42l11 16l37 -11c14 5.33301 21 10.666 21 15.999v21l-16 16h-5l-37 -5l-6 37v5c2.66699 22.667 15 47.667 37 75zM595 362h6
l16 -58c-41.333 -32 -84 -48 -128 -48h-5l-5 5h-6c0 25.333 30.333 48.333 91 69z" />
    <glyph glyph-name="Y" unicode="Y" horiz-adv-x="1107" 
d="M55 1236h349.999c17.333 0 70 -21 158 -63h43l42 10l11 -16c-19.333 -44.667 -31.666 -87 -36.999 -127l16 -74c28 32 73.667 99 137 201c-17.333 9.33301 -26 23.666 -26 42.999v15l10 11h218c38.667 0 58 -5.33301 58 -16v-21c-9.33301 -14 -32.333 -28 -69 -42
c-50 -60 -103 -141.333 -159 -244c-78.667 -130.667 -122.667 -196 -132 -196l5 -53l-5 -127v-281c13.333 -42 31 -63 53 -63l10 -43l-21 -16h-74l-16 11h-143l-16 -11h-58c-28.667 12 -43 21 -43 27c0 19.333 12.667 33.333 38 42l26 37v11l-74 16l-96 -16v5
c39.333 30.667 69.666 124.334 90.999 281.001c20.667 52 48.667 96 84 132v21l-180 276c-77.333 120 -126.666 187 -147.999 201c-46 16.667 -69 29 -69 37v16zM409.999 1157c0 -19.333 49.332 -107.668 147.999 -265.001c7.33301 0 11 -7 11 -21h10
c0 12.667 7.33301 23 22 31l15 32c-37.333 78 -70.666 117 -99.999 117v47c-8.66699 44.667 -35.334 71.334 -80.001 80.001h-10c-9.33301 0 -14.666 -7 -15.999 -21zM1040 1061l-0.000976562 -5c-59.333 -50.667 -103.333 -130 -132 -238
c-51.333 -89.333 -118.666 -149.666 -201.999 -180.999v43c92 69.333 138 138 138 206v6l-5 47c26 13.333 61.333 41.666 106 84.999zM144.997 981.998h10.999c60 0 120 -67 180 -201c-39.333 -7.33301 -59 -18 -59 -32c7.33301 -21.333 18 -32 32 -32l37 26l53 -74l-37 -47
c-35.333 14 -70.666 21 -105.999 21h-32l-90 -11v11c56.667 32.667 85 82 85 148v37c-8 81.333 -32.667 122 -74 122l-16 -16l-21 21c4.66699 18 17 27 37 27zM430.996 568.998l-11 -69v-16l11 -64h5v149h-5zM393.996 377.998c0 -21.333 12.333 -46.001 37 -74.001v-6h5v117
c-20 -11.333 -34 -23.666 -42 -36.999z" />
    <glyph glyph-name="Z" unicode="Z" horiz-adv-x="1128" 
d="M145 1252h21.0029l498 -5l275 5c38 0 66.333 -10.667 85 -32c0 -18.667 -28.333 -64.667 -85 -138c-10.667 -18 -19.334 -49.667 -26.001 -95c3.33301 -34 14 -71 32 -111l26 5h5l11 -10v-16l-11 -11h-10c-32 0 -69 42.333 -111 127h-6
c-90 -140 -155.333 -249.333 -196 -328c-56.667 -76 -118.334 -187.333 -185.001 -334v-11h429c27.333 0 57.333 21.333 90 64l21 16h11l21 -27v-37l-58 -132c-2.66699 -12.667 -31 -25 -85 -37h-53l-58 5l-85 -5c-395.333 0 -593 7 -593 21l-11 16v5
c7.33301 21.333 18 32 32 32c39.333 54 102.666 154.667 189.999 302l-95 32v10c85.333 0 142 65.333 170 196v16c0 30.667 -10.667 53.667 -32 69c0 -10.667 -3.66699 -16 -11 -16h-5l-16 16v5l21 22c42 0 72 -28.333 90 -85l6 -21c9.33301 7.33301 53.333 83 132 227
c10 0 26 30 48 90l10 11v5h-275l-32 6l-26 -6h-37c-27.333 -8 -54 -27.333 -80 -58c-4.66699 0 -11.667 -14 -21 -42l-27 -16l-26 21v48c0 36 5.33301 60.667 16 74v95c2 21.333 7.33301 32 16 32zM500.003 1072l68 0.000976562v-11c-10 -9.33301 -22.333 -46.333 -37 -111
l-47 -69c-14 26 -21 54.333 -21 85v21c0 27.333 12.333 55.666 37 84.999zM711.003 690.001c38 -20.667 82.332 -73.333 132.999 -158c36 -37.333 74.667 -62.333 116 -75v-10c-44 0 -107.333 -40.667 -190 -122h-90v5c23.333 30.667 41 66 53 106c31.333 0 47 9 47 27
c-5.33301 17.333 -15.666 26 -30.999 26l-16 -5c-8.66699 48 -31.667 94 -69 138z" />
    <glyph glyph-name="bracketleft" unicode="[" horiz-adv-x="906" 
d="M739 1795c19.333 0 32 -7 38 -21v-265c0 -18.667 -5.33301 -29.334 -16 -32.001c-20.667 0 -35 14.333 -43 43c-9.33301 12 -28.666 24.333 -57.999 37h-132l-6 5l-5 -5h-111c0 -10.667 -3.66699 -16 -11 -16l-5 -265v-1388l5 -27h106l16 -10l16 10h101
c66.667 5.33301 100 28.333 100 69l27 6l16 -16v-281l-32 -21c-6.66699 0 -17.334 14 -32.001 42c-26 24.667 -63 37 -111 37l-387 -5h-85c-18 0 -28.667 5.33301 -32 16v21c42.667 22.667 64 44 64 64l11 37l5 413c-12 0 -21 -26.667 -27 -80l11 -68v-53l-5 -53h-6
c-52.667 56 -79 114 -79 174c0 62 35.333 117 106 165v747c-70.667 58.667 -106 118.667 -106 180c0 56.667 26.333 111.334 79 164.001h6l5 -37v-80l-11 -58c7.33301 -49.333 16.333 -74 27 -74l-5 90v249l5 74l-11 42c-42 32 -63 58.667 -63 80l26 21h37l16 -10h74l16 10
h175l16 -10h159l63 15zM565 1541h74c21.333 -2.66699 32 -8 32 -16c-76.667 -102.667 -159.667 -154 -249 -154h-16v101l10 10h22c46.667 0 89 19.667 127 59zM586 1382l10 -15.998v-16l-10 -11h-11l-16 11c-20.667 -42.667 -31 -74.334 -31 -95.001v-27
c0 -30.667 12.333 -71.334 37 -122.001l-22 -10l-47 10h-16c-22.667 0 -47.334 -10.333 -74.001 -31l-6 5v42l22 69l-6 21c46 33.333 78 74 96 122c32.667 32 57.334 48 74.001 48zM400 333.002l11.001 0.000976562c21.333 -18 42.666 -27 63.999 -27h31l43 11l16 -21
c-24.667 -37.333 -37 -76.333 -37 -117v-10c0 -28 10.333 -65.333 31 -112h6c0 10.667 3.33301 16 10 16h11l10 -10v-21l-10 -11c-38 3.33301 -78.667 45.666 -122 126.999l-48 37v6l6 21l-22 53v58zM422.001 42.0029c90.667 0 171.667 -51.333 243 -154v-16h-100
c-44 42.667 -97 64 -159 64v95c0 7.33301 5.33301 11 16 11z" />
    <glyph glyph-name="backslash" unicode="\" horiz-adv-x="938" 
d="M280 1689v-21c-24.667 -8.66699 -37 -19.334 -37 -32.001l5 -53c84.667 -228 127 -349.667 127 -365h5l16 74c0 30.667 -8.66699 57 -26 79c-29.333 13.333 -56 59.333 -80 138l85 37c14 -2 21 -7.33301 21 -16l-10 -42v-37c38.667 -68.667 58 -127 58 -175
c0 -45.333 -10.667 -87.666 -32 -126.999c0 -16 56.667 -175 170 -477h5c40.667 34 63.667 58.667 69 74c-14 0 -21 5.33301 -21 16v5l21 16c14 -1.33301 21 -6.66602 21 -15.999v-16l-10 -47c-39.333 -56.667 -59 -90.334 -59 -101.001l207 -546
c30 -76.667 49.333 -115.334 58 -116.001c24 -87.333 52.333 -149 85 -185c43.333 -12 66.333 -24.667 69 -38c-11.333 -24.667 -38 -37 -80 -37l-164 6l-111 -6l-11 16v11c0 14 10.667 31.667 32 53v5c0 41.333 -16 90.666 -48 147.999l-180 493
c-24.667 80 -42.334 126 -53.001 138c-46 144.667 -74.333 222.334 -85 233.001c-38.667 127.333 -66.667 199.666 -84 216.999v-74l21 -53c15.333 0 38.333 -46 69 -138l-74 -37l-22 16l16 48v32c-38.667 66.667 -58 119.334 -58 158.001v43l21 100v6l-26 58
c-53.333 148.667 -92.333 244 -117 286c-33.333 107.333 -68.666 176.333 -105.999 207c-38.667 10.667 -58 19.334 -58 26.001v21l32 22h243l64 5zM767 301c78 -59.333 116.999 -123.002 116.999 -191.002l-6 -79c2.66699 -27.333 18.667 -55.666 48 -84.999v-10l-11 -11
h-26c-9.33301 7.33301 -30.666 53.333 -63.999 138l11 42v5c0 36.667 -16 70.334 -48 101.001c-26 15.333 -45.333 47 -58 95l5 6z" />
    <glyph glyph-name="bracketright" unicode="]" horiz-adv-x="951" 
d="M244 1731l64.002 -15h159l15 10h175l16 -10h74l16 10h37l27 -21c0 -21.333 -21.333 -48 -64 -80l-10 -42l5 -74v-249l-5 -90c10 0 18.667 24.667 26 74l-11 58v80l6 37h5c53.333 -52.667 80 -107.334 80 -164.001c0 -61.333 -35.333 -121.333 -106 -180v-747
c70.667 -48 106 -103 106 -165c0 -60 -26.667 -118 -80 -174h-5l-6 53v53l11 68c-6 53.333 -14.667 80 -26 80l5 -413l10 -37c0 -20 21.333 -41.333 64 -64v-21c-2.66699 -10.667 -13.334 -16 -32.001 -16h-84l-387 5c-48.667 0 -85.667 -12.333 -111 -37
c-14.667 -28 -25.334 -42 -32.001 -42l-32 21v281l16 16l26 -6c0 -40.667 33.667 -63.667 101 -69h101l16 -10l15 10h106l6 27v1388l-6 265c-6.66699 0 -10 5.33301 -10 16h-111l-6 5l-5 -5h-132c-29.333 -12.667 -49 -25 -59 -37c-7.33301 -28.667 -21.333 -43 -42 -43
c-10.667 2.66699 -16 13.334 -16 32.001v265c6 14 18.333 21 37 21zM493.002 1482h21.001l11 -10v-101h-16c-89.333 0 -172.333 51.333 -249 154c0 8 10.667 13.333 32 16h74c37.333 -39.333 79.666 -59 126.999 -59zM419.003 1334c18 -48 49.667 -88.6689 95 -122.002
l-5 -21l21 -69v-42l-5 -5c-27.333 20.667 -52 31 -74 31h-16l-48 -10l-21 10c24.667 50.667 37 91.334 37 122.001v27c0 20.667 -10.667 52.334 -32 95.001l-16 -11h-10l-11 11v16l11 16c16 0 40.667 -16 74 -48zM530.003 274.998l-21 -53.001l5 -21v-6l-47 -37
c-43.333 -81.333 -84 -123.666 -122 -126.999l-11 11v21l11 10h10c7.33301 0 11 -5.33301 11 -16h5c21.333 46.667 32 84 32 112v10c0 40.667 -12.333 79.667 -37 117l16 21l42 -11h32c20.667 0 42 9 64 27h10v-58zM525.003 30.9971v-95
c-62.667 0 -115.667 -21.333 -159 -64h-101v16c72 102.667 153.333 154 244 154c10.667 0 16 -3.66699 16 -11z" />
    <glyph glyph-name="asciicircum" unicode="^" horiz-adv-x="1024" 
d="M510 1798h14.999c36.667 -24 87.334 -98.333 152.001 -223c63.333 -90.667 140.333 -244.667 231 -462v-12c-4.66699 -13.333 -20.334 -20 -47.001 -20h-113c-39.333 0 -76.666 63 -111.999 189c-43.333 88 -70 132.667 -80 134l-181 -317l-7 -6h-219l-32 32v6
c148.667 306 279.667 532.333 393 679z" />
    <glyph glyph-name="underscore" unicode="_" horiz-adv-x="2000" 
d="M969 -338l-122.001 -2.00098v3h-365l-16 -8h-180v-4c24 -34 52 -51 84 -51h32c48 0 90.333 15.333 127 46h64l11 -7c-40.667 -49.333 -99 -74 -175 -74h-27c-43.333 0 -96.333 13 -159 39l-26 3h-5l-59 -7l-16 12l27 43h-11c-77.333 0 -116 -12 -116 -36l-16 -12h-21
l-27 17l5 66v168l32 24c21.333 -7.33301 32 -18 32 -32c12.667 -18.667 62 -28 148 -28l339 -3h64l16 -8h434v5l-26 54l16 9l42 -9h32c80 28.667 134.667 43 164 43h26c85.333 0 145.666 -26.333 180.999 -79v-3h-75c-35.333 32 -81 48 -137 48
c-57.333 0 -92.666 -21 -105.999 -63v-5h106l16 8h445v9l-6 27c36.667 9.33301 72 40.333 106 93c26 16 45.333 24 58 24h6c8 0 13.333 -6.66699 16 -20l-22 -11l-21 11c-20.667 -37.333 -31 -61.666 -31 -72.999v-9l10 -59h53c10.667 0 35.334 15.667 74.001 47l21 9
l22 -12l-6 -83l6 -121c-4 -39.333 -14.667 -59 -32 -59h-11c-6 0 -16.667 14.667 -32 44l-63 10l-408 9h-471l-16 8z" />
    <glyph glyph-name="grave" unicode="`" horiz-adv-x="796" 
d="M351 1809l-0.000976562 -37.999l-21 -84v-6l58 16c63.333 -122 134 -222.667 212 -302v-16c-39.333 -38.667 -67.666 -58 -84.999 -58l-48 48c-109.333 162.667 -224 244 -344 244v15c24.667 9.33301 37 18.333 37 27c32 2.66699 48 8 48 16c46 0 86.667 47.667 122 143
c-18 0 -27 5.33301 -27 16v5l21 21h6c14 -4.66699 21 -20.334 21 -47.001zM286.999 1544c0 -44.667 30 -87 90 -127c31.333 0 61.333 -25 90 -75v-5h-5c-58.667 0 -117 30 -175 90c-26 34.667 -45.333 80.667 -58 138l5 5z" />
    <glyph glyph-name="a" unicode="a" horiz-adv-x="1185" 
d="M567 1283h11c32 -0.666992 93.667 -127.667 185 -381c39.333 -84.667 96 -227.667 170 -429l74 -180c6 0 11.333 -9 16 -27c6 0 14.667 -10.667 26 -32c53.333 -28 80 -45.667 80 -53c0 -24.667 -23 -37 -69 -37h-175l-48 -5c-16 6.66699 -24.667 13.667 -26 21v21l32 37
v32c-20 22.667 -36 59.667 -48 111c-13.333 46 -27.333 69 -42 69c-8.66699 24.667 -16 37 -22 37h-264c-60 -140 -90 -226.333 -90 -259c17.333 -9.33301 26 -23.666 26 -42.999c-4.66699 -17.333 -17 -26 -37 -26h-265c-24.667 0 -37 12.333 -37 37v5l85 64
c25.333 32.667 55.333 105 90 217c6.66699 0 10 9 10 27c28.667 57.333 90.667 219.666 186 486.999c75.333 204.667 119.333 307 132 307zM414 1013h10c0 -37.333 -19.333 -60.333 -58 -69c-38.667 -38 -58 -82 -58 -132l21 -53l-32 -96h-5c-42.667 48.667 -64 100 -64 154
c0 78 47.667 139.667 143 185zM588 902c-42 -178 -66.667 -270 -74 -276v-10l59 5l100 -5v5c-24.667 67.333 -51 161 -79 281h-6zM843 775l4.99902 -0.000976562c50 -28.667 90.667 -43 122 -43l37 16c14 -5.33301 21 -10.666 21 -15.999
c-21.333 -54 -33.666 -96.333 -36.999 -127c3.33301 -34 14 -71 32 -111l26 5h6l10 -10v-16l-10 -11h-6c-36 0 -74.667 42.333 -116 127l-48 27v47zM609.999 731.999h10l21 -58c-12 -28 -20.667 -42 -26 -42h-64v10c0 18.667 19.667 48.667 59 90zM481.999 435.999
c17.333 0 57.999 -17.6699 121.999 -53.0029h48l32 10c14 -3.33301 21 -10.333 21 -21c-24.667 -49.333 -37 -84.666 -37 -105.999c6 -57.333 16.667 -99.666 32 -126.999l16 11h10c10.667 0 16 -7.33301 16 -22l-16 -21c-36 0 -76.667 44.333 -122 133l-47 26l5 27v10
c0 47.333 -35.333 77.333 -106 90v11c4.66699 14.667 13.334 25.334 26.001 32.001zM746.998 376.996l11 0.000976562c28 -28.667 42 -60.334 42 -95.001v-5c-46.667 -50 -80 -75 -100 -75l-11 43v21c38.667 38 58 75 58 111zM587.998 212.997c18 -18.667 27 -32.667 27 -42
c-26.667 -10.667 -65.667 -16 -117 -16h-63l-11 10v27l11 10h47z" />
    <glyph glyph-name="b" unicode="b" horiz-adv-x="1143" 
d="M647 1357l4.99902 0.000976562l21 -21c-32 -60 -63.667 -90 -95 -90v-5c84 -12 147.667 -31.667 191 -59c18 0 49.667 -30 95 -90l37 -111v-26c-21.333 -65.333 -48 -113 -80 -143c-13.333 -18.667 -36 -34.667 -68 -48v-5c126.667 -38 209.667 -96.333 249 -175
c20.667 -34 31 -71 31 -111v-22c0 -56.667 -22.667 -123.667 -68 -201c-7.33301 0 -11 -5.33301 -11 -16c-53.333 -46 -113.333 -72.333 -180 -79v-5l-143 -6h-202l-5 6l-5 -6h-5l-302 6l-11 31v6c0 6 21.333 20 64 42c17.333 16.667 26 43 26 79v64h-5l-64 -26l6 -27v-5
l-11 -11h-11l-16 16v16c24.667 37.333 58.334 67.333 101.001 90v233l-10 -11v-53c0 -42 -3.66699 -63 -11 -63c-74.667 46 -127.667 69 -159 69v5l69 32c63.333 56 95 109 95 159v37c0 26.667 -8.66699 46 -26 58l-11 -10h-10l-11 10v16c0 5.33301 7 10.666 21 15.999
c12 0 29.667 -7 53 -21v10l-10 127v32l5 48c0 38 -28.333 66.333 -85 85v26c3.33301 10.667 14 16 32 16h53l212 5v11l-11 42l16 16h5c36 -24.667 80.333 -37 133 -37c18 0 51.333 10.667 100 32l-10 16v10zM391.999 1135v-339h6c141.333 0 212 8.66699 212 26
c56 48 84 95.667 84 143v32c0 50.667 -45.667 96.667 -137 138h-165zM413.999 960.001h5l116 -69l38 -58c-14 -10.667 -30 -16 -48 -16h-16c-63.333 36 -95 57.333 -95 64v79zM402.999 653.001v-307l16 -53c30.667 0 60.667 -5.33301 90 -16l53 5l32 -5l143 21v16l-27 5h-16
c-14.667 -14 -32.334 -21 -53.001 -21h-53v10c60 42.667 90 99.334 90 170.001c0 39.333 -10.333 65.666 -31 78.999c0 -10 -3.66699 -15 -11 -15h-5l-16 15v6c1.33301 7.33301 10 14.333 26 21c62.667 0 98 -74.333 106 -223v-53h6c26.667 0 44.334 47.667 53.001 143
c0 74.667 -49.667 136.667 -149 186c-38 14 -89 21 -153 21h-64zM524.999 647.001c28 -2 42 -7 42 -15c-24.667 -33.333 -37 -65.333 -37 -96c0 -16 5.33301 -31.667 16 -47l-11 -22h-5l-106 43v16c0 56 7 84 21 84c28 0 54.667 12.333 80 37z" />
    <glyph glyph-name="c" unicode="c" horiz-adv-x="1232" 
d="M329 1294h16l11 -11v-16c0 -26.667 -33.667 -67.334 -101 -122.001c-14 -20 -22.667 -39.333 -26 -58c-70.667 0 -106 -31.667 -106 -95l16 -85c-10.667 -38.667 -19.667 -58 -27 -58c-24.667 42.667 -37 90.334 -37 143.001l32 127v5c0 27.333 -9 50.333 -27 69l16 27
c32 -14.667 67.333 -22 106 -22c42.667 0 85 19.667 127 59l-10 10v16zM727 1273c99.333 0 201.669 -21.334 307.002 -64.001h53l16 11l21 -22v-121c0 -81.333 -9 -122 -27 -122h-10c-20.667 6 -40 39.333 -58 100l-48 43c-70 28.667 -151.333 43 -244 43
c-136.667 13.333 -236 -40 -298 -160c-46 -81.333 -69 -152 -69 -212c0 -86.667 30.333 -203 91 -349c51.333 -63.333 102.666 -105.666 153.999 -126.999c3.33301 -8.66699 38.666 -19.334 105.999 -32.001l6 -6h127c120 21.333 180 46.333 180 75
c17.333 6.66699 26 17 26 31l27 11l26 -26v-38c-8.66699 -11.333 -21 -50 -37 -116c-68.667 -49.333 -187 -74 -355 -74c-107.333 0 -223.666 38.667 -348.999 116c0 8.66699 -19.667 23 -59 43c0 10.667 -5.33301 16 -16 16l-90 111h-5
c-28.667 -12 -53.334 -28 -74.001 -48l16 -16v-5l-16 -16h-11c-8.66699 0 -14 7 -16 21c0 30 25 63.667 75 101c6.66699 0 10 5.33301 10 16c-42 100.667 -63 185.334 -63 254.001v53c0 32 21 101 63 207c38 74.667 89.333 140 154 196c19.333 24.667 44 37 74 37
c90 46 174.667 69 254 69h59zM423.003 869.999c38 0 85.666 -17.667 142.999 -53l27 -5h26c12 0 24.667 5.33301 38 16c14 -7.33301 21 -16.333 21 -27c-24.667 -40.667 -37 -83 -37 -127c0 -20 10.333 -55.333 31 -106l16 11h11l16 -16v-6l-21 -21
c-35.333 8 -74.333 52.333 -117 133l-48 31l6 27c0 59.333 -44.333 93 -133 101h-5c4.66699 28 13.334 42 26.001 42zM455.002 551.999h16c162.667 0 269 -68.667 319 -206l58 -59v-5l-37 -5h-37c-60 0 -83.333 14 -70 42c-25.333 78 -76.333 117 -153 117h-16l-53 -6
c-24.667 41.333 -37 73.333 -37 96v16z" />
    <glyph glyph-name="d" unicode="d" horiz-adv-x="1277" 
d="M488 1262l127 -0.000976562c6 -6 52 -15 138 -27c87.333 -29.333 157.666 -66.333 210.999 -111c30.667 -24.667 59 -56.334 85 -95.001c9.33301 -26 25.333 -43.667 48 -53c13.333 -10.667 29.333 -16 48 -16h26c12 0 24.333 5.33301 37 16
c14 -7.33301 21 -16.333 21 -27c-24.667 -40.667 -37 -83 -37 -127c0 -20 10.667 -55.333 32 -106l16 11h10l16 -16v-5l-21 -21c-63.333 36 -95 71 -95 105h-5v-21l10 -16v-53c-6.66699 -4.66699 -13.667 -47 -21 -127l-48 -127
c-30.667 -75.333 -81.667 -147.666 -153 -216.999c-96.667 -56.667 -208 -85 -334 -85h-276l-180 -5c-16.667 0 -27 12.333 -31 37c0 14 15.667 26.333 47 37c18 27.333 27 57.333 27 90l-6 445c-14 -7.33301 -21 -16 -21 -26l6 -138h-11
c-27.333 62.667 -73.333 110.334 -138 143.001l-21 5v11c42.667 0 104.334 42.333 185.001 127v260c-13.333 36 -34.333 58.667 -63 68l-11 11v21l21 21l212 -10c99.333 6.66699 149 13.667 149 21zM398 1098l5.00098 -63.998l-11 -408l16 -127l-5 -26v-85l-5 -85
c0 -18.667 15.667 -34.667 47 -48h154l101 27c72 37.333 117.667 81.333 137 132c28.667 28 51.667 104 69 228v53c0 113.333 -35.333 212.333 -106 297c-38.667 51.333 -91.667 86.666 -159 105.999c-26.667 3.33301 -44.334 8.66602 -53.001 15.999h-169zM805.001 955.001
c12 0 22.667 -21.332 32 -63.999c-10.667 -18 -16 -35.667 -16 -53v-26c0 -32 21.333 -64 64 -96v-84c0 -18.667 -5.33301 -29.334 -16 -32.001c-88 70 -132 142.333 -132 217c0 44.667 22.667 90.667 68 138zM451.001 939.002l15 -20.999
c-10 -18.667 -15 -36.334 -15 -53.001c0 -18.667 17.667 -61 53 -127l10 -80c0 -70.667 -30 -125.334 -90 -164.001l-5 5v48l-6 26c32 24.667 48 49.334 48 74.001v64c0 22 -16 46.667 -48 74v48c0 70.667 10.667 106 32 106h6zM625.001 716.003l6.00195 -0.000976562
c74 0 111 -83 111 -249v-21h-5l-43 11c-14 -5.33301 -21 -10.666 -21 -15.999v-21l16 -16h5l37 5l16 -79c-22.667 -18 -40.334 -27 -53.001 -27h-5c-52.667 47.333 -116.334 79 -191.001 95v11c88.667 0 147 67 175 201v6c-9.33301 49.333 -20 74 -32 74l-16 -16l-16 16v10z
" />
    <glyph glyph-name="e" unicode="e" horiz-adv-x="1105" 
d="M197 1230l735.997 0.000976562c21.333 -16 32 -44.333 32 -85c-10 0 -19 -47.667 -27 -143l-32 -10c-35.333 56.667 -68.666 85 -99.999 85l-53 15l-270 6h-43v-207l11 -16v-90h259c28.667 28.667 48.334 43 59.001 43c19.333 0 33.333 -12.667 42 -38v-21l-10 -16v-132
c0 -18 -5.33301 -28.667 -16 -32h-22c-29.333 42.667 -59.333 64 -90 64h-233v-101l-5 -63l11 -122l-6 -37c7.33301 0 11 -10.667 11 -32c38.667 0 70.334 -7 95.001 -21h286c46 24.667 78 37 96 37c0 17.333 17.667 26 53 26l21 -16v-21c-10 -8.66699 -38.333 -58 -85 -148
c-12 -10.667 -33.333 -16 -64 -16h-376l-100 11l-196 -6c-26 0 -45.667 9 -59 27v10c56.667 44 85 137.667 85 281l11 11v127l5 74l-5 5v6l5 31v27c-14 0 -21 -21.333 -21 -64v-58c-88 42.667 -139.333 64 -154 64h-5v5l5 5c106 41.333 159 110.333 159 207
c0 38.667 -10.667 65 -32 79c0 -10.667 -3.33301 -16 -10 -16h-5l-16 16v5c1.33301 7.33301 10 14.666 26 21.999l37 -11v5l-5 175c-32 0 -48 12.333 -48 37c2.66699 10.667 17 16 43 16zM471.997 642.001l85 0.000976562l10 -10v-48c0 -16.667 10.667 -48.334 32 -95.001
l16 10h11l10 -10v-16l-10 -11h-6c-34.667 0 -71.667 40.667 -111 122l-53 42zM466.997 473.002c86 0 167.001 -55 243.001 -165v-15c-72.667 0 -125.334 15.667 -158.001 47c-60.667 15.333 -91 26 -91 32l-5 69z" />
    <glyph glyph-name="f" unicode="f" horiz-adv-x="1061" 
d="M181 1225l31.999 0.00390625c56 0 89.667 -5.33301 101 -16h243l16 11h58l181 5l127 -5c0 -7.33301 10.333 -11 31 -11l16 -21v-43l-10 -15v-101c0 -28.667 -12.333 -46.334 -37 -53.001c-23.333 12.667 -37.666 32 -42.999 58c-5.33301 0 -10.666 7 -15.999 21
c-31.333 3.33301 -47 8.66602 -47 15.999l-350 11v-5l5 -53l-10 -249h228c11.333 0 32.333 14 63 42h16c14 0 21 -24.667 21 -74c0 -94 -8.66699 -152.333 -26 -175h-16c-30.667 46 -66 69 -106 69h-196l-5 -80v-21c0 -229.333 14 -344 42 -344c24 0 41.667 -10.667 53 -32
v-21c-2 -10.667 -16 -16 -42 -16h-53c-30 0 -51.333 5.33301 -64 16h-143l-16 -11h-58l-21 -5c-18.667 0 -29.334 12.333 -32.001 37c0 15.333 21 27.666 63 36.999l38 43v153c-28.667 42.667 -43 85 -43 127c0 46.667 21.333 91 64 133l5 286
c0 144.667 -19.333 217 -58 217c-20.667 11.333 -35 23.666 -43 36.999v16c4 10.667 14.667 16 32 16zM122.999 1130h5c60 -6 90 -20.333 90 -43c7.33301 -14 11 -33.333 11 -58v-27c-49.333 -17.333 -74 -43.666 -74 -78.999v-16c0 -62.667 23 -110.334 69 -143.001v-64
l-6 -5v-5c-74 42 -111 110.667 -111 206v11c0 18.667 10.667 61 32 127v11l-21 69zM742.999 1061c45.333 0 82.333 -9 111 -27l-5 -26l5 -27c-32 -15.333 -55 -36.333 -69 -63c-31.333 -64 -63 -96 -95 -96h-6l-10 11v16l10 10h11l16 -10c21.333 44 32 81 32 111v11
c0 30 -7.33301 58 -22 84l6 6h16zM535.999 626.004l111.001 -5l6 -5c-10.667 -23.333 -16 -48 -16 -74v-27c13.333 -63.333 25.666 -95 36.999 -95l10 10h11l11 -10v-16l-16 -16c-32 3.33301 -72.667 49.333 -122 138c-26 12.667 -40.333 23 -43 31l6 22l-11 37z
M208 351.004v-37l-59 -37v-6c10.667 0 16 -3.33301 16 -10v-11l-16 -16h-10l-16 16c0 38 26.333 71.667 79 101h6z" />
    <glyph glyph-name="g" unicode="g" horiz-adv-x="1269" 
d="M700 1251l143 -0.00292969c6 -7.33301 62.667 -21.666 170 -42.999l21 -10h53c18.667 0 31 -7 37 -21v-149c-7.33301 -6.66699 -12.666 -29.667 -15.999 -69l-5 -5h-27l-53 64c-76 60 -162.333 93.333 -259 100l-6 6h-21c-8 -7.33301 -39.667 -14.666 -95 -21.999
c-64 -34.667 -118.667 -87.334 -164 -158.001c-46 -93.333 -69 -181.666 -69 -264.999v-27c0 -72 26.333 -151.333 79 -238c37.333 -49.333 99.333 -93.666 186 -132.999l84 -21c31.333 3.33301 65 12.333 101 27v37h11l5 169c-2 88.667 -19.667 133 -53 133
c-2 14 -16.333 21 -43 21h-37c-52 0 -83.667 -31.667 -95 -95l5 -27c-32 -15.333 -55 -36.666 -69 -63.999c-11.333 -28 -25.333 -49 -42 -63h-5c-8.66699 0 -14 7 -16 21c14 26 21 54.333 21 85v10c0 31.333 -12.333 72 -37 122l21 16c18 -10.667 35.667 -16 53 -16
c18.667 0 63 17.667 133 53l47 6h27l85 -11h248c19.333 0 32 -7 38 -21v-32l-38 -21l-26 -74v-106l-5 -249c-84 -32 -137 -48 -159 -48l16 -48h5l16 11h5l16 -16v-11l-16 -15c-24 0 -54 24.667 -90 74h-5l-16 -11h-223l-90 21c0 6 -33.333 18.333 -100 37
c-74.667 38.667 -122.334 74 -143.001 106c-102.667 122.667 -154 250 -154 382c0 45.333 14 110.666 42 195.999c0 96.667 85 202.667 255 318c82 42 158 63 228 63h10zM737 1102l11 -9.99902c0 -28 -10.667 -74 -32 -138c0 -18.667 8.66699 -45 26 -79
c-5.33301 -14.667 -10.666 -22 -15.999 -22c-30.667 14.667 -62.334 22 -95.001 22c-36.667 0 -82.667 -17.667 -138 -53l16 -22v-10l-10 -11h-21l-11 11c0 35.333 38.667 86.666 116 153.999c0 28 19.667 42 59 42c42 25.333 63 62.333 63 111l6 5h26zM123 445.998h5.00098
c33.333 0 65 -32 95 -96c46 -50.667 69 -84 69 -100c14 -56.667 40.667 -85 80 -85h58c29.333 -21.333 48.666 -32 57.999 -32v-11l-63 -10c-52 0 -110.333 19.333 -175 58h-48l-42 -10l-11 15c21.333 52 32 91 32 117v32l-27 90h-5l-16 -11h-5l-16 16v16zM674.001 386.998
c51.333 0 109.334 -19.332 174.001 -57.999h6v-5c0 -9.33301 -21.333 -20 -64 -32c-18.667 32 -54 48 -106 48l-48 -11c-26.667 13.333 -42.334 25.666 -47.001 36.999v5z" />
    <glyph glyph-name="h" unicode="h" horiz-adv-x="1268" 
d="M170 1241h79c14 -10.667 35.333 -16 64 -16l164 5l11 11l31 -27c0 -21.333 -21 -40.666 -63 -57.999c-7.33301 -54 -11 -142.333 -11 -265v-37c40.667 0 83 12.333 127 37l-10 32l16 11h10l16 -16c0 -38 -37 -75.333 -111 -112l-5 -5v-5h53l270 -11h37l5 -5h5v111l11 16
v79c0 112.667 -19.333 176.334 -58 191.001l-16 16v21l5 6l16 5v5l159 -5h164c21.333 -2 32 -7.33301 32 -16v-21c-46 -28.667 -69 -55.334 -69 -80.001v-217c28 -89.333 42 -163.333 42 -222v-27c0 -79.333 -15.667 -139.333 -47 -180h-6l6 223l-6 26h-5l-5 -101
c-7.33301 0 -11 -5.33301 -11 -16l6 -137l-6 -122c6 0 15 -37 27 -111l10 -22l43 -37v-10c-14.667 -21.333 -37.667 -32 -69 -32l-281 5l-26 32c49.333 38.667 74 68.667 74 90l5 27l-5 58l5 244v37h-122l-16 10h-280v-21l5 -154l-5 -158v-16
c6.66699 -7.33301 12 -30.333 16 -69c32 -14 49.333 -28.333 52 -43c-6.66699 -16 -13.667 -24.667 -21 -26h-31c-70.667 0 -116.667 3.66699 -138 11l-32 -6h-53l-74 -5l-21 16v26c46 29.333 69 94.666 69 195.999v308l10 15v286c-10.667 127.333 -23 191 -37 191
s-24.667 14.333 -32 43zM186 1077l4.99902 -75l-16 -53v-31l16 -90v-75c0 -77.333 -7 -116 -21 -116c0 30 -24.667 95.333 -74 196l-11 74c16.667 113.333 50.334 170 101.001 170zM836.999 1077l6 -0.000976562l5 -53v-80l-85 -42c-26 -28.667 -43.667 -60.667 -53 -96h-11
c-60 0 -90 7.33301 -90 22c0 54.667 69 130.334 207 227.001zM608.999 604.999l117.001 0.000976562l11 -11c-6.66699 -0.666992 -28 -32.334 -64 -95.001c-62.667 -63.333 -124.334 -95 -185.001 -95h-22l-5 5h-5c0 49.333 7 74 21 74c56 0 96.667 35.333 122 106
c0 10.667 3.33301 16 10 16zM821 414c7.33301 -13.333 10.999 -32.667 10.999 -58v-42l-11 -11c-41.333 24.667 -74.666 37 -99.999 37h-32c-30 0 -53 -10.667 -69 -32l16 -15l-16 -16h-11l-15 16v15c0 60 75.667 95.333 227 106z" />
    <glyph glyph-name="i" unicode="i" horiz-adv-x="762" 
d="M288 1744l26.999 -0.000976562c26.667 0 54.667 -28.333 84 -85c18 -57.333 27 -122.666 27 -195.999v-32h-5l-43 11c-21.333 -2 -32 -7.33301 -32 -16v-26c7.33301 -14.667 16.333 -22 27 -22l37 11l32 -106l-5 -5h-85c-93.333 63.333 -160.666 95 -201.999 95v5
c0 8.66699 14.333 14 43 16c102 57.333 153 135 153 233c0 36.667 -12.333 67 -37 91c0 -10.667 -3.33301 -16 -10 -16h-11l-16 16v10zM192.999 1230l90.001 -4.99902h217c24.667 0 37 -12.333 37 -37l-47 -37c-18 0 -27 -47.667 -27 -143v-69l-11 -16v-69l-5 -58l5 -69v-80
l-5 -26l5 -32v-196l-5 -32l5 -15l-5 -96c0 -19.333 9 -37 27 -53c28 -14.667 42 -32.334 42 -53.001l-11 -21l-111 5l-164 -5c-38 0 -64.667 9 -80 27v21c0 6.66699 16 13.667 48 21c14 12.667 21 49.667 21 111v58l-42 -10c-8.66699 0 -14 7 -16 21
c24.667 42.667 37 85 37 127c0 20 -10.667 55.333 -32 106l-16 -11h-10l-16 16v6l21 21c56.667 -30 85 -60 85 -90h5l6 100l-6 408c-2.66699 78 -18.334 117 -47.001 117l-22 16c0 21.333 9 35.333 27 42zM495 1071l32 -10.001h42l32 10c14 -3.33301 21 -10.333 21 -21
c-24.667 -44 -37 -86.333 -37 -127c0 -23.333 10.667 -58.666 32 -105.999l16 11h10c10.667 0 16 -7.33301 16 -22l-16 -21c-34 0 -67.667 33.667 -101 101c0 7.33301 -21 28.333 -63 63l5 32l-5 5l5 38v37zM214 1066l5 -5v-6l-5 -121l5 -191h-5
c-56.667 56.667 -85 115 -85 175c0 48 28.333 97.333 85 148zM474 742.999h5c116.667 -66 175 -145.667 175 -239c0 -67.333 -44.333 -127.333 -133 -180l-47 -16l-6 6v37c67.333 39.333 101 83.333 101 132v27c0 37.333 -30 74.333 -90 111l-5 48v74z" />
    <glyph glyph-name="j" unicode="j" horiz-adv-x="619" 
d="M158 1222h74l16 -5l27 5h185l16 -16v-21l-69 -58v-111l-10 -16l10 -22l11 -418v-138c0 -202 -35.333 -320.333 -106 -355c0 -20 -42.333 -62.333 -127 -127c-55.333 -24.667 -112 -37 -170 -37l-21 16v21c36.667 28 68.334 47.333 95.001 58c64 48.667 96 93 96 133v101
c14 23.333 21 78 21 164v196c-92 70.667 -138 146.667 -138 228v5c0 48 32 99 96 153l10 -52l-26 -106c0 -34.667 17.667 -64.667 53 -90l-6 105l6 271c-10.667 26.667 -30.334 46 -59.001 58l-26 21v21c2 10.667 16 16 42 16zM545 973l16 -20.999
c-24.667 -42.667 -37 -81.667 -37 -117v-26c0 -16.667 10.667 -48.334 32 -95.001l15 10h11l11 -10v-16l-11 -11h-5c-34.667 0 -72 40.667 -112 122l-37 37l6 117l5 5c14 -7.33301 33.333 -11 58 -11z" />
    <glyph glyph-name="k" unicode="k" horiz-adv-x="1163" 
d="M701 1233l85.001 -0.000976562l16 -11l10 11h186l26 -32c-6 -21.333 -18.333 -32 -37 -32c-52.667 0 -130.334 -70.667 -233.001 -212l-64 -90c-48 -55.333 -88.333 -108.333 -121 -159c16 -32.667 83 -117.334 201 -254.001c67.333 -82 127.333 -142 180 -180
c30.667 -38 66 -59.333 106 -64l5 -5c10.667 0 16 -7 16 -21h5l-16 -53l-116 11l-138 -6h-32l-5 6l-5 15h-5l5 6v26c-7.33301 30.667 -35.666 67.667 -84.999 111c-71.333 60 -138.333 136 -201 228c-18.667 36.667 -43.334 68.667 -74.001 96l10 -181v-201l64 -69v-21
c0 -14 -39 -21 -117 -21h-222l-21 21v21c42 21.333 63 48 63 80v169l11 11l-6 85l6 106l-27 -27h-5v-95h-5c-72 42 -123.333 63 -154 63v11c84.667 0 143 65.333 175 196v5c-3.33301 46.667 -14 73.334 -32 80.001l-11 -11h-10l-11 11v10l16 16h16
c12 0 24.333 -5.33301 37 -16v164c0 78 -7 117 -21 117l-48 37v27l11 10h339l10 -10v-22l-63 -63v-64c0 -99.333 5.33301 -191 16 -275h5c138 176.667 228 298.334 270 365.001l-32 37v22zM563.001 1016h11c0 -29.333 -30 -56 -90 -80c-21.333 -24 -32 -40 -32 -48h-11v16
l-5 64c40.667 32 83 48 127 48zM828.001 972.999l16 -20.999c-24.667 -43.333 -37 -87.333 -37 -132c0 -24.667 10.667 -58.334 32 -101.001l26 5h5l11 -10v-11l-16 -16h-5c-30.667 2 -67.667 42.667 -111 122l-43 37c49.333 84.667 90 127 122 127z" />
    <glyph glyph-name="l" unicode="l" horiz-adv-x="962" 
d="M477 1238l16.001 -21v-21c-0.666992 -7.33301 -18.334 -18 -53.001 -32c-8.66699 -13.333 -16 -40 -22 -80l-5 -5v-5l5 -154l-5 -111h5l6 -5h5l11 143h5c42 -38.667 63 -84.667 63 -138c0 -48 -28 -106.333 -84 -175v-270c0 -35.333 8.66699 -58.333 26 -69l90 -16h43
c151.333 0 227 19.667 227 59l32 26h5c32 -15.333 48 -33 48 -53c-33.333 -106 -65 -159 -95 -159l-21 -10h-636l-27 26c0 6.66699 19.667 26 59 58l16 37v122l-11 16v535c0 148.667 -8.66699 223 -26 223l-43 42v21l11 11h222zM37.001 973l53 -16l69 16v-122
c-38 -31.333 -73.333 -77 -106 -137c-24 -18 -41.667 -27 -53 -27h-5l-11 11v16l16 16l21 -16c21.333 46 32 83 32 111v10c0 31.333 -12.333 72 -37 122zM625.001 714l11 -11.001v-16l-11 -10h-11l-16 10l-21 -53v-32c0 -87.333 47.667 -150.666 143 -189.999l22 -6v-10
c-64.667 -12.667 -126.667 -44.667 -186 -96h-10l-53 6v5l26 101l32 -11h5l16 16v32l-26 5l-32 -11l-11 22c0 138 30 221 90 249h32z" />
    <glyph glyph-name="m" unicode="m" horiz-adv-x="1407" 
d="M1052 1265c32.667 0 52.332 -33.667 58.999 -101c6 -67.333 25.333 -101 58 -101l21 -5h27c11.333 0 23.666 5.33301 36.999 16c14 -7.33301 21 -16.333 21 -27c-24.667 -40.667 -37 -83 -37 -127c0 -20 10.667 -55.333 32 -106l16 11h10l16 -16v-5l-21 -22
c-43.333 14 -80.333 58.333 -111 133l-22 69h-5c10.667 -76 16 -141.333 16 -196l11 -11v-5c0 -77.333 17.667 -229.333 53 -456v-21c6.66699 0 10 -12.333 10 -37c4.66699 0 8.33398 -10.667 11.001 -32c8 0 16.667 -7 26 -21c24.667 0 37 -12.333 37 -37v-5l-21 -21h-233
l-48 -6c-17.333 6 -26 16.667 -26 32c0 14 8.66699 28 26 42c4 26.667 9.33301 44.334 16 53.001v96l-10 21l-11 159c-10 0 -17 61.667 -21 185c-7.33301 0 -11 5.33301 -11 16h-5c-59.333 -140.667 -126.333 -282 -201 -424l-74 -143c0 -14 -5.33301 -21 -16 -21h-22
c-88 132.667 -179.667 332.334 -275 599.001h-5v-11l-6 -191l-10 -10v-21l-5 -271l37 -63v-16c-4 -10.667 -14.667 -16 -32 -16h-207l-21 -5c-24.667 6 -37 13 -37 21c0 15.333 14 34.666 42 57.999l6 32v69c0 37.333 8.66699 108 26 212v5h-5
c0 -6.66699 -10.667 -20.667 -32 -42l16 -16c-9.33301 -26.667 -18.333 -41 -27 -43c-62.667 35.333 -106.667 53 -132 53v11c88.667 0 147 67 175 201v6c-9.33301 49.333 -20 74 -32 74l-16 -16l-16 16v10l16 16h5c28 0 54.667 -17.667 80 -53
c6.66699 95.333 13.667 143 21 143c4.66699 124 11.667 186 21 186c2.66699 112.667 13.334 169 32.001 169h5c22.667 0 44 -23 64 -69c48 -67.333 101 -178.333 159 -333c14.667 -60 48 -90 100 -90h11l48 15l16 -21c-24.667 -42.667 -37 -86.667 -37 -132
c0 -24.667 10.333 -58.334 31 -101.001l27 6h5l5 -6h6c109.333 240 187 418.333 233 535l85 196zM946.998 1100c-5.33301 -24.667 -26.667 -61.667 -64 -111l-58 -180h-6c-12 0 -24.333 35.333 -37 106c0 77.333 51.333 141 154 191h11v-6zM1222 645
c74 -56.667 111 -109.666 111 -158.999v-16c0 -66.667 -23 -121.334 -69 -164.001l-10 42l5 122c-32 63.333 -48 111 -48 143v26l6 6h5zM654.997 518.001l-0.000976562 -6l21 -53h16l6 37c-13.333 0 -27.666 7.33301 -42.999 22zM829.996 364.001
c28 -42.667 86.332 -64.001 174.999 -64.001l5 -5v-5c-3.33301 -24.667 -8.66602 -37 -15.999 -37c-127.333 18.667 -191 43.334 -191 74.001c9.33301 22.667 18.333 35 27 37z" />
    <glyph glyph-name="n" unicode="n" horiz-adv-x="1305" 
d="M848 1259l322.999 -0.000976562l26 -32c0 -5.33301 -26.333 -24.666 -79 -57.999c-14 -39.333 -21 -72.666 -21 -99.999l5 -345l-5 -106c6.66699 1.33301 17 17.333 31 48v85c0 5.33301 33.667 17.666 101 36.999l5 5l6 -5c-28.667 -28.667 -43 -133 -43 -313
c-18 -58.667 -41 -104.334 -69 -137.001l-5 15l5 170l-26 79h-5v-164l5 -143h-5l5 -5v-127l11 -16c-5.33301 0 -10.666 -7 -15.999 -21l-6 -6h-21c-18 0 -164.333 146.667 -439 440l-128 138l-116 132c-10.667 0 -16 7 -16 21h-11v-16h11v-5l-11 -16v-95h6
c4 40.667 12.667 63.667 26 69l32 -32l-5 -53c15.333 -92 54 -138 116 -138l48 6h10l69 -80v-10l-74 -11c-102 0 -174.333 44 -217 132l-5 43h-6l-5 -329c0 -63.333 12.333 -95 37 -95c12.667 0 27 -9 43 -27v-10l-27 -32h-318c-7.33301 1.33301 -14.333 10.333 -21 27
c0 16 16 31.667 48 47l5 6c0 6.66699 5.33301 10 16 10l10 249v16l11 16v26l5 392l-5 170c0 95.333 10.667 143 32 143h10l228 -244l101 -111c40 0 73.667 28.333 101 85l5 5h10l43 -85c42.667 -52.667 88.667 -79 138 -79c0 14 3.33301 21 10 21h11l16 -16v-10
c0 -12 -23 -21 -69 -27l-96 21h-21l-47 -10c-23.333 28 -39.333 42 -48 42v-5l132 -159c56 50.667 103.667 80.667 143 90c7.33301 -25.333 11 -60.666 11 -105.999c-46 -30 -69 -58.333 -69 -85l85 -90v5l5 265l-11 350c-8 0 -13 23 -15 69l-53 32l-6 5v26
c2.66699 10.667 17 16 43 16z" />
    <glyph glyph-name="o" unicode="o" 
d="M611 1254l120.002 0.00292969c8.66699 -7.33301 38.667 -14.333 90 -21l6 -6c105.333 -36.667 184.666 -102 237.999 -196c32 -38.667 65.667 -111 101 -217c0 -24.667 3.33301 -40.334 10 -47.001v-138c-6.66699 0 -11.667 -35.333 -15 -106
c-29.333 -107.333 -56 -167.333 -80 -180c-37.333 -69.333 -101 -126 -191 -170c-28 -26 -98.333 -45.333 -211 -58l-62 -5c-67.333 0 -157.333 35.333 -270 106c-84 59.333 -135.333 126.333 -154 201c-35.333 108.667 -53 213 -53 313v26l11 16v21
c0 47.333 14 98.666 42 153.999l-11 10h-5l-37 -5c-16.667 39.333 -53.667 71 -111 95c-32 31.333 -48 54.333 -48 69v6c0 8 8.66699 13 26 15l16 -21l-10 -21c39.333 -21.333 76.333 -32 111 -32c33.333 0 75.666 12.333 126.999 37l16 -21l-11 -32
c72 85.333 146.333 143.666 223 174.999c68 11.333 112 22 132 32zM384.002 740.003l-0.000976562 -79.001c0 -165.333 40.333 -276.666 121 -333.999c58.667 -60 118.334 -90 179.001 -90c50.667 4 103.667 32.333 159 85c60 78 90 178.667 90 302v53
c0 88.667 -16 178.667 -48 270c0 43.333 -28.333 89 -85 137c-46 21.333 -103.667 32 -173 32c-104 0 -176.333 -58.333 -217 -175c-17.333 -45.333 -26 -112.333 -26 -201zM869.001 910.002l11 -16.001v-21c0 -7.33301 -23 -16.333 -69 -27
c-46 -37.333 -69 -81.333 -69 -132v-6c0 -52.667 44 -95 132 -127l-5 -5v-5c0 -10.667 10.667 -16 32 -16v-16c-8 -70.667 -18.667 -106 -32 -106c0 8.66699 -44 44 -132 106c-69.333 57.333 -104 112 -104 164v21c0 60.667 54 117.334 162 170.001
c23.333 10.667 48 16 74 16zM113.001 677.001l6 -0.000976562c8 0 13.333 -26.667 16 -80c-18 -32 -27 -63.667 -27 -95c0 -48 24.667 -87 74 -117c0 -8.66699 17.667 -38.667 53 -90v-5l-90 -32c0 -7.33301 -8.66699 -11 -26 -11l-11 16l11 43v26l-53 127l-6 69
c0 46.667 17.667 96.334 53 149.001zM516.001 608l16 -0.000976562c57.333 0 91 -69 101 -207v-53l-11 -10l-32 10c-17.333 0 -26 -8.66699 -26 -26l5 -16h-5c-9.33301 0 -29 17.667 -59 53c39.333 48.667 59 96.334 59 143.001v10c-9.33301 49.333 -20 74 -32 74
c0 -10 -3.66699 -15 -11 -15h-5l-16 15v6z" />
    <glyph glyph-name="p" unicode="p" horiz-adv-x="1089" 
d="M535 1243l63.999 -0.000976562c143.333 0 256.333 -40.333 339 -121c31.333 -50 47 -96 47 -138v-43c0 -80.667 -26.333 -158.334 -79 -233.001c-89.333 -84.667 -193.666 -127 -312.999 -127h-5c-68 0 -106.667 17.667 -116 53v16c0 7.33301 10.333 12.666 31 15.999
l43 -16c89.333 27.333 145.666 64.333 168.999 111c21.333 36.667 32 84.334 32 143.001v16c0 43.333 -16 91 -48 143c-25.333 35.333 -76.333 53 -153 53h-53c-32 0 -48 -12.333 -48 -37v-58l-11 -16v-705c6 -15.333 48.667 -38 128 -68c28 -21.333 42 -41 42 -59
c-3.33301 -10.667 -14 -16 -32 -16l-10 22l5 21l-85 16l-16 -6v-5c18.667 0 33 -10.667 43 -32v-10l-22 -21h-127l-16 10h-79l-16 -10h-122l-21 21v26l64 32c17.333 32 26 62 26 90v111l5 196h-10l-21 -116c-72 42 -123.333 63 -154 63v11
c76.667 0 133.334 58.333 170.001 175v42c0 28 -9 49.333 -27 64l-11 -11h-10l-11 11v10l16 16h16c12.667 0 26.667 -7 42 -21v32c-12 10.667 -45.333 26.334 -100 47.001c-28.667 20.667 -43 40.334 -43 59.001c4 10.667 14.667 16 32 16l11 -22l-6 -21l85 -16l32 6v159
c0 6 -28.333 32.333 -85 79v11h-5c4.66699 17.333 10 26 16 26l222 -5zM651.999 1074h5.00098c38.667 -32 58 -58.667 58 -80h-47c-54 0 -86 -47.667 -96 -143c0 -36.667 26.667 -79 80 -127c-20 -25.333 -41.333 -39.333 -64 -42c-46 40.667 -69 86.667 -69 138v26
c0 75.333 39 144.333 117 207c5.33301 14 10.666 21 15.999 21zM668 570.999l5 -6h5c0 -38.667 -40.667 -95 -122 -169c-8 -60 -16.667 -90 -26 -90h-5l-69 63v96l10 16l43 -16h26c40 0 71.667 33.333 95 100z" />
    <glyph glyph-name="q" unicode="q" horiz-adv-x="1306" 
d="M709 1259c78 0 152.333 -21.002 223 -63.002c86.667 -46 148.334 -115 185.001 -207c39.333 -90 59 -178.333 59 -265v-90c0 -94 -40.667 -201.667 -122 -323c-11.333 -20 -36 -41.333 -74 -64l-6 -5v-5c230 -154 394.333 -240.667 493 -260
c5.33301 -5.33301 47.666 -12.333 126.999 -21l5 -5h165l21 10c78 0 169.667 16 275 48h16l21 -32c-43.333 -42 -80.333 -63 -111 -63l-275 -64l-6 -5h-201c0 6.66699 -35.333 12 -106 16l-159 53c-100 50.667 -204 112.334 -312 185.001c-40 24.667 -82.333 44 -127 58
c-54.667 -17.333 -104.334 -26 -149.001 -26h-32c-40.667 0 -111 17.667 -211 53c0 8 -19.667 20.333 -59 37c0 10.667 -7 16 -21 16l-64 63v6h-15c-31.333 -19.333 -52.666 -37 -63.999 -53c10.667 0 16 -3.66699 16 -11v-21l-27 -5l-10 10v11c0 32.667 19.333 68 58 106
l-53 85c-24.667 94.667 -37 160 -37 196v58c2.66699 92.667 25.667 186.334 69 281.001c50.667 92 102 157.333 154 196c80.667 54.667 181 88 301 100h53zM296 1212l16 -22c0 -35.333 -28.333 -77.666 -85 -126.999l-31 -69c-49.333 0 -79.333 -33.333 -90 -100l21 -80
c-2.66699 -42 -8 -63 -16 -63c-18 0 -35.667 51 -53 153l21 90c0 41.333 -12.333 69.666 -37 84.999l16 27l69 -11c60.667 0 113.667 24.667 159 74l-16 16v11c0 8 8.66699 13.333 26 16zM381 824.998l-0.00195312 -106.001l11 -143v-5
c6.66699 -10 15.334 -43.667 26.001 -101c12 -42 33.333 -88 64 -138c46.667 -31.333 94.334 -50.666 143.001 -57.999l5 -5h74v5l-69 16v10c84.667 0 143 65.333 175 196v6c-3.33301 46 -14 72.333 -32 79l-10 -10h-11l-10 10v11l15 16h16c59.333 0 93 -77.667 101 -233
v-11h5c49.333 52.667 74 134 74 244v69c0 82 -21 179 -63 291c0 48 -28.333 95.667 -85 143c-26 17.333 -61.333 26 -106 26h-32l-16 11h-5l-90 -26c-106 -62 -159 -124 -159 -186c-11.333 0 -18.333 -37 -21 -111zM698.998 1116h5c46 0 76 -10.667 90 -32
c-74 -120 -164 -180 -270 -180h-74c-5.33301 0 -12.333 16 -21 48c13.333 34 31 58.667 53 74l58 -10c70 0 123 33.333 159 100zM693.998 914.997l15.001 -16v-11l-15 -15h-6l-16 10h-5c-17.333 -44 -28 -79.333 -32 -106c6.66699 -48.667 19 -92.667 37 -132
c0 -10.667 -7 -16 -21 -16l-32 10h-42l-90 -42c-14 -7.33301 -33.333 -11 -58 -11c-10.667 4 -16 14.667 -16 32v6c0 6.66699 21 11.667 63 15c35.333 28 53 53 53 75v47c53.333 24 80 54 80 90c35.333 42.667 63.666 64 84.999 64zM809.999 331.997v-21h21
c0 10.667 7 16 21 16l6 5v6l-11 10h-21z" />
    <glyph glyph-name="r" unicode="r" horiz-adv-x="1179" 
d="M196 1238l21 -0.00195312l133 -5l164 5h175c155.333 0 257.666 -49.333 306.999 -148c14 -16.667 21 -52 21 -106v-11c0 -86.667 -31.667 -178.334 -95 -275.001c-49.333 -53.333 -81.333 -80 -96 -80v-10c10.667 0 42.667 -49.667 96 -149
c110 -148 205.333 -239.667 286 -275c0 -4.66699 17.667 -10 53 -16c35.333 -4.66699 53 -18.667 53 -42c-18 -21.333 -41 -32 -69 -32h-48c-113.333 0 -210.333 35.333 -291 106c-115.333 128.667 -194.666 229.334 -237.999 302.001h-91l-15 10h-75l-5 -169
c0 -86.667 28.333 -139.667 85 -159v-27l-16 -15h-159l-16 10h-100l-16 -10h-80l-21 21v26c0.666992 5.33301 22 14.333 64 27c17.333 20.667 26 45.334 26 74.001l-5 201c-8 0 -22.333 -24.667 -43 -74c-29.333 -35.333 -54 -53 -74 -53h-5l-11 11v21l11 10h10l16 -10
c21.333 38 32 68 32 90v48c0 34.667 -12.333 73.334 -37 116.001l21 16l43 -11h37l5 408v53c0 29.333 -21.333 56 -64 80v31zM180 1153c31.333 -13.333 47.333 -23.668 48 -31.001v-112c-49.333 -25.333 -74 -62.333 -74 -111v-26c0 -35.333 23 -70.666 69 -105.999v-64
l-11 -11c-70.667 34.667 -106 87.667 -106 159v32c0 52 21.333 108.667 64 170v47l-11 37zM509 1106l-11 -212v-27l-11 -16v-185h175c54 34 91 85.333 111 154v111c-36.667 109.333 -93 164 -169 164l-16 11h-79zM636 1021c60 0 95.333 -74.333 106 -223
c-8 -28 -22.333 -42 -43 -42c-17.333 -0.666992 -26 -6 -26 -16l5 -37l-16 -11h-100c-39.333 0 -59 5.33301 -59 16c52.667 0 104 42.333 154 127l16 75c0 23.333 -9 51.333 -27 84h-5c0 -10.667 -3.66699 -16 -11 -16h-10l-11 11v11c7.33301 14 16.333 21 27 21z
M546 469.996c0 -22.667 47.666 -44 142.999 -64c38.667 -20.667 58 -41.667 58 -63l-16 -11h-11l-15 16v11l5 5v5l-64 6h-5c-43.333 0 -85.666 -16 -126.999 -48h-5v122c0 5.33301 12.333 12.333 37 21z" />
    <glyph glyph-name="s" unicode="s" horiz-adv-x="1122" 
d="M575 1278c49.333 0 176.334 -15.6709 381.001 -47.0039c24.667 0 37 -12.333 37 -37c0 -166 -17.667 -249 -53 -249l-5 -6c-24.667 18 -37 44.667 -37 80c-56 60.667 -119.667 97.667 -191 111c-20.667 0 -34.667 3.66699 -42 11h-111l-112 -37l-42 -69v-101
c12.667 -29.333 34 -54 64 -74c89.333 -49.333 142.333 -74 159 -74c0 -10 37 -33 111 -69c37.333 -28.667 95.666 -64 174.999 -106c0 -7.33301 5 -11 15 -11c70.667 -59.333 106 -122.666 106 -189.999v-6c-2 -45.333 -39 -108.666 -111 -189.999l-106 -48
c-36.667 -14 -80.667 -21 -132 -21h-5l-16 -11h-196l-22 11l-196 10c0 7.33301 -5 11 -15 11c-70.667 0 -106 10.667 -106 32l-11 122l5 121l48 11c28 0 42 -23 42 -69c38.667 -74 97 -111 175 -111h48l16 -11h84c6 7.33301 25.667 11 59 11c95.333 30 143 61.667 143 95
l-6 6v5l6 21c0 50.667 -54.667 98.334 -164 143.001c-21.333 18 -64 39.333 -128 64c-72 36.667 -132 73.667 -180 111c-82.667 74.667 -126.667 136.334 -132 185.001l-5 6v74l42 106c7.33301 0 11 5.33301 11 16c94 116 226.333 174 397 174zM495.001 1045
c52.667 0 110.999 -19.333 174.999 -58h37l43 11l21 -21c-13.333 0 -27.666 -39 -42.999 -117c4 -34 14.667 -71 32 -111l27 5h5l11 -11v-15l-11 -11h-11c-31.333 0 -68.333 42.333 -111 127c-8 0 -23.667 10.667 -47 32v37c0 48.667 -35.333 77 -106 85h-6l-79 -16l-5 5v5
c0 35.333 21 53 63 53h5zM289 642.996h4.99902c34.667 0 71.667 -40.667 111 -122l53 -42v-38c0 -36.667 26.667 -63 80 -79h53c36.667 0 72 19.333 106 58l10 -31c0 -50 -37 -75 -111 -75h-26c-45.333 0 -96.666 17.667 -153.999 53l-37 6l-43 -16h-5l-21 21
c24.667 36.667 37 73.667 37 111v32c0 22 -10.667 52 -32 90l-26 -11l-11 16v16z" />
    <glyph glyph-name="t" unicode="t" horiz-adv-x="1169" 
d="M151 1263c44 -10.667 91.667 -15.9971 143 -15.9971l11 -11h440l16 11h233c20 -8 34 -22.333 42 -43v-5c-8.66699 0 -15.667 -56.667 -21 -170c21.333 -37.333 32 -86.666 32 -147.999l58 -63v-11l-111 -37c-45.333 -32.667 -75.333 -66.334 -90 -101.001v-5
c14 -2 21 -7.33301 21 -16v-11c-3.33301 -10 -14 -15 -32 -15l-11 31v11c0 26 16 73.667 48 143v26l-5 22c46 22 69 53.667 69 95c0 51.333 -35.333 93.666 -106 126.999l-64 5l-138 -5v-127l6 -191l-6 -190v-96c42.667 36.667 64 74 64 112v26c0 16 -12.333 51.333 -37 106
v95c0 10.667 16 19.667 48 27c56 -80 84 -143.667 84 -191v-63c0 -29.333 -21 -100 -63 -212v-32l10 -80h-5c-47.333 35.333 -81 53 -101 53v-5c8.66699 -6 14 -36 16 -90c13.333 -16.667 27.666 -27.334 42.999 -32.001v-26c0 -8 -9 -13.333 -27 -16l-116 5l-186 -5
c-20.667 3.33301 -31 8.66602 -31 15.999v21c2 10.667 16 16 42 16l21 58l-5 106l10 85l-5 21l5 254l-10 355h-154l-79 -21c-30.667 -18 -62.667 -49.667 -96 -95h-21l-21 31v37c18.667 43.333 36.334 112.333 53.001 207l5 5c0 10.667 7 16 21 16v6zM734 1061h101.001l5 -5
h5l-10 -64v-26c13.333 -63.333 25.666 -95 36.999 -95l10 10h11l11 -10v-16l-16 -16c-31.333 3.33301 -72 49.333 -122 138c-26 12.667 -40 23 -42 31v11l5 5l-11 27zM406.001 1051h10l11 -11v-191h-5c-16 0 -30.333 40.667 -43 122c0 35.333 9 62 27 80zM268.001 871.003
l11.001 -0.000976562c66.667 -16.667 100 -84 100 -202v-69l-42 11c-14 -5.33301 -21 -10.666 -21 -15.999v-10l5 -27h21l27 5c17.333 -68 35 -106.667 53 -116v-85h-6c-10 0 -40 33.667 -90 101c-87.333 60 -149 90 -185 90v10c81.333 0 137.666 60 168.999 180v38
c0 14.667 -7 35.667 -21 63l-21 -16l-16 16v11zM686.002 463.002v-48h6l10 11v21z" />
    <glyph glyph-name="u" unicode="u" horiz-adv-x="1215" 
d="M388 1390l26.999 0.000976562c41.333 0 94.333 -19.667 159 -59h31l68 16l16 -21c-24.667 -43.333 -37 -87.333 -37 -132c0 -24.667 10.667 -58.334 32 -101.001l26 5h6l10 -10v-11l-16 -16h-5c-28 0 -66.333 32 -115 96c-8.66699 22 -31.667 43 -69 63l5 27
c-11.333 63.333 -39.666 95 -84.999 95h-37c-52 0 -96 -24.667 -132 -74h-44c0 32.667 30.333 69.667 91 111zM446.999 1252l20.9971 -32v-5l-53 -53c-18 -56 -27 -105.333 -27 -148l6 -504c4.66699 0 13.334 -37 26.001 -111c24.667 -56.667 74 -85 148 -85h11
c36 0 60.333 9 73 27c16 0 69 38.667 159 116v48l-5 360l5 202c0 57.333 -14.333 94.333 -43 111c-17.333 12 -26 27.667 -26 47h-5c6.66699 16.667 13.667 25.667 21 27h319c24.667 0 37 -12.333 37 -37c-27.333 -20 -48.666 -43 -63.999 -69v-742l-5 -21l5 -21v-79
c12.667 -34 34 -60.667 64 -80l5 -5c10.667 0 16 -7 16 -21h5c-6.66699 -16.667 -13.667 -25.667 -21 -27h-276c-24.667 0 -37 12.333 -37 37v74h-6c-61.333 -61.333 -107 -94.666 -137 -99.999l-79 -27h-106l-16 11h-15c-76 0 -140 31.667 -192 95c-50 74 -80 143 -90 207
c-10.667 0 -16 116.333 -16 349v16l-16 6l-11 -22v-90h-10c-72 42.667 -123.333 64 -154 64v11c84.667 0 143 65.333 175 196v5c-3.33301 46 -14 72.333 -32 79l-11 -10h-10l-11 10v11l16 16h16c12.667 0 30.334 -9 53.001 -27l-5 37v37
c-12 25.333 -31.667 46.666 -59 63.999l-5 32l32 16h26l16 -11h43l16 11h38l16 -11h53l16 11h79zM424.996 743.001h21.999c62.667 -29.333 138 -103.333 226 -222c49.333 -32 81 -48 95 -48v-10c-42.667 0 -109.334 -39 -200.001 -117h-21c-37.333 0 -56.666 9 -57.999 27
l32 79l5 -5h21l21 26c0 18 -15.667 27 -47 27c-23.333 88 -51.666 132 -84.999 132l-11 16v95z" />
    <glyph glyph-name="v" unicode="v" horiz-adv-x="1210" 
d="M800 1438c18.667 0 30.998 -9 36.998 -27c-5.33301 -14 -10.666 -21 -15.999 -21h-6c-8.66699 0 -13.667 7 -15 21c-50 -20 -75 -67.667 -75 -143s28.333 -133.333 85 -174v-6l-95 11c-124 -8 -186 -38 -186 -90l-5 -37l5 -27v-5h-10c-21.333 79.333 -32 134 -32 164h16
c22.667 0 56.334 28.333 101.001 85h5l21 -16h21c10.667 3.33301 16 14 16 32v5c-3.33301 10.667 -14 16 -32 16h-21v5c53.333 138 115.333 207 186 207zM883.998 1242l223 -0.00292969c27.333 0 45 -10.667 53 -32c0 -20 -23 -32.333 -69 -37l-32 -21l-37 -69
c-7.33301 -46.667 -28.666 -112 -63.999 -196l-127 -307c0 -16 -7 -32 -21 -48v-5c32.667 -31.333 68 -52.666 106 -63.999v-10c-72 -14.667 -144.333 -69.667 -217 -165l-74 -148h-21l-6 5c-24 52.667 -61 114.667 -111 186c-22.667 32.667 -42 87.334 -58 164.001
c-51.333 106 -92 159 -122 159c-95.333 64 -143 138 -143 222c0 39.333 12.333 71.333 37 96c12 -7.33301 33 -58.666 63 -153.999l16 -16v6c-20.667 76.667 -54 172 -100 286c-36.667 60 -79 90 -127 90l-11 16v15l32 22h397l32 -32l-53 -80c0 -46 24.667 -136 74 -270
l117 -291h10l74 185c78 208.667 127.667 351.667 149 429c-18 16 -27 28.333 -27 37c5.33301 18 17.666 27 36.999 27zM285.998 801.997v-10h5v10h-5zM581.998 770.997l11 -0.000976562c49.333 -45.333 74 -75.666 74 -90.999c-7.33301 -31.333 -14.333 -47 -21 -47h-5z" />
    <glyph glyph-name="w" unicode="w" horiz-adv-x="1523" 
d="M956 1289l10.999 0.00390625c8 -3.33301 23.667 -28 47 -74c43.333 -44 89.333 -68.667 138 -74h5c0 10.667 7.33301 23 22 37c0 6.66699 -5.33301 10 -16 10l-6 6v31l11 11h302l21 -21c-8.66699 -24.667 -24.667 -37 -48 -37c-44 0 -89.667 -76 -137 -228l-80 -169v-6
c0 -42 47.667 -84.333 143 -127v-11c-48.667 0 -122.667 -51 -222 -153v10l58 154l-21 11c-62 -182 -124 -332.333 -186 -451c-12.667 -34 -32 -58.667 -58 -74h-5c-19.333 0 -54.666 49.667 -105.999 149l-95 164h-11l-212 -297h-26c-10 2 -27.667 49.667 -53 143
c-11.333 0 -39.666 67 -84.999 201l-111 313c-60 164.667 -99 283 -117 355c-15.333 17.333 -29.333 26 -42 26c-32 16 -48 26.667 -48 32v21l11 11h164l21 -5l21 5h74l27 -27v-5l-11 -16v-79c39.333 -90.667 81.666 -207.334 126.999 -350.001h6l16 80v10
c-10 49.333 -20.667 74 -32 74c0 -10 -3.66699 -15 -11 -15h-5l-16 15v6l16 16h16c57.333 0 90.666 -69 99.999 -207v-53l-10 -11l-32 11h-5l-6 -5h-5c6 -32 11.333 -48 16 -48l37 5v-5c0 -17.333 10.667 -54.333 32 -111h5c46 65.333 69 102.333 69 111
c0 11.333 -17.667 53.666 -53 126.999c-55.333 148.667 -97.666 223 -126.999 223c-22.667 14 -44 21 -64 21l-15 21v16c10.667 17.333 31.667 26 63 26l185 -5l22 -26l-11 -16v-16l80 -217l74 116l31 80c-17.333 0 -26 10.333 -26 31c0 25.333 12.333 38 37 38h185
c42.667 0 64 -7.33301 64 -22v-21c0 -6.66699 -7 -10 -21 -10c0 -10.667 -12.333 -19.667 -37 -27c0 -6.66699 -9 -10 -27 -10c0 -14.667 -8.66699 -22 -26 -22c0 -10.667 -14.333 -28.334 -43 -53.001c0 -8.66699 -33.333 -61.667 -100 -159l-27 -58l-5 -26
c0 -10.667 28.333 -67.334 85 -170.001c12.667 8.66699 42.667 75.667 90 201l95 218c53.333 113.333 80 184 80 212h-6l-21 -6h-16l-90 11l-63 -16c-24 24.667 -49 37 -75 37c-60.667 0 -103 -44 -127 -132v-11l16 -79c-16.667 -35.333 -29 -53 -37 -53h-10l-27 111
c0 102 67 179.667 201 233zM976.999 892.004h11c38.667 -5.33301 58 -12.333 58 -21l-16 -43h-100v5z" />
    <glyph glyph-name="x" unicode="x" horiz-adv-x="1153" 
d="M797 1247l15.999 -11h158c10.667 0 16 -7 16 -21h6c0 -16.667 -25 -32.667 -75 -48c-151.333 -276 -227 -419 -227 -429v-10c64.667 -120 108.667 -210.333 132 -271c56 -115.333 95 -178.666 117 -189.999c27.333 -39.333 66 -59 116 -59l27 -31l-22 -27h-386
c-10.667 3.33301 -16 14 -16 32v5l21 27v32l-116 243h-11l-127 -286l10 -32c-3.33301 -14 -10.333 -21 -21 -21l-296 -5c-14.667 5.33301 -22 10.666 -22 15.999v58c0 10 37.333 19 112 27c30 23.333 49.333 44.333 58 63v5h-5l-37 -16l-16 22c24.667 42.667 37 83 37 121v6
c0 27.333 -10.667 64.333 -32 111l-16 -11h-11l-15 16l15 22h6c33.333 0 72 -42.667 116 -128l21 -16h11c63.333 131.333 95 209.333 95 234l-196 407c-43.333 62 -85.666 97.333 -126.999 106l-16 16v21l11 11h350l15 -16l-21 -63c62 -133.333 101 -209.333 117 -228h5
l127 228v5l-21 32v31l11 11h90zM605.999 1114c21.333 -2 32 -7.33301 32 -16c-8.66699 -20.667 -15.667 -31 -21 -31h-91c-8 1.33301 -16.667 15.333 -26 42l5 5h101zM245.999 1003c28 -40 42 -71.667 42 -95v-6c0 -6.66699 -16 -12 -48 -16l-5 -26v-5
c0 -10.667 16 -16 48 -16c0 -66.667 42.333 -119.667 127 -159v-5c0 -26.667 -10.667 -55 -32 -85c-49.333 0 -125.333 74 -228 222c-50 35.333 -81.667 53 -95 53v11c41.333 0 105 42.333 191 127zM843.999 977c62.667 -56 130.001 -91.333 202.001 -106v-11
c-82 0 -138.667 -60 -170 -180v-37c0 -15.333 7 -36.666 21 -63.999l21 16l16 -16v-10l-16 -16h-10c-60.667 0 -94.334 70.667 -101.001 212l-5 42l11 16l37 -11c14 5.33301 21 10.666 21 15.999v21l-16 16h-5l-37 -5l-6 37v5c2.66699 22.667 15 47.667 37 75zM595 362h6
l16 -58c-41.333 -32 -84 -48 -128 -48h-5l-5 5h-6c0 25.333 30.333 48.333 91 69z" />
    <glyph glyph-name="y" unicode="y" horiz-adv-x="1107" 
d="M55 1236h349.999c17.333 0 70 -21 158 -63h43l42 10l11 -16c-19.333 -44.667 -31.666 -87 -36.999 -127l16 -74c28 32 73.667 99 137 201c-17.333 9.33301 -26 23.666 -26 42.999v15l10 11h218c38.667 0 58 -5.33301 58 -16v-21c-9.33301 -14 -32.333 -28 -69 -42
c-50 -60 -103 -141.333 -159 -244c-78.667 -130.667 -122.667 -196 -132 -196l5 -53l-5 -127v-281c13.333 -42 31 -63 53 -63l10 -43l-21 -16h-74l-16 11h-143l-16 -11h-58c-28.667 12 -43 21 -43 27c0 19.333 12.667 33.333 38 42l26 37v11l-74 16l-96 -16v5
c39.333 30.667 69.666 124.334 90.999 281.001c20.667 52 48.667 96 84 132v21l-180 276c-77.333 120 -126.666 187 -147.999 201c-46 16.667 -69 29 -69 37v16zM409.999 1157c0 -19.333 49.332 -107.668 147.999 -265.001c7.33301 0 11 -7 11 -21h10
c0 12.667 7.33301 23 22 31l15 32c-37.333 78 -70.666 117 -99.999 117v47c-8.66699 44.667 -35.334 71.334 -80.001 80.001h-10c-9.33301 0 -14.666 -7 -15.999 -21zM1040 1061l-0.000976562 -5c-59.333 -50.667 -103.333 -130 -132 -238
c-51.333 -89.333 -118.666 -149.666 -201.999 -180.999v43c92 69.333 138 138 138 206v6l-5 47c26 13.333 61.333 41.666 106 84.999zM144.997 981.998h10.999c60 0 120 -67 180 -201c-39.333 -7.33301 -59 -18 -59 -32c7.33301 -21.333 18 -32 32 -32l37 26l53 -74l-37 -47
c-35.333 14 -70.666 21 -105.999 21h-32l-90 -11v11c56.667 32.667 85 82 85 148v37c-8 81.333 -32.667 122 -74 122l-16 -16l-21 21c4.66699 18 17 27 37 27zM430.996 568.998l-11 -69v-16l11 -64h5v149h-5zM393.996 377.998c0 -21.333 12.333 -46.001 37 -74.001v-6h5v117
c-20 -11.333 -34 -23.666 -42 -36.999z" />
    <glyph glyph-name="z" unicode="z" horiz-adv-x="1128" 
d="M145 1252h21.0029l498 -5l275 5c38 0 66.333 -10.667 85 -32c0 -18.667 -28.333 -64.667 -85 -138c-10.667 -18 -19.334 -49.667 -26.001 -95c3.33301 -34 14 -71 32 -111l26 5h5l11 -10v-16l-11 -11h-10c-32 0 -69 42.333 -111 127h-6
c-90 -140 -155.333 -249.333 -196 -328c-56.667 -76 -118.334 -187.333 -185.001 -334v-11h429c27.333 0 57.333 21.333 90 64l21 16h11l21 -27v-37l-58 -132c-2.66699 -12.667 -31 -25 -85 -37h-53l-58 5l-85 -5c-395.333 0 -593 7 -593 21l-11 16v5
c7.33301 21.333 18 32 32 32c39.333 54 102.666 154.667 189.999 302l-95 32v10c85.333 0 142 65.333 170 196v16c0 30.667 -10.667 53.667 -32 69c0 -10.667 -3.66699 -16 -11 -16h-5l-16 16v5l21 22c42 0 72 -28.333 90 -85l6 -21c9.33301 7.33301 53.333 83 132 227
c10 0 26 30 48 90l10 11v5h-275l-32 6l-26 -6h-37c-27.333 -8 -54 -27.333 -80 -58c-4.66699 0 -11.667 -14 -21 -42l-27 -16l-26 21v48c0 36 5.33301 60.667 16 74v95c2 21.333 7.33301 32 16 32zM500.003 1072l68 0.000976562v-11c-10 -9.33301 -22.333 -46.333 -37 -111
l-47 -69c-14 26 -21 54.333 -21 85v21c0 27.333 12.333 55.666 37 84.999zM711.003 690.001c38 -20.667 82.332 -73.333 132.999 -158c36 -37.333 74.667 -62.333 116 -75v-10c-44 0 -107.333 -40.667 -190 -122h-90v5c23.333 30.667 41 66 53 106c31.333 0 47 9 47 27
c-5.33301 17.333 -15.666 26 -30.999 26l-16 -5c-8.66699 48 -31.667 94 -69 138z" />
    <glyph glyph-name="bar" unicode="|" horiz-adv-x="649" 
d="M174 1721l90 -4.99805h228l32 -32c-10 -21.333 -24.333 -32 -43 -32c-24.667 -12.667 -37 -62 -37 -148l-5 -339v-64l-11 -16v-434h6l74 26l11 -16l-11 -42v-32c38.667 -80 58 -134.667 58 -164v-26c0 -85.333 -35.333 -145.666 -106 -180.999h-5v75
c42.667 35.333 64 81 64 137c0 57.333 -28.333 92.666 -85 105.999h-6v-106l11 -16v-445h11l37 6c12.667 -36.667 55 -72 127 -106c21.333 -26 32 -45.333 32 -58v-6c0 -8 -9 -13.333 -27 -16l-16 22l16 21c-50.667 20.667 -84 31 -100 31h-11l-80 -10v-53
c0 -10.667 21.333 -35.334 64 -74.001l11 -21l-16 -22l-111 6l-165 -6c-52.667 4 -79 14.667 -79 32v11c0 6 19.333 16.667 58 32l16 63l11 408v471l10 16v11l-63 11h-32c-60 -13.333 -90 -26 -90 -38l10 -10v-11l-10 -10h-16l-16 16
c6.66699 35.333 52.667 75.666 138 120.999c11.333 28.667 20 43 26 43h53v365l-10 16v180h-6c-46 -24 -69 -52 -69 -84v-32c0 -48 21.333 -90.333 64 -127v-64l-11 -11c-66.667 40.667 -100 99 -100 175v27c0 43.333 17.667 96.333 53 159l5 26v5l-11 59l16 16l59 -27v11
c0 77.333 -16 116 -48 116l-16 16v21z" />
    <glyph glyph-name="asciitilde" unicode="~" horiz-adv-x="1252" 
d="M423 986c102.667 0 187.333 -57.333 254 -172c56 -50 103.667 -75 143 -75c82 0 157.667 36.667 227 110l47 129h41c10 0 19.333 -16 28 -48c-49.333 -268.667 -161.333 -403 -336 -403c-98.667 0 -190 68.667 -274 206c-64 40 -128 60 -192 60h-6
c-88.667 0 -155 -66 -199 -198c0 -41.333 -7 -62 -21 -62h-27l-21 21c0 168 59.333 298.333 178 391c43.333 27.333 96 41 158 41z" />
    <glyph glyph-name="dieresis" unicode="&#xa8;" horiz-adv-x="1024" 
d="M639 1706l117 -6l63 6c32 -2 48 -16.333 48 -43v-90c0 -26.667 30 -47.667 90 -63l16 -22v-15l-21 -22h-80l-169 6l-64 -6c-20 0 -32.333 19.667 -37 59v169c10.667 18 23 27 37 27zM405 1679v-169c-4.66699 -39.333 -17 -59 -37 -59l-64 6l-169 -6h-80l-21 22v15l16 22
c60 15.333 90 36.333 90 63v90c0 26.667 16 41 48 43l63 -6l117 6c14 0 26.333 -9 37 -27z" />
    <glyph glyph-name="guillemotleft" unicode="&#xab;" horiz-adv-x="1226" 
d="M122 705l0.000976562 9.99805c16 24.667 65.333 58.334 148 101.001c60 42 162 93 306 153h8c8.66699 -3.33301 13 -13.666 13 -30.999v-75c0 -26 -41.667 -50.667 -125 -74c-58.667 -28.667 -88.334 -46.334 -89.001 -53.001l210 -120l4 -5v-145l-21 -21h-4
c-202.667 98.667 -352.667 185.334 -450 260.001zM631.001 704.998l0.000976562 9.99805c16 24.667 65.333 58.334 148 101.001c60 42 162 93 306 153h8c8.66699 -3.33301 13 -13.666 13 -30.999v-75c0 -26 -41.667 -50.667 -125 -74
c-58.667 -28.667 -88.334 -46.334 -89.001 -53.001l210 -120l4 -5v-145l-21 -21h-4c-202.667 98.667 -352.667 185.334 -450 260.001z" />
    <glyph glyph-name="macron" unicode="&#xaf;" horiz-adv-x="1996" 
d="M985 1757l16.001 7.99902h471l408 9l63 10c15.333 29.333 26 44 32 44h11c17.333 0 28 -19.667 32 -59l-6 -121l6 -83l-22 -12l-21 9c-38.667 31.333 -63.334 47 -74.001 47h-53l-10 -59v-9c0 -11.333 10.333 -35.666 31 -72.999l21 11l22 -11
c-2.66699 -13.333 -8 -20 -16 -20h-6c-12.667 0 -32 8 -58 24c-34 52.667 -69.333 83.667 -106 93l6 27v9h-445l-16 8h-106v-5c13.333 -42 48.666 -63 105.999 -63c56 0 101.667 16 137 48h75v-3c-35.333 -52.667 -95.666 -79 -180.999 -79h-26
c-29.333 0 -84 14.333 -164 43h-32l-42 -9l-16 9l26 54v5h-434l-16 -8h-64l-339 -3c-86 0 -135.333 -9.33301 -148 -28c0 -14 -10.667 -24.667 -32 -32l-32 24v168l-5 66l27 17h21l16 -12c0 -24 38.667 -36 116 -36h11l-27 43l16 12l59 -7h5l26 3
c62.667 26 115.667 39 159 39h27c76 0 134.333 -24.667 175 -74l-11 -7h-64c-36.667 30.667 -79 46 -127 46h-32c-32 0 -60 -17 -84 -51v-4h180l16 -8h365v3l122 -2z" />
    <glyph glyph-name="degree" unicode="&#xb0;" horiz-adv-x="1047" 
d="M506 1632h76c8 -5.33301 33.667 -10 77 -14l5 -4c89.333 -24.667 156.333 -68.334 201 -131.001c27.333 -25.333 55.666 -73.666 84.999 -144.999c0 -16 3 -26 9 -30v-93c-6 0 -10 -23.333 -12 -70c-25.333 -72 -48.333 -112 -69 -120c-31.333 -46 -85 -83.667 -161 -113
c-23.333 -17.333 -80 -30.333 -170 -39l-35 -3c-57.333 0 -133.666 23.333 -228.999 70c-72 39.333 -115.333 84 -130 134c-30.667 72.667 -46 142.667 -46 210v16l11 11v14c0 31.333 11.667 65.666 35 102.999l-10 6h-4l-32 -3c-13.333 26.667 -44.333 47.667 -93 63
c-27.333 20.667 -41 36.334 -41 47.001v3c0 4.66699 7 8 21 10l14 -13l-8 -16c34 -14 65.667 -21 95 -21c27.333 0 62.666 8.66699 105.999 26l14 -15l-9 -21c60.667 56.667 123.334 95.667 188.001 117c58 6.66699 95.333 13.667 112 21zM314 1290v-53.999
c0 -109.333 34 -183.333 102 -222c49.333 -39.333 94.333 -59 135 -59c38 2 80.333 20.667 127 56c50.667 52 76 119 76 201v35c0 60 -13.667 120.333 -41 181c0 28.667 -24 59 -72 91c-39.333 14.667 -80 22 -122 22c-87.333 0 -148 -39 -182 -117
c-15.333 -30.667 -23 -75.334 -23 -134.001z" />
    <glyph glyph-name="plusminus" unicode="&#xb1;" horiz-adv-x="1119" 
d="M404 1143l74.001 -4.99902l191 5h32c18.667 0 32.667 -8.66699 42 -26v-11c0 -5.33301 -16 -17.666 -48 -36.999l-16 -21v-79l-10 -170v-10h175c6.66699 6.66699 36.667 13.667 90 21l47 58c19.333 0 31.666 -7 36.999 -21v-334l-21 -21c-7.33301 0 -25 21 -53 63
c-22.667 10.667 -58 16 -106 16h-90l-79 6v-59c0 -144.667 10.667 -217 32 -217c0 -9.33301 10.333 -16.333 31 -21l11 -16c0 -24.667 -12.333 -37 -37 -37h-297c-14.667 0 -28.667 8.66699 -42 26l-21 6c-28 0 -67 -10.667 -117 -32l11 -16v-10l-16 -16h-11l-16 16
c0 33.333 33.667 66.666 101 99.999c35.333 21.333 53 42.666 53 63.999h37c38.667 5.33301 58 14 58 26v143l11 16v11l-11 10h-84l-96 6c-53.333 0 -85 -16 -95 -48l-27 -21h-26c-6 0 -11.333 8.66699 -16 26l5 69l-5 217c0 17.333 8.66699 33.333 26 48h11l42 -58
c138 -6 207 -13 207 -21h58v132l11 16v53c-6 6 -11.333 27 -16 63c-30.667 18 -50 35.667 -58 53v22c0 4.66699 7 9.66699 21 15zM346.001 1075c56 -23.333 84 -39.334 84 -48.001l6 -53v-32c0 -8 -16 -13.333 -48 -16c-42.667 -25.333 -64 -60.666 -64 -105.999h-31
c-7.33301 0 -11 5.33301 -11 16c0 21.333 17.667 69 53 143l5 21l-16 59zM780.001 561l16 -16c-6 -56 -37.667 -116 -95 -180l-6 -27h-10l-6 27v58c46 36.667 69 82.667 69 138h32zM992.001 -248c-32 6 -71 50.333 -117 133l-47 31l5 6v16c-44 10 -98.667 15 -164 15h-276
l-185 -5c0 -10.667 -9 -19.334 -27 -26.001c-18.667 -32 -31 -48 -37 -48l-31 21v323c0 18.667 5 29.334 15 32.001c20.667 0 35 -14 43 -42c11.333 -17.333 34.333 -28 69 -32l5 -5l291 -6l265 6l64 -6c50 0 87 21.333 111 64l21 5h16c6 0 11.333 -8.66699 16 -26l-5 -69
l5 -217c0 -17.333 -8.66699 -33.333 -26 -48h-11l-48 58l-5 -37c0 -24 10.667 -61 32 -111l16 11h16l10 -11v-16z" />
    <glyph glyph-name="acute" unicode="&#xb4;" horiz-adv-x="796" 
d="M445 1856l5 -0.000976562l22 -21v-5c0 -10.667 -9 -16 -27 -16c35.333 -95.333 76 -143 122 -143c0 -8 16 -13.333 48 -16c0 -8.66699 12.333 -17.667 37 -27v-15c-120 0 -235 -81.333 -345 -244l-47 -48c-18 0 -46.333 19.333 -85 58v16c77.333 79.333 148 180 212 302
l58 -16v6l-21 84v38c0 26.667 7 42.334 21 47.001zM541 1570l5 -5c-12.667 -57.333 -32 -103.333 -58 -138c-58 -60 -116.333 -90 -175 -90h-6v5c29.333 50 59.333 75 90 75c60.667 40 91 82.333 91 127z" />
    <glyph glyph-name="periodcentered" unicode="&#xb7;" horiz-adv-x="549" 
d="M161 866l117 -6l63 6c32 -2 48 -16.333 48 -43v-90c0 -26.667 30 -47.667 90 -63l16 -22v-15l-21 -22h-80l-169 6l-64 -6c-20 0 -32.333 19.667 -37 59v169c10.667 18 23 27 37 27z" />
    <glyph glyph-name="periodcentered" unicode="&#x2219;" horiz-adv-x="549" 
d="M161 866l117 -6l63 6c32 -2 48 -16.333 48 -43v-90c0 -26.667 30 -47.667 90 -63l16 -22v-15l-21 -22h-80l-169 6l-64 -6c-20 0 -32.333 19.667 -37 59v169c10.667 18 23 27 37 27z" />
    <glyph glyph-name="cedilla" unicode="&#xb8;" horiz-adv-x="1024" 
d="M638 150c63.333 -58 95.665 -120.333 96.998 -187c4.66699 -174.667 -126.666 -290 -393.999 -346c-32 8 -48.333 17 -49 27l-1 41l128 50c71.333 71.333 106 148 104 230c-0.666992 39.333 -26.667 86.333 -78 141c-25.333 14 -47.666 28.667 -66.999 44h260z" />
    <glyph glyph-name="guillemotright" unicode="&#xbb;" horiz-adv-x="1219" 
d="M157 445l-3.99902 0.00195312l-21 21v145l4 5l210 120c-0.666992 6.66699 -30.334 24.334 -89.001 53.001c-83.333 23.333 -125 48 -125 74v75c0 17.333 4.33301 27.666 13 30.999h8c144 -60 246 -111 306 -153c82.667 -42.667 132 -76.334 148 -101.001v-10
c-97.333 -74.667 -247.333 -161.334 -450 -260.001zM659.001 445.002l-3.99902 0.00195312l-21 21v145l4 5l210 120c-0.666992 6.66699 -30.334 24.334 -89.001 53.001c-83.333 23.333 -125 48 -125 74v75c0 17.333 4.33301 27.666 13 30.999h8c144 -60 246 -111 306 -153
c82.667 -42.667 132 -76.334 148 -101.001v-10c-97.333 -74.667 -247.333 -161.334 -450 -260.001z" />
    <glyph glyph-name="Agrave" unicode="&#xc0;" horiz-adv-x="1185" 
d="M567 1283h11c32 -0.666992 93.667 -127.667 185 -381c39.333 -84.667 96 -227.667 170 -429l74 -180c6 0 11.333 -9 16 -27c6 0 14.667 -10.667 26 -32c53.333 -28 80 -45.667 80 -53c0 -24.667 -23 -37 -69 -37h-175l-48 -5c-16 6.66699 -24.667 13.667 -26 21v21l32 37
v32c-20 22.667 -36 59.667 -48 111c-13.333 46 -27.333 69 -42 69c-8.66699 24.667 -16 37 -22 37h-264c-60 -140 -90 -226.333 -90 -259c17.333 -9.33301 26 -23.666 26 -42.999c-4.66699 -17.333 -17 -26 -37 -26h-265c-24.667 0 -37 12.333 -37 37v5l85 64
c25.333 32.667 55.333 105 90 217c6.66699 0 10 9 10 27c28.667 57.333 90.667 219.666 186 486.999c75.333 204.667 119.333 307 132 307zM414 1013h10c0 -37.333 -19.333 -60.333 -58 -69c-38.667 -38 -58 -82 -58 -132l21 -53l-32 -96h-5c-42.667 48.667 -64 100 -64 154
c0 78 47.667 139.667 143 185zM588 902c-42 -178 -66.667 -270 -74 -276v-10l59 5l100 -5v5c-24.667 67.333 -51 161 -79 281h-6zM843 775l4.99902 -0.000976562c50 -28.667 90.667 -43 122 -43l37 16c14 -5.33301 21 -10.666 21 -15.999
c-21.333 -54 -33.666 -96.333 -36.999 -127c3.33301 -34 14 -71 32 -111l26 5h6l10 -10v-16l-10 -11h-6c-36 0 -74.667 42.333 -116 127l-48 27v47zM609.999 731.999h10l21 -58c-12 -28 -20.667 -42 -26 -42h-64v10c0 18.667 19.667 48.667 59 90zM481.999 435.999
c17.333 0 57.999 -17.6699 121.999 -53.0029h48l32 10c14 -3.33301 21 -10.333 21 -21c-24.667 -49.333 -37 -84.666 -37 -105.999c6 -57.333 16.667 -99.666 32 -126.999l16 11h10c10.667 0 16 -7.33301 16 -22l-16 -21c-36 0 -76.667 44.333 -122 133l-47 26l5 27v10
c0 47.333 -35.333 77.333 -106 90v11c4.66699 14.667 13.334 25.334 26.001 32.001zM746.998 376.996l11 0.000976562c28 -28.667 42 -60.334 42 -95.001v-5c-46.667 -50 -80 -75 -100 -75l-11 43v21c38.667 38 58 75 58 111zM587.998 212.997c18 -18.667 27 -32.667 27 -42
c-26.667 -10.667 -65.667 -16 -117 -16h-63l-11 10v27l11 10h47zM475.998 1809l-0.000976562 -37.999l-21 -84v-6l58 16c63.333 -122 134 -222.667 212 -302v-16c-39.333 -38.667 -67.666 -58 -84.999 -58l-48 48c-109.333 162.667 -224 244 -344 244v15
c24.667 9.33301 37 18.333 37 27c32 2.66699 48 8 48 16c46 0 86.667 47.667 122 143c-18 0 -27 5.33301 -27 16v5l21 21h6c14 -4.66699 21 -20.334 21 -47.001zM411.997 1544c0 -44.667 30 -87 90 -127c31.333 0 61.333 -25 90 -75v-5h-5c-58.667 0 -117 30 -175 90
c-26 34.667 -45.333 80.667 -58 138l5 5z" />
    <glyph glyph-name="Aacute" unicode="&#xc1;" horiz-adv-x="1185" 
d="M567 1283h11c32 -0.666992 93.667 -127.667 185 -381c39.333 -84.667 96 -227.667 170 -429l74 -180c6 0 11.333 -9 16 -27c6 0 14.667 -10.667 26 -32c53.333 -28 80 -45.667 80 -53c0 -24.667 -23 -37 -69 -37h-175l-48 -5c-16 6.66699 -24.667 13.667 -26 21v21l32 37
v32c-20 22.667 -36 59.667 -48 111c-13.333 46 -27.333 69 -42 69c-8.66699 24.667 -16 37 -22 37h-264c-60 -140 -90 -226.333 -90 -259c17.333 -9.33301 26 -23.666 26 -42.999c-4.66699 -17.333 -17 -26 -37 -26h-265c-24.667 0 -37 12.333 -37 37v5l85 64
c25.333 32.667 55.333 105 90 217c6.66699 0 10 9 10 27c28.667 57.333 90.667 219.666 186 486.999c75.333 204.667 119.333 307 132 307zM414 1013h10c0 -37.333 -19.333 -60.333 -58 -69c-38.667 -38 -58 -82 -58 -132l21 -53l-32 -96h-5c-42.667 48.667 -64 100 -64 154
c0 78 47.667 139.667 143 185zM588 902c-42 -178 -66.667 -270 -74 -276v-10l59 5l100 -5v5c-24.667 67.333 -51 161 -79 281h-6zM843 775l4.99902 -0.000976562c50 -28.667 90.667 -43 122 -43l37 16c14 -5.33301 21 -10.666 21 -15.999
c-21.333 -54 -33.666 -96.333 -36.999 -127c3.33301 -34 14 -71 32 -111l26 5h6l10 -10v-16l-10 -11h-6c-36 0 -74.667 42.333 -116 127l-48 27v47zM609.999 731.999h10l21 -58c-12 -28 -20.667 -42 -26 -42h-64v10c0 18.667 19.667 48.667 59 90zM481.999 435.999
c17.333 0 57.999 -17.6699 121.999 -53.0029h48l32 10c14 -3.33301 21 -10.333 21 -21c-24.667 -49.333 -37 -84.666 -37 -105.999c6 -57.333 16.667 -99.666 32 -126.999l16 11h10c10.667 0 16 -7.33301 16 -22l-16 -21c-36 0 -76.667 44.333 -122 133l-47 26l5 27v10
c0 47.333 -35.333 77.333 -106 90v11c4.66699 14.667 13.334 25.334 26.001 32.001zM746.998 376.996l11 0.000976562c28 -28.667 42 -60.334 42 -95.001v-5c-46.667 -50 -80 -75 -100 -75l-11 43v21c38.667 38 58 75 58 111zM587.998 212.997c18 -18.667 27 -32.667 27 -42
c-26.667 -10.667 -65.667 -16 -117 -16h-63l-11 10v27l11 10h47zM739.998 1856l5.99902 -0.000976562l21 -21v-5c0 -10.667 -9 -16 -27 -16c35.333 -95.333 76 -143 122 -143c0 -8 16 -13.333 48 -16c0 -8.66699 12.333 -17.667 37 -27v-15
c-120 0 -234.667 -81.333 -344 -244l-48 -48c-17.333 0 -45.666 19.333 -84.999 58v16c78 79.333 148.667 180 212 302l58 -16v6l-21 84v38c0 26.667 7 42.334 21 47.001zM835.997 1570l5 -5c-12.667 -57.333 -32 -103.333 -58 -138c-58 -60 -116.333 -90 -175 -90h-5v5
c28.667 50 58.667 75 90 75c60 40 90 82.333 90 127z" />
    <glyph glyph-name="Acircumflex" unicode="&#xc2;" horiz-adv-x="1185" 
d="M567 1283h11c32 -0.666992 93.667 -127.667 185 -381c39.333 -84.667 96 -227.667 170 -429l74 -180c6 0 11.333 -9 16 -27c6 0 14.667 -10.667 26 -32c53.333 -28 80 -45.667 80 -53c0 -24.667 -23 -37 -69 -37h-175l-48 -5c-16 6.66699 -24.667 13.667 -26 21v21l32 37
v32c-20 22.667 -36 59.667 -48 111c-13.333 46 -27.333 69 -42 69c-8.66699 24.667 -16 37 -22 37h-264c-60 -140 -90 -226.333 -90 -259c17.333 -9.33301 26 -23.666 26 -42.999c-4.66699 -17.333 -17 -26 -37 -26h-265c-24.667 0 -37 12.333 -37 37v5l85 64
c25.333 32.667 55.333 105 90 217c6.66699 0 10 9 10 27c28.667 57.333 90.667 219.666 186 486.999c75.333 204.667 119.333 307 132 307zM414 1013h10c0 -37.333 -19.333 -60.333 -58 -69c-38.667 -38 -58 -82 -58 -132l21 -53l-32 -96h-5c-42.667 48.667 -64 100 -64 154
c0 78 47.667 139.667 143 185zM588 902c-42 -178 -66.667 -270 -74 -276v-10l59 5l100 -5v5c-24.667 67.333 -51 161 -79 281h-6zM843 775l4.99902 -0.000976562c50 -28.667 90.667 -43 122 -43l37 16c14 -5.33301 21 -10.666 21 -15.999
c-21.333 -54 -33.666 -96.333 -36.999 -127c3.33301 -34 14 -71 32 -111l26 5h6l10 -10v-16l-10 -11h-6c-36 0 -74.667 42.333 -116 127l-48 27v47zM609.999 731.999h10l21 -58c-12 -28 -20.667 -42 -26 -42h-64v10c0 18.667 19.667 48.667 59 90zM481.999 435.999
c17.333 0 57.999 -17.6699 121.999 -53.0029h48l32 10c14 -3.33301 21 -10.333 21 -21c-24.667 -49.333 -37 -84.666 -37 -105.999c6 -57.333 16.667 -99.666 32 -126.999l16 11h10c10.667 0 16 -7.33301 16 -22l-16 -21c-36 0 -76.667 44.333 -122 133l-47 26l5 27v10
c0 47.333 -35.333 77.333 -106 90v11c4.66699 14.667 13.334 25.334 26.001 32.001zM746.998 376.996l11 0.000976562c28 -28.667 42 -60.334 42 -95.001v-5c-46.667 -50 -80 -75 -100 -75l-11 43v21c38.667 38 58 75 58 111zM587.998 212.997c18 -18.667 27 -32.667 27 -42
c-26.667 -10.667 -65.667 -16 -117 -16h-63l-11 10v27l11 10h47zM564.998 1798l9.99805 -0.000976562c24.667 -16 58.334 -65.333 101.001 -148c42 -60 93 -162 153 -306v-8c-3.33301 -8.66699 -13.666 -13 -30.999 -13h-75c-26 0 -50.667 41.667 -74 125
c-28.667 58.667 -46.334 88.334 -53.001 89.001l-120 -210l-5 -4h-145l-21 21v4c98.667 202.667 185.334 352.667 260.001 450z" />
    <glyph glyph-name="Atilde" unicode="&#xc3;" horiz-adv-x="1185" 
d="M567 1283h11c32 -0.666992 93.667 -127.667 185 -381c39.333 -84.667 96 -227.667 170 -429l74 -180c6 0 11.333 -9 16 -27c6 0 14.667 -10.667 26 -32c53.333 -28 80 -45.667 80 -53c0 -24.667 -23 -37 -69 -37h-175l-48 -5c-16 6.66699 -24.667 13.667 -26 21v21l32 37
v32c-20 22.667 -36 59.667 -48 111c-13.333 46 -27.333 69 -42 69c-8.66699 24.667 -16 37 -22 37h-264c-60 -140 -90 -226.333 -90 -259c17.333 -9.33301 26 -23.666 26 -42.999c-4.66699 -17.333 -17 -26 -37 -26h-265c-24.667 0 -37 12.333 -37 37v5l85 64
c25.333 32.667 55.333 105 90 217c6.66699 0 10 9 10 27c28.667 57.333 90.667 219.666 186 486.999c75.333 204.667 119.333 307 132 307zM414 1013h10c0 -37.333 -19.333 -60.333 -58 -69c-38.667 -38 -58 -82 -58 -132l21 -53l-32 -96h-5c-42.667 48.667 -64 100 -64 154
c0 78 47.667 139.667 143 185zM588 902c-42 -178 -66.667 -270 -74 -276v-10l59 5l100 -5v5c-24.667 67.333 -51 161 -79 281h-6zM843 775l4.99902 -0.000976562c50 -28.667 90.667 -43 122 -43l37 16c14 -5.33301 21 -10.666 21 -15.999
c-21.333 -54 -33.666 -96.333 -36.999 -127c3.33301 -34 14 -71 32 -111l26 5h6l10 -10v-16l-10 -11h-6c-36 0 -74.667 42.333 -116 127l-48 27v47zM609.999 731.999h10l21 -58c-12 -28 -20.667 -42 -26 -42h-64v10c0 18.667 19.667 48.667 59 90zM481.999 435.999
c17.333 0 57.999 -17.6699 121.999 -53.0029h48l32 10c14 -3.33301 21 -10.333 21 -21c-24.667 -49.333 -37 -84.666 -37 -105.999c6 -57.333 16.667 -99.666 32 -126.999l16 11h10c10.667 0 16 -7.33301 16 -22l-16 -21c-36 0 -76.667 44.333 -122 133l-47 26l5 27v10
c0 47.333 -35.333 77.333 -106 90v11c4.66699 14.667 13.334 25.334 26.001 32.001zM746.998 376.996l11 0.000976562c28 -28.667 42 -60.334 42 -95.001v-5c-46.667 -50 -80 -75 -100 -75l-11 43v21c38.667 38 58 75 58 111zM587.998 212.997c18 -18.667 27 -32.667 27 -42
c-26.667 -10.667 -65.667 -16 -117 -16h-63l-11 10v27l11 10h47zM438.998 1747c79.333 0 144.667 -44.333 196 -133c43.333 -38.667 80.333 -58 111 -58c63.333 0 121.666 28.333 174.999 85l37 100h31c8 0 15.333 -12.333 22 -37c-38 -208 -124.667 -312 -260 -312
c-76 0 -146.667 53 -212 159c-49.333 31.333 -98.666 47 -147.999 47h-5c-68.667 0 -120 -51 -154 -153c0 -32 -5.33301 -48 -16 -48h-21l-16 16c0 130 46 230.667 138 302c33.333 21.333 74 32 122 32z" />
    <glyph glyph-name="Adieresis" unicode="&#xc4;" horiz-adv-x="1185" 
d="M567 1283h11c32 -0.666992 93.667 -127.667 185 -381c39.333 -84.667 96 -227.667 170 -429l74 -180c6 0 11.333 -9 16 -27c6 0 14.667 -10.667 26 -32c53.333 -28 80 -45.667 80 -53c0 -24.667 -23 -37 -69 -37h-175l-48 -5c-16 6.66699 -24.667 13.667 -26 21v21l32 37
v32c-20 22.667 -36 59.667 -48 111c-13.333 46 -27.333 69 -42 69c-8.66699 24.667 -16 37 -22 37h-264c-60 -140 -90 -226.333 -90 -259c17.333 -9.33301 26 -23.666 26 -42.999c-4.66699 -17.333 -17 -26 -37 -26h-265c-24.667 0 -37 12.333 -37 37v5l85 64
c25.333 32.667 55.333 105 90 217c6.66699 0 10 9 10 27c28.667 57.333 90.667 219.666 186 486.999c75.333 204.667 119.333 307 132 307zM414 1013h10c0 -37.333 -19.333 -60.333 -58 -69c-38.667 -38 -58 -82 -58 -132l21 -53l-32 -96h-5c-42.667 48.667 -64 100 -64 154
c0 78 47.667 139.667 143 185zM588 902c-42 -178 -66.667 -270 -74 -276v-10l59 5l100 -5v5c-24.667 67.333 -51 161 -79 281h-6zM843 775l4.99902 -0.000976562c50 -28.667 90.667 -43 122 -43l37 16c14 -5.33301 21 -10.666 21 -15.999
c-21.333 -54 -33.666 -96.333 -36.999 -127c3.33301 -34 14 -71 32 -111l26 5h6l10 -10v-16l-10 -11h-6c-36 0 -74.667 42.333 -116 127l-48 27v47zM609.999 731.999h10l21 -58c-12 -28 -20.667 -42 -26 -42h-64v10c0 18.667 19.667 48.667 59 90zM481.999 435.999
c17.333 0 57.999 -17.6699 121.999 -53.0029h48l32 10c14 -3.33301 21 -10.333 21 -21c-24.667 -49.333 -37 -84.666 -37 -105.999c6 -57.333 16.667 -99.666 32 -126.999l16 11h10c10.667 0 16 -7.33301 16 -22l-16 -21c-36 0 -76.667 44.333 -122 133l-47 26l5 27v10
c0 47.333 -35.333 77.333 -106 90v11c4.66699 14.667 13.334 25.334 26.001 32.001zM746.998 376.996l11 0.000976562c28 -28.667 42 -60.334 42 -95.001v-5c-46.667 -50 -80 -75 -100 -75l-11 43v21c38.667 38 58 75 58 111zM587.998 212.997c18 -18.667 27 -32.667 27 -42
c-26.667 -10.667 -65.667 -16 -117 -16h-63l-11 10v27l11 10h47zM734.998 1706l117 -6l63 6c32 -2 48 -16.333 48 -43v-90c0 -26.667 30 -47.667 90 -63l16 -22v-15l-21 -22h-80l-169 6l-64 -6c-20 0 -32.333 19.667 -37 59v169c10.667 18 23 27 37 27zM500.998 1679v-169
c-4.66699 -39.333 -17 -59 -37 -59l-64 6l-169 -6h-80l-21 22v15l16 22c60 15.333 90 36.333 90 63v90c0 26.667 16 41 48 43l63 -6l117 6c14 0 26.333 -9 37 -27z" />
    <glyph glyph-name="Aring" unicode="&#xc5;" horiz-adv-x="1185" 
d="M567 1283h11c32 -0.666992 93.667 -127.667 185 -381c39.333 -84.667 96 -227.667 170 -429l74 -180c6 0 11.333 -9 16 -27c6 0 14.667 -10.667 26 -32c53.333 -28 80 -45.667 80 -53c0 -24.667 -23 -37 -69 -37h-175l-48 -5c-16 6.66699 -24.667 13.667 -26 21v21l32 37
v32c-20 22.667 -36 59.667 -48 111c-13.333 46 -27.333 69 -42 69c-8.66699 24.667 -16 37 -22 37h-264c-60 -140 -90 -226.333 -90 -259c17.333 -9.33301 26 -23.666 26 -42.999c-4.66699 -17.333 -17 -26 -37 -26h-265c-24.667 0 -37 12.333 -37 37v5l85 64
c25.333 32.667 55.333 105 90 217c6.66699 0 10 9 10 27c28.667 57.333 90.667 219.666 186 486.999c75.333 204.667 119.333 307 132 307zM414 1013h10c0 -37.333 -19.333 -60.333 -58 -69c-38.667 -38 -58 -82 -58 -132l21 -53l-32 -96h-5c-42.667 48.667 -64 100 -64 154
c0 78 47.667 139.667 143 185zM588 902c-42 -178 -66.667 -270 -74 -276v-10l59 5l100 -5v5c-24.667 67.333 -51 161 -79 281h-6zM843 775l4.99902 -0.000976562c50 -28.667 90.667 -43 122 -43l37 16c14 -5.33301 21 -10.666 21 -15.999
c-21.333 -54 -33.666 -96.333 -36.999 -127c3.33301 -34 14 -71 32 -111l26 5h6l10 -10v-16l-10 -11h-6c-36 0 -74.667 42.333 -116 127l-48 27v47zM609.999 731.999h10l21 -58c-12 -28 -20.667 -42 -26 -42h-64v10c0 18.667 19.667 48.667 59 90zM481.999 435.999
c17.333 0 57.999 -17.6699 121.999 -53.0029h48l32 10c14 -3.33301 21 -10.333 21 -21c-24.667 -49.333 -37 -84.666 -37 -105.999c6 -57.333 16.667 -99.666 32 -126.999l16 11h10c10.667 0 16 -7.33301 16 -22l-16 -21c-36 0 -76.667 44.333 -122 133l-47 26l5 27v10
c0 47.333 -35.333 77.333 -106 90v11c4.66699 14.667 13.334 25.334 26.001 32.001zM746.998 376.996l11 0.000976562c28 -28.667 42 -60.334 42 -95.001v-5c-46.667 -50 -80 -75 -100 -75l-11 43v21c38.667 38 58 75 58 111zM587.998 212.997c18 -18.667 27 -32.667 27 -42
c-26.667 -10.667 -65.667 -16 -117 -16h-63l-11 10v27l11 10h47zM572.998 1825h49.999c5.33301 -3.33301 22.333 -6.33301 51 -9l3 -3c58.667 -16 102.667 -44.667 132 -86c18 -16.667 36.667 -48.334 56 -95.001c0 -10.667 2 -17.334 6 -20.001v-61
c-4 0 -6.66699 -15.333 -8 -46c-16.667 -47.333 -31.667 -73.666 -45 -78.999c-20.667 -30 -56 -54.667 -106 -74c-15.333 -11.333 -52.666 -20 -111.999 -26l-23 -2c-37.333 0 -87.333 15.333 -150 46c-47.333 26 -76 55.333 -86 88c-20 48 -30 94 -30 138v11l7 7v9
c0 20.667 7.66699 43.334 23 68.001l-6 4h-3l-21 -2c-8.66699 17.333 -29 31 -61 41c-18 14 -27 24.333 -27 31v2c0 3.33301 4.66699 5.66602 14 6.99902l9 -9l-5 -10c22 -9.33301 42.667 -14 62 -14c18 0 41.333 5.66699 70 17l9 -10l-6 -14c40 37.333 81.333 63 124 77
c38 4.66699 62.333 9.33398 73 14.001zM446.997 1600l-0.00195312 -34.999c0 -72 22.333 -120.667 67 -146c32.667 -26 62.334 -39 89.001 -39c24.667 1.33301 52.334 13.666 83.001 36.999c33.333 34 50 78 50 132v23c0 39.333 -9 79 -27 119
c0 18.667 -15.667 38.667 -47 60c-26 9.33301 -52.667 14 -80 14c-57.333 0 -97.333 -25.667 -120 -77c-10 -20 -15 -49.333 -15 -88z" />
    <glyph glyph-name="AE" unicode="&#xc6;" horiz-adv-x="1553" 
d="M679 1243h714.998c21.333 -18.667 32 -46.667 32 -84c-9.33301 0 -18 -47.667 -26 -143l-27 -11c-13.333 4 -32.666 27 -57.999 69c-27.333 17.333 -80.333 26 -159 26h-37l-16 11h-201v-58c0 -13.333 33.333 -24 100 -32c18.667 0 54 10.667 106 32v5l-10 16v5l16 16h10
l16 -16c0 -35.333 -42.333 -74 -127 -116c-17.333 -21.333 -26 -37.333 -26 -48h-38l-42 -11l5 -5v-101h249c10.667 0 32 14.333 64 43c20.667 0 36.667 -12.333 48 -37v-21l-11 -16v-149l-16 -16h-21c-22 28.667 -46.667 50 -74 64h-249v-5l-6 -212l6 -111l5 -6
c0 -17.333 21.333 -26 64 -26c0 -10.667 23 -16 69 -16h100l5 -5l6 5h111c37.333 0 67.333 8.66699 90 26c18 0 42.667 12.333 74 37h16c14 -4.66699 21 -9.66699 21 -15v-22l-84 -153l-43 -16h-434l-16 10h-233c-46 2.66699 -69 10 -69 22v16c56.667 38.667 85 132 85 280
h-159c-60 -140 -90 -226.333 -90 -259l26 -32c0 -24.667 -12.333 -37 -37 -37h-265c-24.667 0 -37 12.333 -37 37v5l80 59c28 32 59.667 106 95 222c7.33301 0 14.333 17.667 21 53l-5 5h-5c-21.333 -2 -32 -7.33301 -32 -16v-5l5 -32l-26 -69
c-77.333 42.667 -128.666 64 -153.999 64v11c88.667 0 147 67 175 201v5c-9.33301 49.333 -20 74 -32 74l-16 -16l-16 16v11l16 16h5c63.333 0 100.666 -69 111.999 -207h5l111 286l85 212c38.667 100 63.334 153 74.001 159zM509.998 1084l4.99902 -5
c-12 -36 -29.667 -59 -53 -69c-35.333 -31.333 -53 -66.666 -53 -105.999l5 -74c-15.333 -42.667 -27.666 -67.334 -36.999 -74.001c-35.333 41.333 -53 85.333 -53 132c0 74.667 47.667 136.667 143 186zM631.997 910c-42.667 -178 -67.667 -270 -75 -276v-10h122l6 68
c0 32 -16 102.667 -48 212v6h-5zM933.997 650h25.999c67.333 -26 101 -82.333 101 -169c0 -62 -21.333 -118.667 -64 -170h-5c-46 0 -69 5.33301 -69 16v11c0.666992 6.66699 18.334 17 53.001 31c24.667 24 37 61.333 37 112c0 42 -31.667 80.667 -95 116v5
c2 32 7.33301 48 16 48zM451.996 285l105 -11h59l5 -5h5l-31 -43h-38c-71.333 0 -110 9 -116 27z" />
    <glyph glyph-name="Ccedilla" unicode="&#xc7;" horiz-adv-x="1232" 
d="M329 1294h16l11 -11v-16c0 -26.667 -33.667 -67.334 -101 -122.001c-14 -20 -22.667 -39.333 -26 -58c-70.667 0 -106 -31.667 -106 -95l16 -85c-10.667 -38.667 -19.667 -58 -27 -58c-24.667 42.667 -37 90.334 -37 143.001l32 127v5c0 27.333 -9 50.333 -27 69l16 27
c32 -14.667 67.333 -22 106 -22c42.667 0 85 19.667 127 59l-10 10v16zM575 140c-64.667 19.333 -132.33 50.667 -202.997 94c0 8.66699 -19.667 23 -59 43c0 10.667 -5.33301 16 -16 16l-90 111h-5c-28.667 -12 -53.334 -28 -74.001 -48l16 -16v-5l-16 -16h-11
c-8.66699 0 -14 7 -16 21c0 30 25 63.667 75 101c6.66699 0 10 5.33301 10 16c-42 100.667 -63 185.334 -63 254.001v53c0 32 21 101 63 207c38 74.667 89.333 140 154 196c19.333 24.667 44 37 74 37c90 46 174.667 69 254 69h59c99.333 0 201.666 -21.333 306.999 -64h53
l16 11l21 -22v-121c0 -81.333 -9 -122 -27 -122h-10c-20.667 6 -40 39.333 -58 100l-48 43c-70 28.667 -151.333 43 -244 43c-136.667 13.333 -236 -40 -298 -160c-46 -81.333 -69 -152 -69 -212c0 -86.667 30.333 -203 91 -349
c51.333 -63.333 102.666 -105.666 153.999 -126.999c3.33301 -8.66699 38.666 -19.334 105.999 -32.001l6 -6h127c120 21.333 180 46.333 180 75c17.333 6.66699 26 17 26 31l27 11l26 -26v-38c-8.66699 -11.333 -21 -50 -37 -116c-50 -36 -126 -58.667 -228 -68
c46 -50.667 69.667 -104.334 71 -161.001c4.66699 -174.667 -126.666 -290 -393.999 -346c-32 8 -48.333 17 -49 27l-1 41l128 50c71.333 71.333 106 148 104 230c-0.666992 39.333 -26.667 86.333 -78 141c-20 10.667 -38 22 -54 34zM455.004 552.001h16
c162.667 0 269 -68.667 319 -206l58 -59v-5l-37 -5h-37c-60 0 -83.333 14 -70 42c-25.333 78 -76.333 117 -153 117h-16l-53 -6c-24.667 41.333 -37 73.333 -37 96v16zM423.004 870.001c38 0 85.666 -17.667 142.999 -53l27 -5h26c12 0 24.667 5.33301 38 16
c14 -7.33301 21 -16.333 21 -27c-24.667 -40.667 -37 -83 -37 -127c0 -20 10.333 -55.333 31 -106l16 11h11l16 -16v-6l-21 -21c-35.333 8 -74.333 52.333 -117 133l-48 31l6 27c0 59.333 -44.333 93 -133 101h-5c4.66699 28 13.334 42 26.001 42z" />
    <glyph glyph-name="Egrave" unicode="&#xc8;" horiz-adv-x="1105" 
d="M197 1230l735.997 0.000976562c21.333 -16 32 -44.333 32 -85c-10 0 -19 -47.667 -27 -143l-32 -10c-35.333 56.667 -68.666 85 -99.999 85l-53 15l-270 6h-43v-207l11 -16v-90h259c28.667 28.667 48.334 43 59.001 43c19.333 0 33.333 -12.667 42 -38v-21l-10 -16v-132
c0 -18 -5.33301 -28.667 -16 -32h-22c-29.333 42.667 -59.333 64 -90 64h-233v-101l-5 -63l11 -122l-6 -37c7.33301 0 11 -10.667 11 -32c38.667 0 70.334 -7 95.001 -21h286c46 24.667 78 37 96 37c0 17.333 17.667 26 53 26l21 -16v-21c-10 -8.66699 -38.333 -58 -85 -148
c-12 -10.667 -33.333 -16 -64 -16h-376l-100 11l-196 -6c-26 0 -45.667 9 -59 27v10c56.667 44 85 137.667 85 281l11 11v127l5 74l-5 5v6l5 31v27c-14 0 -21 -21.333 -21 -64v-58c-88 42.667 -139.333 64 -154 64h-5v5l5 5c106 41.333 159 110.333 159 207
c0 38.667 -10.667 65 -32 79c0 -10.667 -3.33301 -16 -10 -16h-5l-16 16v5c1.33301 7.33301 10 14.666 26 21.999l37 -11v5l-5 175c-32 0 -48 12.333 -48 37c2.66699 10.667 17 16 43 16zM471.997 642.001l85 0.000976562l10 -10v-48c0 -16.667 10.667 -48.334 32 -95.001
l16 10h11l10 -10v-16l-10 -11h-6c-34.667 0 -71.667 40.667 -111 122l-53 42zM466.997 473.002c86 0 167.001 -55 243.001 -165v-15c-72.667 0 -125.334 15.667 -158.001 47c-60.667 15.333 -91 26 -91 32l-5 69zM535.998 1809l-0.000976562 -37.999l-21 -84v-6l58 16
c63.333 -122 134 -222.667 212 -302v-16c-39.333 -38.667 -67.666 -58 -84.999 -58l-48 48c-109.333 162.667 -224 244 -344 244v15c24.667 9.33301 37 18.333 37 27c32 2.66699 48 8 48 16c46 0 86.667 47.667 122 143c-18 0 -27 5.33301 -27 16v5l21 21h6
c14 -4.66699 21 -20.334 21 -47.001zM471.997 1544c0 -44.667 30 -87 90 -127c31.333 0 61.333 -25 90 -75v-5h-5c-58.667 0 -117 30 -175 90c-26 34.667 -45.333 80.667 -58 138l5 5z" />
    <glyph glyph-name="Eacute" unicode="&#xc9;" horiz-adv-x="1105" 
d="M197 1230l735.997 0.000976562c21.333 -16 32 -44.333 32 -85c-10 0 -19 -47.667 -27 -143l-32 -10c-35.333 56.667 -68.666 85 -99.999 85l-53 15l-270 6h-43v-207l11 -16v-90h259c28.667 28.667 48.334 43 59.001 43c19.333 0 33.333 -12.667 42 -38v-21l-10 -16v-132
c0 -18 -5.33301 -28.667 -16 -32h-22c-29.333 42.667 -59.333 64 -90 64h-233v-101l-5 -63l11 -122l-6 -37c7.33301 0 11 -10.667 11 -32c38.667 0 70.334 -7 95.001 -21h286c46 24.667 78 37 96 37c0 17.333 17.667 26 53 26l21 -16v-21c-10 -8.66699 -38.333 -58 -85 -148
c-12 -10.667 -33.333 -16 -64 -16h-376l-100 11l-196 -6c-26 0 -45.667 9 -59 27v10c56.667 44 85 137.667 85 281l11 11v127l5 74l-5 5v6l5 31v27c-14 0 -21 -21.333 -21 -64v-58c-88 42.667 -139.333 64 -154 64h-5v5l5 5c106 41.333 159 110.333 159 207
c0 38.667 -10.667 65 -32 79c0 -10.667 -3.33301 -16 -10 -16h-5l-16 16v5c1.33301 7.33301 10 14.666 26 21.999l37 -11v5l-5 175c-32 0 -48 12.333 -48 37c2.66699 10.667 17 16 43 16zM471.997 642.001l85 0.000976562l10 -10v-48c0 -16.667 10.667 -48.334 32 -95.001
l16 10h11l10 -10v-16l-10 -11h-6c-34.667 0 -71.667 40.667 -111 122l-53 42zM466.997 473.002c86 0 167.001 -55 243.001 -165v-15c-72.667 0 -125.334 15.667 -158.001 47c-60.667 15.333 -91 26 -91 32l-5 69zM644.998 1856l5.99902 -0.000976562l21 -21v-5
c0 -10.667 -9 -16 -27 -16c35.333 -95.333 76 -143 122 -143c0 -8 16 -13.333 48 -16c0 -8.66699 12.333 -17.667 37 -27v-15c-120 0 -234.667 -81.333 -344 -244l-48 -48c-17.333 0 -45.666 19.333 -84.999 58v16c78 79.333 148.667 180 212 302l58 -16v6l-21 84v38
c0 26.667 7 42.334 21 47.001zM740.997 1570l5 -5c-12.667 -57.333 -32 -103.333 -58 -138c-58 -60 -116.333 -90 -175 -90h-5v5c28.667 50 58.667 75 90 75c60 40 90 82.333 90 127z" />
    <glyph glyph-name="Ecircumflex" unicode="&#xca;" horiz-adv-x="1105" 
d="M197 1230l735.997 0.000976562c21.333 -16 32 -44.333 32 -85c-10 0 -19 -47.667 -27 -143l-32 -10c-35.333 56.667 -68.666 85 -99.999 85l-53 15l-270 6h-43v-207l11 -16v-90h259c28.667 28.667 48.334 43 59.001 43c19.333 0 33.333 -12.667 42 -38v-21l-10 -16v-132
c0 -18 -5.33301 -28.667 -16 -32h-22c-29.333 42.667 -59.333 64 -90 64h-233v-101l-5 -63l11 -122l-6 -37c7.33301 0 11 -10.667 11 -32c38.667 0 70.334 -7 95.001 -21h286c46 24.667 78 37 96 37c0 17.333 17.667 26 53 26l21 -16v-21c-10 -8.66699 -38.333 -58 -85 -148
c-12 -10.667 -33.333 -16 -64 -16h-376l-100 11l-196 -6c-26 0 -45.667 9 -59 27v10c56.667 44 85 137.667 85 281l11 11v127l5 74l-5 5v6l5 31v27c-14 0 -21 -21.333 -21 -64v-58c-88 42.667 -139.333 64 -154 64h-5v5l5 5c106 41.333 159 110.333 159 207
c0 38.667 -10.667 65 -32 79c0 -10.667 -3.33301 -16 -10 -16h-5l-16 16v5c1.33301 7.33301 10 14.666 26 21.999l37 -11v5l-5 175c-32 0 -48 12.333 -48 37c2.66699 10.667 17 16 43 16zM471.997 642.001l85 0.000976562l10 -10v-48c0 -16.667 10.667 -48.334 32 -95.001
l16 10h11l10 -10v-16l-10 -11h-6c-34.667 0 -71.667 40.667 -111 122l-53 42zM466.997 473.002c86 0 167.001 -55 243.001 -165v-15c-72.667 0 -125.334 15.667 -158.001 47c-60.667 15.333 -91 26 -91 32l-5 69zM563.998 1798l9.99805 -0.000976562
c24.667 -16 58.334 -65.333 101.001 -148c42 -60 93 -162 153 -306v-8c-3.33301 -8.66699 -13.666 -13 -30.999 -13h-75c-26 0 -50.667 41.667 -74 125c-28.667 58.667 -46.334 88.334 -53.001 89.001l-120 -210l-5 -4h-145l-21 21v4
c98.667 202.667 185.334 352.667 260.001 450z" />
    <glyph glyph-name="Edieresis" unicode="&#xcb;" horiz-adv-x="1105" 
d="M197 1230l735.997 0.000976562c21.333 -16 32 -44.333 32 -85c-10 0 -19 -47.667 -27 -143l-32 -10c-35.333 56.667 -68.666 85 -99.999 85l-53 15l-270 6h-43v-207l11 -16v-90h259c28.667 28.667 48.334 43 59.001 43c19.333 0 33.333 -12.667 42 -38v-21l-10 -16v-132
c0 -18 -5.33301 -28.667 -16 -32h-22c-29.333 42.667 -59.333 64 -90 64h-233v-101l-5 -63l11 -122l-6 -37c7.33301 0 11 -10.667 11 -32c38.667 0 70.334 -7 95.001 -21h286c46 24.667 78 37 96 37c0 17.333 17.667 26 53 26l21 -16v-21c-10 -8.66699 -38.333 -58 -85 -148
c-12 -10.667 -33.333 -16 -64 -16h-376l-100 11l-196 -6c-26 0 -45.667 9 -59 27v10c56.667 44 85 137.667 85 281l11 11v127l5 74l-5 5v6l5 31v27c-14 0 -21 -21.333 -21 -64v-58c-88 42.667 -139.333 64 -154 64h-5v5l5 5c106 41.333 159 110.333 159 207
c0 38.667 -10.667 65 -32 79c0 -10.667 -3.33301 -16 -10 -16h-5l-16 16v5c1.33301 7.33301 10 14.666 26 21.999l37 -11v5l-5 175c-32 0 -48 12.333 -48 37c2.66699 10.667 17 16 43 16zM471.997 642.001l85 0.000976562l10 -10v-48c0 -16.667 10.667 -48.334 32 -95.001
l16 10h11l10 -10v-16l-10 -11h-6c-34.667 0 -71.667 40.667 -111 122l-53 42zM466.997 473.002c86 0 167.001 -55 243.001 -165v-15c-72.667 0 -125.334 15.667 -158.001 47c-60.667 15.333 -91 26 -91 32l-5 69zM727.998 1706l117 -6l63 6c32 -2 48 -16.333 48 -43v-90
c0 -26.667 30 -47.667 90 -63l16 -22v-15l-21 -22h-80l-169 6l-64 -6c-20 0 -32.333 19.667 -37 59v169c10.667 18 23 27 37 27zM493.998 1679v-169c-4.66699 -39.333 -17 -59 -37 -59l-64 6l-169 -6h-80l-21 22v15l16 22c60 15.333 90 36.333 90 63v90
c0 26.667 16 41 48 43l63 -6l117 6c14 0 26.333 -9 37 -27z" />
    <glyph glyph-name="Igrave" unicode="&#xcc;" horiz-adv-x="751" 
d="M190 1230l90.001 -4.99902h217c24.667 0 37 -12.333 37 -37l-47 -37c-18 0 -27 -47.667 -27 -143v-69l-11 -16v-69l-5 -58l5 -69v-80l-5 -26l5 -32v-196l-5 -32l5 -15l-5 -96c0 -19.333 9 -37 27 -53c28 -14.667 42 -32.334 42 -53.001l-11 -21l-111 5l-164 -5
c-38 0 -64.667 9 -80 27v21c0 6.66699 16 13.667 48 21c14 12.667 21 49.667 21 111v58l-42 -10c-8.66699 0 -14 7 -16 21c24.667 42.667 37 85 37 127c0 20 -10.667 55.333 -32 106l-16 -11h-10l-16 16v6l21 21c56.667 -30 85 -60 85 -90h5l6 100l-6 408
c-2.66699 78 -18.334 117 -47.001 117l-22 16c0 21.333 9 35.333 27 42zM492.001 1071l32 -10.001h42l32 10c14 -3.33301 21 -10.333 21 -21c-24.667 -44 -37 -86.333 -37 -127c0 -23.333 10.667 -58.666 32 -105.999l16 11h10c10.667 0 16 -7.33301 16 -22l-16 -21
c-34 0 -67.667 33.667 -101 101c0 7.33301 -21 28.333 -63 63l5 32l-5 5l5 38v37zM211.001 1066l5 -5v-6l-5 -121l5 -191h-5c-56.667 56.667 -85 115 -85 175c0 48 28.333 97.333 85 148zM471.001 743h5c116.667 -66 175 -145.667 175 -239
c0 -67.333 -44.333 -127.333 -133 -180l-47 -16l-6 6v37c67.333 39.333 101 83.333 101 132v27c0 37.333 -30 74.333 -90 111l-5 48v74zM233.001 1809l-0.000976562 -37.999l-21 -84v-6l58 16c63.333 -122 134 -222.667 212 -302v-16
c-39.333 -38.667 -67.666 -58 -84.999 -58l-48 48c-109.333 162.667 -224 244 -344 244v15c24.667 9.33301 37 18.333 37 27c32 2.66699 48 8 48 16c46 0 86.667 47.667 122 143c-18 0 -27 5.33301 -27 16v5l21 21h6c14 -4.66699 21 -20.334 21 -47.001zM169 1544
c0 -44.667 30 -87 90 -127c31.333 0 61.333 -25 90 -75v-5h-5c-58.667 0 -117 30 -175 90c-26 34.667 -45.333 80.667 -58 138l5 5z" />
    <glyph glyph-name="Iacute" unicode="&#xcd;" horiz-adv-x="751" 
d="M190 1230l90.001 -4.99902h217c24.667 0 37 -12.333 37 -37l-47 -37c-18 0 -27 -47.667 -27 -143v-69l-11 -16v-69l-5 -58l5 -69v-80l-5 -26l5 -32v-196l-5 -32l5 -15l-5 -96c0 -19.333 9 -37 27 -53c28 -14.667 42 -32.334 42 -53.001l-11 -21l-111 5l-164 -5
c-38 0 -64.667 9 -80 27v21c0 6.66699 16 13.667 48 21c14 12.667 21 49.667 21 111v58l-42 -10c-8.66699 0 -14 7 -16 21c24.667 42.667 37 85 37 127c0 20 -10.667 55.333 -32 106l-16 -11h-10l-16 16v6l21 21c56.667 -30 85 -60 85 -90h5l6 100l-6 408
c-2.66699 78 -18.334 117 -47.001 117l-22 16c0 21.333 9 35.333 27 42zM492.001 1071l32 -10.001h42l32 10c14 -3.33301 21 -10.333 21 -21c-24.667 -44 -37 -86.333 -37 -127c0 -23.333 10.667 -58.666 32 -105.999l16 11h10c10.667 0 16 -7.33301 16 -22l-16 -21
c-34 0 -67.667 33.667 -101 101c0 7.33301 -21 28.333 -63 63l5 32l-5 5l5 38v37zM211.001 1066l5 -5v-6l-5 -121l5 -191h-5c-56.667 56.667 -85 115 -85 175c0 48 28.333 97.333 85 148zM471.001 743h5c116.667 -66 175 -145.667 175 -239
c0 -67.333 -44.333 -127.333 -133 -180l-47 -16l-6 6v37c67.333 39.333 101 83.333 101 132v27c0 37.333 -30 74.333 -90 111l-5 48v74zM503.001 1856l5.99902 -0.000976562l21 -21v-5c0 -10.667 -9 -16 -27 -16c35.333 -95.333 76 -143 122 -143c0 -8 16 -13.333 48 -16
c0 -8.66699 12.333 -17.667 37 -27v-15c-120 0 -234.667 -81.333 -344 -244l-48 -48c-17.333 0 -45.666 19.333 -84.999 58v16c78 79.333 148.667 180 212 302l58 -16v6l-21 84v38c0 26.667 7 42.334 21 47.001zM599 1570l5 -5c-12.667 -57.333 -32 -103.333 -58 -138
c-58 -60 -116.333 -90 -175 -90h-5v5c28.667 50 58.667 75 90 75c60 40 90 82.333 90 127z" />
    <glyph glyph-name="Icircumflex" unicode="&#xce;" horiz-adv-x="751" 
d="M190 1230l90.001 -4.99902h217c24.667 0 37 -12.333 37 -37l-47 -37c-18 0 -27 -47.667 -27 -143v-69l-11 -16v-69l-5 -58l5 -69v-80l-5 -26l5 -32v-196l-5 -32l5 -15l-5 -96c0 -19.333 9 -37 27 -53c28 -14.667 42 -32.334 42 -53.001l-11 -21l-111 5l-164 -5
c-38 0 -64.667 9 -80 27v21c0 6.66699 16 13.667 48 21c14 12.667 21 49.667 21 111v58l-42 -10c-8.66699 0 -14 7 -16 21c24.667 42.667 37 85 37 127c0 20 -10.667 55.333 -32 106l-16 -11h-10l-16 16v6l21 21c56.667 -30 85 -60 85 -90h5l6 100l-6 408
c-2.66699 78 -18.334 117 -47.001 117l-22 16c0 21.333 9 35.333 27 42zM492.001 1071l32 -10.001h42l32 10c14 -3.33301 21 -10.333 21 -21c-24.667 -44 -37 -86.333 -37 -127c0 -23.333 10.667 -58.666 32 -105.999l16 11h10c10.667 0 16 -7.33301 16 -22l-16 -21
c-34 0 -67.667 33.667 -101 101c0 7.33301 -21 28.333 -63 63l5 32l-5 5l5 38v37zM211.001 1066l5 -5v-6l-5 -121l5 -191h-5c-56.667 56.667 -85 115 -85 175c0 48 28.333 97.333 85 148zM471.001 743h5c116.667 -66 175 -145.667 175 -239
c0 -67.333 -44.333 -127.333 -133 -180l-47 -16l-6 6v37c67.333 39.333 101 83.333 101 132v27c0 37.333 -30 74.333 -90 111l-5 48v74zM341.001 1798l9.99805 -0.000976562c24.667 -16 58.334 -65.333 101.001 -148c42 -60 93 -162 153 -306v-8
c-3.33301 -8.66699 -13.666 -13 -30.999 -13h-75c-26 0 -50.667 41.667 -74 125c-28.667 58.667 -46.334 88.334 -53.001 89.001l-120 -210l-5 -4h-145l-21 21v4c98.667 202.667 185.334 352.667 260.001 450z" />
    <glyph glyph-name="Idieresis" unicode="&#xcf;" horiz-adv-x="751" 
d="M190 1230l90.001 -4.99902h217c24.667 0 37 -12.333 37 -37l-47 -37c-18 0 -27 -47.667 -27 -143v-69l-11 -16v-69l-5 -58l5 -69v-80l-5 -26l5 -32v-196l-5 -32l5 -15l-5 -96c0 -19.333 9 -37 27 -53c28 -14.667 42 -32.334 42 -53.001l-11 -21l-111 5l-164 -5
c-38 0 -64.667 9 -80 27v21c0 6.66699 16 13.667 48 21c14 12.667 21 49.667 21 111v58l-42 -10c-8.66699 0 -14 7 -16 21c24.667 42.667 37 85 37 127c0 20 -10.667 55.333 -32 106l-16 -11h-10l-16 16v6l21 21c56.667 -30 85 -60 85 -90h5l6 100l-6 408
c-2.66699 78 -18.334 117 -47.001 117l-22 16c0 21.333 9 35.333 27 42zM492.001 1071l32 -10.001h42l32 10c14 -3.33301 21 -10.333 21 -21c-24.667 -44 -37 -86.333 -37 -127c0 -23.333 10.667 -58.666 32 -105.999l16 11h10c10.667 0 16 -7.33301 16 -22l-16 -21
c-34 0 -67.667 33.667 -101 101c0 7.33301 -21 28.333 -63 63l5 32l-5 5l5 38v37zM211.001 1066l5 -5v-6l-5 -121l5 -191h-5c-56.667 56.667 -85 115 -85 175c0 48 28.333 97.333 85 148zM471.001 743h5c116.667 -66 175 -145.667 175 -239
c0 -67.333 -44.333 -127.333 -133 -180l-47 -16l-6 6v37c67.333 39.333 101 83.333 101 132v27c0 37.333 -30 74.333 -90 111l-5 48v74zM492.001 1706l117 -6l63 6c32 -2 48 -16.333 48 -43v-90c0 -26.667 30 -47.667 90 -63l16 -22v-15l-21 -22h-80l-169 6l-64 -6
c-20 0 -32.333 19.667 -37 59v169c10.667 18 23 27 37 27zM258.001 1679v-169c-4.66699 -39.333 -17 -59 -37 -59l-64 6l-169 -6h-80l-21 22v15l16 22c60 15.333 90 36.333 90 63v90c0 26.667 16 41 48 43l63 -6l117 6c14 0 26.333 -9 37 -27z" />
    <glyph glyph-name="Eth" unicode="&#xd0;" horiz-adv-x="1277" 
d="M805 955c12 0 22.667 -21.332 32 -63.999c-10.667 -18 -16 -35.667 -16 -53v-26c0 -32 21.333 -64 64 -96v-84c0 -18.667 -5.33301 -29.334 -16 -32.001c-88 70 -132 142.333 -132 217c0 44.667 22.667 90.667 68 138zM392 639.001l0.00292969 -13l16 -127l-5 -26v-85
l-5 -85c0 -18.667 15.667 -34.667 47 -48h154l101 27c72 37.333 117.667 81.333 137 132c28.667 28 51.667 104 69 228v53c0 113.333 -35.333 212.333 -106 297c-38.667 51.333 -91.667 86.666 -159 105.999c-26.667 3.33301 -44.334 8.66602 -53.001 15.999h-169l-21 -16
l5 -64l-6 -238h60l135 3c0 8 6.66699 14.667 20 20c14 23.333 23 35 27 35l23 -16v-128c53.333 -21.333 80 -102.333 80 -243v-21h-5l-43 11c-14 -5.33301 -21 -10.666 -21 -15.999v-21l16 -16h5l37 5l16 -79c-22.667 -18 -40.334 -27 -53.001 -27h-5
c-52.667 47.333 -116.334 79 -191.001 95v11c88.667 0 147 67 175 201v6c-3.33301 18.667 -7 33.667 -11 45v-60c0 -13.333 -3.66699 -21 -11 -23c-15.333 0 -26 10.333 -32 31c-8 12.667 -24.667 20.334 -50 23.001l-4 4zM135.003 825.001l45.0029 44.999v260
c-13.333 36 -34.333 58.667 -63 68l-11 11v21l21 21l212 -10c99.333 6.66699 149 13.667 149 21h127c6 -6 52 -15 138 -27c87.333 -29.333 157.666 -66.333 210.999 -111c30.667 -24.667 59 -56.334 85 -95.001c9.33301 -26 25.333 -43.667 48 -53
c13.333 -10.667 29.333 -16 48 -16h26c12 0 24.333 5.33301 37 16c14 -7.33301 21 -16.333 21 -27c-24.667 -40.667 -37 -83 -37 -127c0 -20 10.667 -55.333 32 -106l16 11h10l16 -16v-5l-21 -21c-63.333 36 -95 71 -95 105h-5v-21l10 -16v-53
c-6.66699 -4.66699 -13.667 -47 -21 -127l-48 -127c-30.667 -75.333 -81.667 -147.666 -153 -216.999c-96.667 -56.667 -208 -85 -334 -85h-276l-180 -5c-16.667 0 -27 12.333 -31 37c0 14 15.667 26.333 47 37c18 27.333 27 57.333 27 90l-4 333h-19l2 -52h-11
c-8.66699 20 -19.334 38.333 -32.001 55l-11 1c-36.667 0 -64 -15.667 -82 -47l-15 -3h-12c-4 0 -8 6.33301 -12 19l4 50l-4 160c0 12.667 6.33301 24.334 19 35.001h9l35 -43l3 27c0 18 -7.66699 45.333 -23 82l-12 -8h-12l-7 8v11l16 12
c23.333 -4 51.666 -36.333 84.999 -97z" />
    <glyph glyph-name="Ntilde" unicode="&#xd1;" horiz-adv-x="1305" 
d="M848 1259l322.999 -0.000976562l26 -32c0 -5.33301 -26.333 -24.666 -79 -57.999c-14 -39.333 -21 -72.666 -21 -99.999l5 -345l-5 -106c6.66699 1.33301 17 17.333 31 48v85c0 5.33301 33.667 17.666 101 36.999l5 5l6 -5c-28.667 -28.667 -43 -133 -43 -313
c-18 -58.667 -41 -104.334 -69 -137.001l-5 15l5 170l-26 79h-5v-164l5 -143h-5l5 -5v-127l11 -16c-5.33301 0 -10.666 -7 -15.999 -21l-6 -6h-21c-18 0 -164.333 146.667 -439 440l-128 138l-116 132c-10.667 0 -16 7 -16 21h-11v-16h11v-5l-11 -16v-95h6
c4 40.667 12.667 63.667 26 69l32 -32l-5 -53c15.333 -92 54 -138 116 -138l48 6h10l69 -80v-10l-74 -11c-102 0 -174.333 44 -217 132l-5 43h-6l-5 -329c0 -63.333 12.333 -95 37 -95c12.667 0 27 -9 43 -27v-10l-27 -32h-318c-7.33301 1.33301 -14.333 10.333 -21 27
c0 16 16 31.667 48 47l5 6c0 6.66699 5.33301 10 16 10l10 249v16l11 16v26l5 392l-5 170c0 95.333 10.667 143 32 143h10l228 -244l101 -111c40 0 73.667 28.333 101 85l5 5h10l43 -85c42.667 -52.667 88.667 -79 138 -79c0 14 3.33301 21 10 21h11l16 -16v-10
c0 -12 -23 -21 -69 -27l-96 21h-21l-47 -10c-23.333 28 -39.333 42 -48 42v-5l132 -159c56 50.667 103.667 80.667 143 90c7.33301 -25.333 11 -60.666 11 -105.999c-46 -30 -69 -58.333 -69 -85l85 -90v5l5 265l-11 350c-8 0 -13 23 -15 69l-53 32l-6 5v26
c2.66699 10.667 17 16 43 16zM512.999 1747c79.333 0 144.667 -44.333 196 -133c43.333 -38.667 80.333 -58 111 -58c63.333 0 121.666 28.333 174.999 85l37 100h31c8 0 15.333 -12.333 22 -37c-38 -208 -124.667 -312 -260 -312c-76 0 -146.667 53 -212 159
c-49.333 31.333 -98.666 47 -147.999 47h-5c-68.667 0 -120 -51 -154 -153c0 -32 -5.33301 -48 -16 -48h-21l-16 16c0 130 46 230.667 138 302c33.333 21.333 74 32 122 32z" />
    <glyph glyph-name="Ograve" unicode="&#xd2;" 
d="M611 1254l120.002 0.00292969c8.66699 -7.33301 38.667 -14.333 90 -21l6 -6c105.333 -36.667 184.666 -102 237.999 -196c32 -38.667 65.667 -111 101 -217c0 -24.667 3.33301 -40.334 10 -47.001v-138c-6.66699 0 -11.667 -35.333 -15 -106
c-29.333 -107.333 -56 -167.333 -80 -180c-37.333 -69.333 -101 -126 -191 -170c-28 -26 -98.333 -45.333 -211 -58l-62 -5c-67.333 0 -157.333 35.333 -270 106c-84 59.333 -135.333 126.333 -154 201c-35.333 108.667 -53 213 -53 313v26l11 16v21
c0 47.333 14 98.666 42 153.999l-11 10h-5l-37 -5c-16.667 39.333 -53.667 71 -111 95c-32 31.333 -48 54.333 -48 69v6c0 8 8.66699 13 26 15l16 -21l-10 -21c39.333 -21.333 76.333 -32 111 -32c33.333 0 75.666 12.333 126.999 37l16 -21l-11 -32
c72 85.333 146.333 143.666 223 174.999c68 11.333 112 22 132 32zM384.002 740.003l-0.000976562 -79.001c0 -165.333 40.333 -276.666 121 -333.999c58.667 -60 118.334 -90 179.001 -90c50.667 4 103.667 32.333 159 85c60 78 90 178.667 90 302v53
c0 88.667 -16 178.667 -48 270c0 43.333 -28.333 89 -85 137c-46 21.333 -103.667 32 -173 32c-104 0 -176.333 -58.333 -217 -175c-17.333 -45.333 -26 -112.333 -26 -201zM869.001 910.002l11 -16.001v-21c0 -7.33301 -23 -16.333 -69 -27
c-46 -37.333 -69 -81.333 -69 -132v-6c0 -52.667 44 -95 132 -127l-5 -5v-5c0 -10.667 10.667 -16 32 -16v-16c-8 -70.667 -18.667 -106 -32 -106c0 8.66699 -44 44 -132 106c-69.333 57.333 -104 112 -104 164v21c0 60.667 54 117.334 162 170.001
c23.333 10.667 48 16 74 16zM113.001 677.001l6 -0.000976562c8 0 13.333 -26.667 16 -80c-18 -32 -27 -63.667 -27 -95c0 -48 24.667 -87 74 -117c0 -8.66699 17.667 -38.667 53 -90v-5l-90 -32c0 -7.33301 -8.66699 -11 -26 -11l-11 16l11 43v26l-53 127l-6 69
c0 46.667 17.667 96.334 53 149.001zM516.001 608l16 -0.000976562c57.333 0 91 -69 101 -207v-53l-11 -10l-32 10c-17.333 0 -26 -8.66699 -26 -26l5 -16h-5c-9.33301 0 -29 17.667 -59 53c39.333 48.667 59 96.334 59 143.001v10c-9.33301 49.333 -20 74 -32 74
c0 -10 -3.66699 -15 -11 -15h-5l-16 15v6zM543.001 1809l-0.000976562 -37.999l-21 -84v-6l58 16c63.333 -122 134 -222.667 212 -302v-16c-39.333 -38.667 -67.666 -58 -84.999 -58l-48 48c-109.333 162.667 -224 244 -344 244v15c24.667 9.33301 37 18.333 37 27
c32 2.66699 48 8 48 16c46 0 86.667 47.667 122 143c-18 0 -27 5.33301 -27 16v5l21 21h6c14 -4.66699 21 -20.334 21 -47.001zM479 1544c0 -44.667 30 -87 90 -127c31.333 0 61.333 -25 90 -75v-5h-5c-58.667 0 -117 30 -175 90c-26 34.667 -45.333 80.667 -58 138l5 5z
" />
    <glyph glyph-name="Oacute" unicode="&#xd3;" 
d="M611 1254l120.002 0.00292969c8.66699 -7.33301 38.667 -14.333 90 -21l6 -6c105.333 -36.667 184.666 -102 237.999 -196c32 -38.667 65.667 -111 101 -217c0 -24.667 3.33301 -40.334 10 -47.001v-138c-6.66699 0 -11.667 -35.333 -15 -106
c-29.333 -107.333 -56 -167.333 -80 -180c-37.333 -69.333 -101 -126 -191 -170c-28 -26 -98.333 -45.333 -211 -58l-62 -5c-67.333 0 -157.333 35.333 -270 106c-84 59.333 -135.333 126.333 -154 201c-35.333 108.667 -53 213 -53 313v26l11 16v21
c0 47.333 14 98.666 42 153.999l-11 10h-5l-37 -5c-16.667 39.333 -53.667 71 -111 95c-32 31.333 -48 54.333 -48 69v6c0 8 8.66699 13 26 15l16 -21l-10 -21c39.333 -21.333 76.333 -32 111 -32c33.333 0 75.666 12.333 126.999 37l16 -21l-11 -32
c72 85.333 146.333 143.666 223 174.999c68 11.333 112 22 132 32zM384.002 740.003l-0.000976562 -79.001c0 -165.333 40.333 -276.666 121 -333.999c58.667 -60 118.334 -90 179.001 -90c50.667 4 103.667 32.333 159 85c60 78 90 178.667 90 302v53
c0 88.667 -16 178.667 -48 270c0 43.333 -28.333 89 -85 137c-46 21.333 -103.667 32 -173 32c-104 0 -176.333 -58.333 -217 -175c-17.333 -45.333 -26 -112.333 -26 -201zM869.001 910.002l11 -16.001v-21c0 -7.33301 -23 -16.333 -69 -27
c-46 -37.333 -69 -81.333 -69 -132v-6c0 -52.667 44 -95 132 -127l-5 -5v-5c0 -10.667 10.667 -16 32 -16v-16c-8 -70.667 -18.667 -106 -32 -106c0 8.66699 -44 44 -132 106c-69.333 57.333 -104 112 -104 164v21c0 60.667 54 117.334 162 170.001
c23.333 10.667 48 16 74 16zM113.001 677.001l6 -0.000976562c8 0 13.333 -26.667 16 -80c-18 -32 -27 -63.667 -27 -95c0 -48 24.667 -87 74 -117c0 -8.66699 17.667 -38.667 53 -90v-5l-90 -32c0 -7.33301 -8.66699 -11 -26 -11l-11 16l11 43v26l-53 127l-6 69
c0 46.667 17.667 96.334 53 149.001zM516.001 608l16 -0.000976562c57.333 0 91 -69 101 -207v-53l-11 -10l-32 10c-17.333 0 -26 -8.66699 -26 -26l5 -16h-5c-9.33301 0 -29 17.667 -59 53c39.333 48.667 59 96.334 59 143.001v10c-9.33301 49.333 -20 74 -32 74
c0 -10 -3.66699 -15 -11 -15h-5l-16 15v6zM814.001 1856l5.99902 -0.000976562l21 -21v-5c0 -10.667 -9 -16 -27 -16c35.333 -95.333 76 -143 122 -143c0 -8 16 -13.333 48 -16c0 -8.66699 12.333 -17.667 37 -27v-15c-120 0 -234.667 -81.333 -344 -244l-48 -48
c-17.333 0 -45.666 19.333 -84.999 58v16c78 79.333 148.667 180 212 302l58 -16v6l-21 84v38c0 26.667 7 42.334 21 47.001zM910 1570l5 -5c-12.667 -57.333 -32 -103.333 -58 -138c-58 -60 -116.333 -90 -175 -90h-5v5c28.667 50 58.667 75 90 75c60 40 90 82.333 90 127z
" />
    <glyph glyph-name="Ocircumflex" unicode="&#xd4;" 
d="M611 1254l120.002 0.00292969c8.66699 -7.33301 38.667 -14.333 90 -21l6 -6c105.333 -36.667 184.666 -102 237.999 -196c32 -38.667 65.667 -111 101 -217c0 -24.667 3.33301 -40.334 10 -47.001v-138c-6.66699 0 -11.667 -35.333 -15 -106
c-29.333 -107.333 -56 -167.333 -80 -180c-37.333 -69.333 -101 -126 -191 -170c-28 -26 -98.333 -45.333 -211 -58l-62 -5c-67.333 0 -157.333 35.333 -270 106c-84 59.333 -135.333 126.333 -154 201c-35.333 108.667 -53 213 -53 313v26l11 16v21
c0 47.333 14 98.666 42 153.999l-11 10h-5l-37 -5c-16.667 39.333 -53.667 71 -111 95c-32 31.333 -48 54.333 -48 69v6c0 8 8.66699 13 26 15l16 -21l-10 -21c39.333 -21.333 76.333 -32 111 -32c33.333 0 75.666 12.333 126.999 37l16 -21l-11 -32
c72 85.333 146.333 143.666 223 174.999c68 11.333 112 22 132 32zM384.002 740.003l-0.000976562 -79.001c0 -165.333 40.333 -276.666 121 -333.999c58.667 -60 118.334 -90 179.001 -90c50.667 4 103.667 32.333 159 85c60 78 90 178.667 90 302v53
c0 88.667 -16 178.667 -48 270c0 43.333 -28.333 89 -85 137c-46 21.333 -103.667 32 -173 32c-104 0 -176.333 -58.333 -217 -175c-17.333 -45.333 -26 -112.333 -26 -201zM869.001 910.002l11 -16.001v-21c0 -7.33301 -23 -16.333 -69 -27
c-46 -37.333 -69 -81.333 -69 -132v-6c0 -52.667 44 -95 132 -127l-5 -5v-5c0 -10.667 10.667 -16 32 -16v-16c-8 -70.667 -18.667 -106 -32 -106c0 8.66699 -44 44 -132 106c-69.333 57.333 -104 112 -104 164v21c0 60.667 54 117.334 162 170.001
c23.333 10.667 48 16 74 16zM113.001 677.001l6 -0.000976562c8 0 13.333 -26.667 16 -80c-18 -32 -27 -63.667 -27 -95c0 -48 24.667 -87 74 -117c0 -8.66699 17.667 -38.667 53 -90v-5l-90 -32c0 -7.33301 -8.66699 -11 -26 -11l-11 16l11 43v26l-53 127l-6 69
c0 46.667 17.667 96.334 53 149.001zM516.001 608l16 -0.000976562c57.333 0 91 -69 101 -207v-53l-11 -10l-32 10c-17.333 0 -26 -8.66699 -26 -26l5 -16h-5c-9.33301 0 -29 17.667 -59 53c39.333 48.667 59 96.334 59 143.001v10c-9.33301 49.333 -20 74 -32 74
c0 -10 -3.66699 -15 -11 -15h-5l-16 15v6zM622.001 1798l9.99805 -0.000976562c24.667 -16 58.334 -65.333 101.001 -148c42 -60 93 -162 153 -306v-8c-3.33301 -8.66699 -13.666 -13 -30.999 -13h-75c-26 0 -50.667 41.667 -74 125
c-28.667 58.667 -46.334 88.334 -53.001 89.001l-120 -210l-5 -4h-145l-21 21v4c98.667 202.667 185.334 352.667 260.001 450z" />
    <glyph glyph-name="Otilde" unicode="&#xd5;" 
d="M611 1254l120.002 0.00292969c8.66699 -7.33301 38.667 -14.333 90 -21l6 -6c105.333 -36.667 184.666 -102 237.999 -196c32 -38.667 65.667 -111 101 -217c0 -24.667 3.33301 -40.334 10 -47.001v-138c-6.66699 0 -11.667 -35.333 -15 -106
c-29.333 -107.333 -56 -167.333 -80 -180c-37.333 -69.333 -101 -126 -191 -170c-28 -26 -98.333 -45.333 -211 -58l-62 -5c-67.333 0 -157.333 35.333 -270 106c-84 59.333 -135.333 126.333 -154 201c-35.333 108.667 -53 213 -53 313v26l11 16v21
c0 47.333 14 98.666 42 153.999l-11 10h-5l-37 -5c-16.667 39.333 -53.667 71 -111 95c-32 31.333 -48 54.333 -48 69v6c0 8 8.66699 13 26 15l16 -21l-10 -21c39.333 -21.333 76.333 -32 111 -32c33.333 0 75.666 12.333 126.999 37l16 -21l-11 -32
c72 85.333 146.333 143.666 223 174.999c68 11.333 112 22 132 32zM384.002 740.003l-0.000976562 -79.001c0 -165.333 40.333 -276.666 121 -333.999c58.667 -60 118.334 -90 179.001 -90c50.667 4 103.667 32.333 159 85c60 78 90 178.667 90 302v53
c0 88.667 -16 178.667 -48 270c0 43.333 -28.333 89 -85 137c-46 21.333 -103.667 32 -173 32c-104 0 -176.333 -58.333 -217 -175c-17.333 -45.333 -26 -112.333 -26 -201zM869.001 910.002l11 -16.001v-21c0 -7.33301 -23 -16.333 -69 -27
c-46 -37.333 -69 -81.333 -69 -132v-6c0 -52.667 44 -95 132 -127l-5 -5v-5c0 -10.667 10.667 -16 32 -16v-16c-8 -70.667 -18.667 -106 -32 -106c0 8.66699 -44 44 -132 106c-69.333 57.333 -104 112 -104 164v21c0 60.667 54 117.334 162 170.001
c23.333 10.667 48 16 74 16zM113.001 677.001l6 -0.000976562c8 0 13.333 -26.667 16 -80c-18 -32 -27 -63.667 -27 -95c0 -48 24.667 -87 74 -117c0 -8.66699 17.667 -38.667 53 -90v-5l-90 -32c0 -7.33301 -8.66699 -11 -26 -11l-11 16l11 43v26l-53 127l-6 69
c0 46.667 17.667 96.334 53 149.001zM516.001 608l16 -0.000976562c57.333 0 91 -69 101 -207v-53l-11 -10l-32 10c-17.333 0 -26 -8.66699 -26 -26l5 -16h-5c-9.33301 0 -29 17.667 -59 53c39.333 48.667 59 96.334 59 143.001v10c-9.33301 49.333 -20 74 -32 74
c0 -10 -3.66699 -15 -11 -15h-5l-16 15v6zM498.001 1747c79.333 0 144.667 -44.333 196 -133c43.333 -38.667 80.333 -58 111 -58c63.333 0 121.666 28.333 174.999 85l37 100h31c8 0 15.333 -12.333 22 -37c-38 -208 -124.667 -312 -260 -312c-76 0 -146.667 53 -212 159
c-49.333 31.333 -98.666 47 -147.999 47h-5c-68.667 0 -120 -51 -154 -153c0 -32 -5.33301 -48 -16 -48h-21l-16 16c0 130 46 230.667 138 302c33.333 21.333 74 32 122 32z" />
    <glyph glyph-name="Odieresis" unicode="&#xd6;" 
d="M611 1254l120.002 0.00292969c8.66699 -7.33301 38.667 -14.333 90 -21l6 -6c105.333 -36.667 184.666 -102 237.999 -196c32 -38.667 65.667 -111 101 -217c0 -24.667 3.33301 -40.334 10 -47.001v-138c-6.66699 0 -11.667 -35.333 -15 -106
c-29.333 -107.333 -56 -167.333 -80 -180c-37.333 -69.333 -101 -126 -191 -170c-28 -26 -98.333 -45.333 -211 -58l-62 -5c-67.333 0 -157.333 35.333 -270 106c-84 59.333 -135.333 126.333 -154 201c-35.333 108.667 -53 213 -53 313v26l11 16v21
c0 47.333 14 98.666 42 153.999l-11 10h-5l-37 -5c-16.667 39.333 -53.667 71 -111 95c-32 31.333 -48 54.333 -48 69v6c0 8 8.66699 13 26 15l16 -21l-10 -21c39.333 -21.333 76.333 -32 111 -32c33.333 0 75.666 12.333 126.999 37l16 -21l-11 -32
c72 85.333 146.333 143.666 223 174.999c68 11.333 112 22 132 32zM384.002 740.003l-0.000976562 -79.001c0 -165.333 40.333 -276.666 121 -333.999c58.667 -60 118.334 -90 179.001 -90c50.667 4 103.667 32.333 159 85c60 78 90 178.667 90 302v53
c0 88.667 -16 178.667 -48 270c0 43.333 -28.333 89 -85 137c-46 21.333 -103.667 32 -173 32c-104 0 -176.333 -58.333 -217 -175c-17.333 -45.333 -26 -112.333 -26 -201zM869.001 910.002l11 -16.001v-21c0 -7.33301 -23 -16.333 -69 -27
c-46 -37.333 -69 -81.333 -69 -132v-6c0 -52.667 44 -95 132 -127l-5 -5v-5c0 -10.667 10.667 -16 32 -16v-16c-8 -70.667 -18.667 -106 -32 -106c0 8.66699 -44 44 -132 106c-69.333 57.333 -104 112 -104 164v21c0 60.667 54 117.334 162 170.001
c23.333 10.667 48 16 74 16zM113.001 677.001l6 -0.000976562c8 0 13.333 -26.667 16 -80c-18 -32 -27 -63.667 -27 -95c0 -48 24.667 -87 74 -117c0 -8.66699 17.667 -38.667 53 -90v-5l-90 -32c0 -7.33301 -8.66699 -11 -26 -11l-11 16l11 43v26l-53 127l-6 69
c0 46.667 17.667 96.334 53 149.001zM516.001 608l16 -0.000976562c57.333 0 91 -69 101 -207v-53l-11 -10l-32 10c-17.333 0 -26 -8.66699 -26 -26l5 -16h-5c-9.33301 0 -29 17.667 -59 53c39.333 48.667 59 96.334 59 143.001v10c-9.33301 49.333 -20 74 -32 74
c0 -10 -3.66699 -15 -11 -15h-5l-16 15v6zM802.001 1706l117 -6l63 6c32 -2 48 -16.333 48 -43v-90c0 -26.667 30 -47.667 90 -63l16 -22v-15l-21 -22h-80l-169 6l-64 -6c-20 0 -32.333 19.667 -37 59v169c10.667 18 23 27 37 27zM568.001 1679v-169
c-4.66699 -39.333 -17 -59 -37 -59l-64 6l-169 -6h-80l-21 22v15l16 22c60 15.333 90 36.333 90 63v90c0 26.667 16 41 48 43l63 -6l117 6c14 0 26.333 -9 37 -27z" />
    <glyph glyph-name="multiply" unicode="&#xd7;" horiz-adv-x="1107" 
d="M796 1109l48 -55.999l136 -134l23 -23c12.667 -13.333 16 -29.333 10 -48l-8 -8c-3.33301 -3.33301 -23.333 -0.333008 -60 9l-26 -3l-57 -55l-129 -111l-7 -7l122 -126c9.33301 0 35.333 -16.667 78 -50l74 7c13.333 -14 17 -28 11 -42l-240 -232h-30
c-5.33301 5.33301 -2.66602 32.666 8.00098 81.999c-8 24 -28.667 53.333 -62 88l-63 64l-50 61l-43 -41c-103.333 -100.667 -147.666 -158.667 -132.999 -174c-6.66699 -6.66699 -4.66699 -19 6 -37l-3 -19c-18 -17.333 -35.667 -17 -53 1l-206 213
c-10.667 10.667 -14.334 27 -11.001 49l-10 19c-20 20 -55 40.667 -105 62l-4 -19l-7 -7h-22l-8 8v23c24 22.667 71.333 21.667 142 -3c40 -10.667 67.667 -8.66699 83 6l26 -27c30.667 -24 50.334 -31.667 59.001 -23l103 99l19 4l8 7l-1 15l-58 61l-63 73
c-36.667 38 -70 49.333 -100 34l-34 5l-18 19c-4 4 -1.66699 14 7 30l53 44l153 154c12.667 12.667 30 17.667 52 15l8 -8l-12 -70c91.333 -103.333 134.333 -157.666 129 -162.999l40 -42l95 92l19 3l38 37c0 8.66699 11.333 27 34 55
c-8.66699 34.667 -9.33398 61 -2.00098 79l16 15c3.33301 3.33301 11.666 1.66602 24.999 -5.00098zM707 1104c22 -56.667 30.001 -88 24.001 -94l-34 -41l-23 -23c-6 -5.33301 -21 2.66699 -45 24c-48 12.667 -88.333 3.33398 -121 -27.999l-21 22
c-5.33301 5.33301 -4 11.666 4 18.999c15.333 15.333 61.666 36 138.999 62l19 11l31 52zM640.001 434.001l-1 -22c-44 -34.667 -109 -53.667 -195 -57l-24 -15l-7 7l16 23l41 41c58.667 -7.33301 107.667 8 147 46z" />
    <glyph glyph-name="Oslash" unicode="&#xd8;" 
d="M113 677l6 -0.000976562c8 0 13.333 -26.667 16 -80c-18 -32 -27 -63.667 -27 -95c0 -48 24.667 -87 74 -117c0 -8.66699 17.667 -38.667 53 -90v-5l-90 -32c0 -7.33301 -8.66699 -11 -26 -11l-11 16l11 43v26l-53 127l-6 69c0 46.667 17.667 96.334 53 149.001z
M455 375.999l102 268.999c0 6.66699 -12.667 28.334 -38 65.001l-7 31v10c0 6 4.66699 9.66699 14 11l14 -11v-3c0 -6.66699 -4.66699 -10 -14 -10c3.33301 -10 18.333 -26 45 -48h3c73.333 196 110 299 110 309c-13.333 26 -20 53.667 -20 83c0 10 1.33301 21 4 33
c-13.333 0.666992 -27 1 -41 1c-104 0 -176.333 -58.333 -217 -175c-17.333 -45.333 -26 -112.333 -26 -201v-79c0 -126.667 23.667 -221.667 71 -285zM697 1112c-1.33301 -6.66699 -2 -13.333 -2 -20l10 -48h3c0 4.66699 6.33301 25.667 19 63
c-9.33301 2 -19.333 3.66699 -30 5zM788 889.999l6 4v5c-2 -2 -4 -5 -6 -9zM823 848.999c-4.66699 -22.667 -16.333 -50.332 -35 -82.999v-21l10 -31l-14 -11l-42 21v-16c0 -52.667 44 -95 132 -127l-5 -5v-5c0 -10.667 10.667 -16 32 -16v-16
c-8 -70.667 -18.667 -106 -32 -106c0 8.66699 -44 44 -132 106c-24 19.333 -43.667 38.666 -59 57.999c-6.66699 -14.667 -16 -41.334 -28 -80.001l-87 -239c40 -27.333 80.333 -41 121 -41c50.667 4 103.667 32.333 159 85c60 78 90 178.667 90 302v53
c0 88.667 -16 178.667 -48 270c0 30.667 -14 62.334 -42 95.001l-14 -39l-17 -38v-4l11 -57c14.667 4 30 6 46 6l11 -16v-21c0 -6.66699 -19 -14.667 -57 -24zM776.001 1240l14.998 41.0039l3 35c0 8 -8 14.667 -24 20v14l21 21l41 -4h158l21 -14v-13
c0 -4.66699 -12.667 -10.334 -38 -17.001c-23.333 -20 -45.666 -64 -66.999 -132c66.667 -38 119.667 -91.333 159 -160c32 -38.667 65.667 -111 101 -217c0 -24.667 3.33301 -40.334 10 -47.001v-138c-6.66699 0 -11.667 -35.333 -15 -106
c-29.333 -107.333 -56 -167.333 -80 -180c-37.333 -69.333 -101 -126 -191 -170c-28 -26 -98.333 -45.333 -211 -58l-62 -5c-32 0 -69 8 -111 24c-2.66699 -12 -4 -23 -4 -33v-3c14 -14 21 -25.333 21 -34v-8l-7 -10l-73 4l-106 -4c-27.333 0 -44.666 8 -51.999 24
c2 8.66699 17 17 45 25c18.667 20.667 35.334 54.334 50.001 101.001l-33 20c-84 59.333 -135.333 126.333 -154 201c-35.333 108.667 -53 213 -53 313v26l11 16v21c0 47.333 14 98.666 42 153.999l-11 10h-5l-37 -5c-16.667 39.333 -53.667 71 -111 95
c-32 31.333 -48 54.333 -48 69v6c0 8 8.66699 13 26 15l16 -21l-10 -21c39.333 -21.333 76.333 -32 111 -32c33.333 0 75.666 12.333 126.999 37l16 -21l-11 -32c72 85.333 146.333 143.666 223 174.999c68 11.333 112 22 132 32h88c2 1.33301 5 2.33301 9 3l7 -3h16
c6 -4.66699 21 -9.33398 45 -14.001z" />
    <glyph glyph-name="Ugrave" unicode="&#xd9;" horiz-adv-x="1215" 
d="M388 1390l26.999 0.000976562c41.333 0 94.333 -19.667 159 -59h31l68 16l16 -21c-24.667 -43.333 -37 -87.333 -37 -132c0 -24.667 10.667 -58.334 32 -101.001l26 5h6l10 -10v-11l-16 -16h-5c-28 0 -66.333 32 -115 96c-8.66699 22 -31.667 43 -69 63l5 27
c-11.333 63.333 -39.666 95 -84.999 95h-37c-52 0 -96 -24.667 -132 -74h-44c0 32.667 30.333 69.667 91 111zM446.999 1252l20.9971 -32v-5l-53 -53c-18 -56 -27 -105.333 -27 -148l6 -504c4.66699 0 13.334 -37 26.001 -111c24.667 -56.667 74 -85 148 -85h11
c36 0 60.333 9 73 27c16 0 69 38.667 159 116v48l-5 360l5 202c0 57.333 -14.333 94.333 -43 111c-17.333 12 -26 27.667 -26 47h-5c6.66699 16.667 13.667 25.667 21 27h319c24.667 0 37 -12.333 37 -37c-27.333 -20 -48.666 -43 -63.999 -69v-742l-5 -21l5 -21v-79
c12.667 -34 34 -60.667 64 -80l5 -5c10.667 0 16 -7 16 -21h5c-6.66699 -16.667 -13.667 -25.667 -21 -27h-276c-24.667 0 -37 12.333 -37 37v74h-6c-61.333 -61.333 -107 -94.666 -137 -99.999l-79 -27h-106l-16 11h-15c-76 0 -140 31.667 -192 95c-50 74 -80 143 -90 207
c-10.667 0 -16 116.333 -16 349v16l-16 6l-11 -22v-90h-10c-72 42.667 -123.333 64 -154 64v11c84.667 0 143 65.333 175 196v5c-3.33301 46 -14 72.333 -32 79l-11 -10h-10l-11 10v11l16 16h16c12.667 0 30.334 -9 53.001 -27l-5 37v37
c-12 25.333 -31.667 46.666 -59 63.999l-5 32l32 16h26l16 -11h43l16 11h38l16 -11h53l16 11h79zM424.996 743.001h21.999c62.667 -29.333 138 -103.333 226 -222c49.333 -32 81 -48 95 -48v-10c-42.667 0 -109.334 -39 -200.001 -117h-21c-37.333 0 -56.666 9 -57.999 27
l32 79l5 -5h21l21 26c0 18 -15.667 27 -47 27c-23.333 88 -51.666 132 -84.999 132l-11 16v95zM535.995 1809l-0.000976562 -37.999l-21 -84v-6l58 16c63.333 -122 134 -222.667 212 -302v-16c-39.333 -38.667 -67.666 -58 -84.999 -58l-48 48
c-109.333 162.667 -224 244 -344 244v15c24.667 9.33301 37 18.333 37 27c32 2.66699 48 8 48 16c46 0 86.667 47.667 122 143c-18 0 -27 5.33301 -27 16v5l21 21h6c14 -4.66699 21 -20.334 21 -47.001zM471.994 1544c0 -44.667 30 -87 90 -127c31.333 0 61.333 -25 90 -75
v-5h-5c-58.667 0 -117 30 -175 90c-26 34.667 -45.333 80.667 -58 138l5 5z" />
    <glyph glyph-name="Uacute" unicode="&#xda;" horiz-adv-x="1215" 
d="M388 1390l26.999 0.000976562c41.333 0 94.333 -19.667 159 -59h31l68 16l16 -21c-24.667 -43.333 -37 -87.333 -37 -132c0 -24.667 10.667 -58.334 32 -101.001l26 5h6l10 -10v-11l-16 -16h-5c-28 0 -66.333 32 -115 96c-8.66699 22 -31.667 43 -69 63l5 27
c-11.333 63.333 -39.666 95 -84.999 95h-37c-52 0 -96 -24.667 -132 -74h-44c0 32.667 30.333 69.667 91 111zM446.999 1252l20.9971 -32v-5l-53 -53c-18 -56 -27 -105.333 -27 -148l6 -504c4.66699 0 13.334 -37 26.001 -111c24.667 -56.667 74 -85 148 -85h11
c36 0 60.333 9 73 27c16 0 69 38.667 159 116v48l-5 360l5 202c0 57.333 -14.333 94.333 -43 111c-17.333 12 -26 27.667 -26 47h-5c6.66699 16.667 13.667 25.667 21 27h319c24.667 0 37 -12.333 37 -37c-27.333 -20 -48.666 -43 -63.999 -69v-742l-5 -21l5 -21v-79
c12.667 -34 34 -60.667 64 -80l5 -5c10.667 0 16 -7 16 -21h5c-6.66699 -16.667 -13.667 -25.667 -21 -27h-276c-24.667 0 -37 12.333 -37 37v74h-6c-61.333 -61.333 -107 -94.666 -137 -99.999l-79 -27h-106l-16 11h-15c-76 0 -140 31.667 -192 95c-50 74 -80 143 -90 207
c-10.667 0 -16 116.333 -16 349v16l-16 6l-11 -22v-90h-10c-72 42.667 -123.333 64 -154 64v11c84.667 0 143 65.333 175 196v5c-3.33301 46 -14 72.333 -32 79l-11 -10h-10l-11 10v11l16 16h16c12.667 0 30.334 -9 53.001 -27l-5 37v37
c-12 25.333 -31.667 46.666 -59 63.999l-5 32l32 16h26l16 -11h43l16 11h38l16 -11h53l16 11h79zM424.996 743.001h21.999c62.667 -29.333 138 -103.333 226 -222c49.333 -32 81 -48 95 -48v-10c-42.667 0 -109.334 -39 -200.001 -117h-21c-37.333 0 -56.666 9 -57.999 27
l32 79l5 -5h21l21 26c0 18 -15.667 27 -47 27c-23.333 88 -51.666 132 -84.999 132l-11 16v95zM762.995 1856l5 -0.000976562l22 -21v-5c0 -10.667 -9 -16 -27 -16c35.333 -95.333 76 -143 122 -143c0 -8 16 -13.333 48 -16c0 -8.66699 12.333 -17.667 37 -27v-15
c-120 0 -235 -81.333 -345 -244l-47 -48c-18 0 -46.333 19.333 -85 58v16c77.333 79.333 148 180 212 302l58 -16v6l-21 84v38c0 26.667 7 42.334 21 47.001zM858.995 1570l5 -5c-12.667 -57.333 -32 -103.333 -58 -138c-58 -60 -116.333 -90 -175 -90h-6v5
c29.333 50 59.333 75 90 75c60.667 40 91 82.333 91 127z" />
    <glyph glyph-name="Ucircumflex" unicode="&#xdb;" horiz-adv-x="1215" 
d="M388 1390l26.999 0.000976562c41.333 0 94.333 -19.667 159 -59h31l68 16l16 -21c-24.667 -43.333 -37 -87.333 -37 -132c0 -24.667 10.667 -58.334 32 -101.001l26 5h6l10 -10v-11l-16 -16h-5c-28 0 -66.333 32 -115 96c-8.66699 22 -31.667 43 -69 63l5 27
c-11.333 63.333 -39.666 95 -84.999 95h-37c-52 0 -96 -24.667 -132 -74h-44c0 32.667 30.333 69.667 91 111zM446.999 1252l20.9971 -32v-5l-53 -53c-18 -56 -27 -105.333 -27 -148l6 -504c4.66699 0 13.334 -37 26.001 -111c24.667 -56.667 74 -85 148 -85h11
c36 0 60.333 9 73 27c16 0 69 38.667 159 116v48l-5 360l5 202c0 57.333 -14.333 94.333 -43 111c-17.333 12 -26 27.667 -26 47h-5c6.66699 16.667 13.667 25.667 21 27h319c24.667 0 37 -12.333 37 -37c-27.333 -20 -48.666 -43 -63.999 -69v-742l-5 -21l5 -21v-79
c12.667 -34 34 -60.667 64 -80l5 -5c10.667 0 16 -7 16 -21h5c-6.66699 -16.667 -13.667 -25.667 -21 -27h-276c-24.667 0 -37 12.333 -37 37v74h-6c-61.333 -61.333 -107 -94.666 -137 -99.999l-79 -27h-106l-16 11h-15c-76 0 -140 31.667 -192 95c-50 74 -80 143 -90 207
c-10.667 0 -16 116.333 -16 349v16l-16 6l-11 -22v-90h-10c-72 42.667 -123.333 64 -154 64v11c84.667 0 143 65.333 175 196v5c-3.33301 46 -14 72.333 -32 79l-11 -10h-10l-11 10v11l16 16h16c12.667 0 30.334 -9 53.001 -27l-5 37v37
c-12 25.333 -31.667 46.666 -59 63.999l-5 32l32 16h26l16 -11h43l16 11h38l16 -11h53l16 11h79zM424.996 743.001h21.999c62.667 -29.333 138 -103.333 226 -222c49.333 -32 81 -48 95 -48v-10c-42.667 0 -109.334 -39 -200.001 -117h-21c-37.333 0 -56.666 9 -57.999 27
l32 79l5 -5h21l21 26c0 18 -15.667 27 -47 27c-23.333 88 -51.666 132 -84.999 132l-11 16v95zM584.995 1798l9.99805 -0.000976562c24.667 -16 58.334 -65.333 101.001 -148c42 -60 93 -162 153 -306v-8c-3.33301 -8.66699 -13.666 -13 -30.999 -13h-75
c-26 0 -50.667 41.667 -74 125c-28.667 58.667 -46.334 88.334 -53.001 89.001l-120 -210l-5 -4h-145l-21 21v4c98.667 202.667 185.334 352.667 260.001 450z" />
    </font>
</defs>
</svg>
